<?xml version="1.0" encoding="utf-8"?>
<!-- Generator: Adobe Illustrator 27.5.0, SVG Export Plug-In . SVG Version: 6.00 Build 0)  -->
<svg version="1.1" id="Слой_1" xmlns="http://www.w3.org/2000/svg" xmlns:xlink="http://www.w3.org/1999/xlink" x="0px" y="0px"
	 viewBox="0 0 3008.932 2000" style="enable-background:new 0 0 3008.932 2000;" xml:space="preserve">
<g>
	<rect style="fill:transparent;" width="3008.932" height="2000"/>
	<g>
		<g>
			<rect x="1322.142" y="1030.254" style="fill:#E0E0E0;" width="5.535" height="580.665"/>
		</g>
		<g>
			<rect x="1715.664" y="1030.254" style="fill:#E0E0E0;" width="5.535" height="580.665"/>
		</g>
		<g>
			<rect x="2109.187" y="1030.254" style="fill:#E0E0E0;" width="5.534" height="580.665"/>
		</g>
		<rect x="931.387" y="958.704" style="fill:#D9D9D9;" width="94.256" height="15.136"/>
		<rect x="931.387" y="986.682" style="fill:#D9D9D9;" width="133.701" height="15.136"/>
		<rect x="1320.668" y="958.704" style="fill:#D9D9D9;" width="110.661" height="15.136"/>
		<rect x="1320.668" y="986.682" style="fill:#D9D9D9;" width="70.757" height="15.136"/>
		<rect x="1721.199" y="958.704" style="fill:#D9D9D9;" width="68.573" height="15.136"/>
		<rect x="1721.199" y="986.682" style="fill:#D9D9D9;" width="79.925" height="15.136"/>
		<rect x="2114.721" y="958.704" style="fill:#D9D9D9;" width="99.887" height="15.136"/>
		<rect x="2114.721" y="986.682" style="fill:#D9D9D9;" width="79.926" height="15.136"/>
		<rect x="1324.91" y="1645.318" style="fill:#B8B8B8;" width="62.609" height="20.182"/>
		<rect x="1721.199" y="1645.318" style="fill:#B8B8B8;" width="62.608" height="20.182"/>
		<rect x="2114.721" y="1645.318" style="fill:#B8B8B8;" width="62.609" height="20.182"/>
		<rect x="2508.243" y="1645.318" style="fill:#B8B8B8;" width="62.608" height="20.182"/>
		<g style="opacity:0.43;">
			<linearGradient id="SVGID_1_" gradientUnits="userSpaceOnUse" x1="931.3872" y1="1309.5962" x2="2505.4766" y2="1309.5962">
				<stop  offset="0" style="stop-color:#FFC05C"/>
				<stop  offset="1" style="stop-color:#FF3857"/>
			</linearGradient>
			<path style="fill:url(#SVGID_1_);" d="M2369.103,1438.393c-122.743,0.008-229.44-53.063-340.673-108.375
				c-137.324-68.287-279.321-138.897-468.514-119.563c-120.809,12.347-196.64,61.546-263.543,104.953
				c-60.577,39.304-117.848,73.867-195.415,76.818c-125.356,4.77-168.844-48.695-169.571-51.957v-34.31l0,0l0,0
				c0.157,0.593,27.525,60.602,169.438,59.891c69.887-0.353,121.467-33.818,181.192-72.568
				c69.407-45.033,148.074-96.072,275.217-109.066c196.777-20.112,342.256,52.228,482.939,122.186
				c147.209,73.201,287.681,141.848,465.303,82.29v28.21C2454.846,1433.877,2414.352,1438.39,2369.103,1438.393z"/>
		</g>
		<g style="opacity:0.22;">
			
				<linearGradient id="SVGID_00000056414242635924206030000010421572730797588650_" gradientUnits="userSpaceOnUse" x1="931.3872" y1="1267.0016" x2="2506.3076" y2="1267.0016">
				<stop  offset="0" style="stop-color:#40D5E6"/>
				<stop  offset="1" style="stop-color:#5577FF"/>
			</linearGradient>
			<path style="fill:url(#SVGID_00000056414242635924206030000010421572730797588650_);" d="M1632.346,1431.818
				c-90.6,0.008-162.456-60.93-232.806-120.574c-53.341-45.225-108.683-91.464-172.563-114.271
				c-194.958-69.606-294.698,57.495-295.59,58.613v-38.664c1.053-1.322,18.846-24.425,70.317-46.481
				c46.862-20.082,125.487-36.103,233.938,1.619c68.708,23.898,125.771,72.278,180.955,119.064
				c111.944,94.908,208.62,176.873,376.516,48.486c127.164-97.239,247.037-189.905,364.985-223.759
				c115.361-33.111,235.63-8.872,348.209,103.707l-0.831,35.112c-239.14-240.194-442.76-88.017-696.342,105.893
				C1741.967,1411.928,1684.093,1431.813,1632.346,1431.818z"/>
		</g>
	</g>
	<g>
		
			<linearGradient id="SVGID_00000107553406216064894970000002688915938176218764_" gradientUnits="userSpaceOnUse" x1="1820.9473" y1="767.9711" x2="2382.3496" y2="767.9711">
			<stop  offset="0" style="stop-color:#8FD6FF"/>
			<stop  offset="1" style="stop-color:#BFEBFE"/>
		</linearGradient>
		<polygon style="fill:url(#SVGID_00000107553406216064894970000002688915938176218764_);" points="1824.942,891.54 
			1820.947,886.851 1887.237,830.377 1927.496,830.377 2018.842,752.558 2075.973,801.227 2118.103,801.227 2139.396,819.369 
			2205.555,763.007 2239.135,763.007 2378.355,644.402 2382.35,649.092 2241.402,769.168 2207.822,769.168 2139.396,827.461 
			2115.834,807.388 2073.705,807.388 2018.842,760.65 1929.765,836.537 1889.506,836.537 		"/>
	</g>
	<g>
		
			<linearGradient id="SVGID_00000126316017504830970670000005423352760215939480_" gradientUnits="userSpaceOnUse" x1="1811.6094" y1="695.889" x2="2371.1953" y2="695.889">
			<stop  offset="0" style="stop-color:#8FD6FF"/>
			<stop  offset="1" style="stop-color:#BFEBFE"/>
		</linearGradient>
		<polygon style="fill:url(#SVGID_00000126316017504830970670000005423352760215939480_);" points="1834.519,813.534 
			1811.609,813.534 1811.609,807.374 1831.967,807.374 1866.369,772.972 1891.383,797.985 1951.136,738.232 1969.516,756.612 
			2030.098,696.029 2066.402,732.333 2107.794,732.333 2171.68,668.446 2226.777,668.446 2267.51,627.714 2317.367,627.714 
			2366.84,578.244 2371.195,582.6 2319.92,633.875 2270.061,633.875 2229.33,674.606 2174.231,674.606 2110.346,738.493 
			2063.851,738.493 2030.098,704.741 1969.516,765.324 1951.136,746.945 1891.383,806.697 1866.369,781.684 		"/>
	</g>
	
		<linearGradient id="SVGID_00000107577166441425446210000000998373052646849155_" gradientUnits="userSpaceOnUse" x1="1915.6552" y1="518.1862" x2="1599.2404" y2="1419.6718">
		<stop  offset="0" style="stop-color:#C6CBCF"/>
		<stop  offset="1" style="stop-color:#F8F1FE"/>
	</linearGradient>
	<path style="fill:url(#SVGID_00000107577166441425446210000000998373052646849155_);" d="M2446.34,827.536
		c-0.037-0.13-0.074-0.261-0.111-0.392c-58.918-205.484-205.971-381.117-409.137-471.494h-0.02
		c-34.805-15.627-71.329-28.581-109.237-38.787c-94.863-25.534-190.437-31.31-282.31-19.944c-0.074,0.017-0.168,0.017-0.242,0.037
		l-0.132-0.037c-61.815,7.737-121.985,23.178-179.203,45.796c-0.112,0.038-0.225,0.093-0.337,0.131
		c-210.12,82.638-379.603,260.496-442.764,495.233c-106.023,393.959,127.331,799.152,521.16,905.138
		c202.24,54.417,407.433,19.38,573.604-80.884l31.023,43.083l146.191-105.274l-35.291-49.008
		c88.057-88.31,154.914-200.145,189.646-329.226C2485.314,1087.658,2482.043,952.064,2446.34,827.536z M1905.592,1502.29
		c-261.113,93.574-548.657-42.226-642.23-303.339c-91.835-256.251,37.254-537.982,288.908-636.809
		c4.767-1.868,9.57-3.682,14.431-5.421c35.628-12.767,71.741-21.271,107.779-25.757c92.415-11.515,184.362,3.289,266.459,39.964
		c120.603,53.871,219.915,154.959,267.991,289.132c3.775,10.561,7.197,21.16,10.244,31.796
		C2291.307,1144.108,2156.143,1412.493,1905.592,1502.29z"/>
	<g>
		<path style="fill:#FF8557;" d="M2591.805,785.665l-145.576,41.479l-227.055,64.712c-3.047-10.636-6.469-21.234-10.244-31.796
			c-48.076-134.173-147.389-235.262-267.991-289.132l96.134-215.279h0.02l10.112-22.656l51.665-115.705
			C2343.738,326.208,2520.924,537.974,2591.805,785.665z"/>
	</g>
	<g>
		<path style="fill:#0064B5;" d="M2047.204,332.994l-10.112,22.656l-96.153,215.279c-82.097-36.675-174.044-51.479-266.458-39.964
			l-28.955-234.046l-3.028-24.544c94.976-11.794,193.783-5.814,291.862,20.58C1973.5,303.478,2011.259,316.863,2047.204,332.994z"/>
	</g>
	<g>
		<path style="fill:#004E8C;" d="M1674.48,530.964c-36.039,4.486-72.152,12.99-107.781,25.757c-4.859,1.739-9.663,3.551-14.43,5.421
			l-86.321-219.428l-26.132-66.415c62.825-24.879,128.902-41.852,196.792-50.338l0.149,0.039l5.738,46.375l3.028,24.544
			L1674.48,530.964z"/>
	</g>
	
		<linearGradient id="SVGID_00000183214162056179123650000018202394149691761797_" gradientUnits="userSpaceOnUse" x1="2075.9644" y1="1442.3901" x2="2649.8433" y2="2254.8491">
		<stop  offset="0" style="stop-color:#C6CBCF"/>
		<stop  offset="1" style="stop-color:#F8F1FE"/>
	</linearGradient>
	<polygon style="fill:url(#SVGID_00000183214162056179123650000018202394149691761797_);" points="2617.307,2000 2326.201,2000 
		2123.906,1719.049 2218.781,1650.727 2315.611,1581.015 2363.833,1648.001 	"/>
	<g>
		<g>
			<g>
				<path style="fill:#6A75BA;" d="M1578.6,175.074c0,0-10.49-19.255-16.457-26.186c-5.967-6.928-25.792-12.126-23.098-20.98
					c2.695-8.854,29.258-5.004,36.572,3.657c7.313,8.663,29.642,11.743,30.412,15.398c0.77,3.657-7.754,23.675-12.539,26.947
					C1588.705,177.184,1578.6,175.074,1578.6,175.074z"/>
				<path style="fill:#545D94;" d="M1534.012,191.379c0,0-17.086-13.547-25.313-17.538c-8.228-3.99-28.487-0.887-29.53-10.082
					c-1.043-9.197,24.864-16.211,35.017-11.166c10.152,5.044,31.867-0.996,34.025,2.056c2.158,3.051,2.285,24.806-0.807,29.71
					C1544.312,189.262,1534.012,191.379,1534.012,191.379z"/>
				<path style="fill:#EEA886;" d="M1571.959,226.651c0,0,7.459-51.012,7.123-59.861c-0.098-2.527,15.35-1.588,14.628,3.271
					c-1.571,10.582,5.558,51.585,4.318,59.092C1596.789,236.66,1571.324,231.378,1571.959,226.651z"/>
				<path style="fill:#EEA886;" d="M1548.587,241.311c0,0-13.978-49.532-17.235-57.767c-1.449-3.666,12.794-9.345,14.726-2.806
					c3.03,10.259,25.585,45.136,27.429,52.518C1575.35,240.638,1549.881,245.903,1548.587,241.311z"/>
				<path style="fill:#D9D3C8;" d="M1558.293,275.733c0,0-15.014-50.623-17.322-56.012l23.674-14.628
					c0,0,10.973,32.336,12.512,40.421C1578.696,253.598,1558.293,275.733,1558.293,275.733z"/>
				<path style="fill:#222538;" d="M1977.371,141.985c0,0-22.863,5.779-33.74,23.069c-10.877,17.29-20.278,37.203-40.717,46.236
					c-20.439,9.034-20.571,32.312-18.98,35.901c1.592,3.59,64.383,74.172,78.083,76.9c13.7,2.727,39.353,0.832,36.608-17.305
					c-2.744-18.136-29.627-57.15-14.537-76.832c15.089-19.682,18.893-37.813,18.893-37.813L1977.371,141.985z"/>
				<path style="fill:#EEA886;" d="M1973.385,226.395c0,0-0.672-0.222-1.789-0.324c-1.297-0.122-3.193-0.085-5.346,0.64
					c-0.537,0.181-1.252,0.545-2.092,1.041c-5.434,3.2-18.289,11.891-20.026,12.099c-2.007,0.239-0.313-29.751-0.313-29.751
					s6.845-12.109,7.706-20.08C1952.387,182.049,1973.385,226.395,1973.385,226.395z"/>
				<path style="fill:#D9D3C8;" d="M1812.561,257.737c0,0-25.119-17.612-54.568-12.126c-29.449,5.486-32.625,19.253-42.73,19.875
					c-10.105,0.624-43.886-2.264-71.604,5.821c-27.717,8.083-51.104,8.95-54.279,6.64c-3.176-2.31,17.323-48.504,17.323-54.856
					l-34.358-8.951c0,0-9.816,40.997-13.666,50.238c-4.116,9.882-12.029,28.486-0.77,44.656c11.26,16.168,42.73,8.882,61.787,12.14
					c19.055,3.258,104.347,1.169,119.241,0.371c16.168-0.866,64.962-3.176,64.962-3.176L1812.561,257.737z"/>
				<path style="fill:#EEA886;" d="M2018.864,166.452c0,0,1.603,24.815-3.907,32.256c-2.203,2.977-3.7,4.598-4.703,5.471
					c-1.413,1.23-2.51,2.782-3.139,4.546c-1.703,4.773-2.75,11.491-4.105,12.925c-1.479,1.564-5.764-2.415-7.316-2.423
					c-1.551-0.009-16.666,13.037-20.279,10.366c-3.614-2.671-25.668-25.046-23.814-40.388c1.854-15.341,8.621-38.246,33.449-38.105
					C2009.878,151.241,2016.965,160.282,2018.864,166.452z"/>
				<path style="fill:#FFC955;" d="M1943.833,284.876c-0.476,1.02-9.605,15.598-19.606,24.057c-4.152,3.513-8.451,5.97-12.346,5.97
					c-1.189,0-2.348,0.018-3.477,0.046c-11.477,0.31-20.295,2.068-35.79,2.841c-16.097,0.803-55.146-1.443-56.3-1.443
					c-1.156,0-12.416,2.021-12.416,2.021c-4.042-4.908,6.641-60.343,8.662-60.631c2.021-0.289,15.014,4.619,27.428,2.598
					c12.416-2.021,17.323-3.176,35.803-24.83c18.478-21.653,36.955-27.14,44.751-25.407c7.796,1.732,23.291,0,23.291,0
					S1944.506,283.433,1943.833,284.876z"/>
				<path style="fill:#222538;" d="M2008.432,184.221c0,0,4.627,11.989,7.078,13.641c0,0,8.931-9.443,3.195-32.748
					c-5.736-23.304-27.367-25.496-41.334-23.129c-17.385,2.945-34.887,61.765-33.984,67.494c0.902,5.73,20.381-30.398,37.447-27.491
					C1997.899,184.895,1998.037,185.847,2008.432,184.221z"/>
				<path style="fill:#A77860;" d="M1971.641,226.114c-1.297-0.121-3.199-0.028-5.352,0.696c-0.537,0.181-1.291,0.447-2.131,0.942
					c-3.993-6.226-7.69-20.989-7.814-21.489C1959.01,211.946,1971.641,226.114,1971.641,226.114z"/>
				<path style="fill:#C29941;" d="M1924.227,308.933c-4.152,3.513-8.451,5.97-12.346,5.97c-1.189,0-2.348,0.018-3.477,0.046
					l5.665-45.953L1924.227,308.933z"/>
				<path style="fill:#EEA886;" d="M2014.062,388.066l-11.081,10.081c-9.563-5.122-33.522-22.366-38.133-26.294
					c-4.834-4.118-37.069-31.081-41.495-37.226c-4.466-6.147-10.12-69.659-9.546-72.567c0.572-2.869,28.026-4.345,31.141,2.376
					c0,0,1.434,36.222,2.172,42.287c0.696,6.064,3.02,11.542,7.178,16.643c5.755,7.06,18.012,23.455,29.878,36.708
					C1987.004,363.232,2010.404,384.915,2014.062,388.066z"/>
				<path style="fill:#FFC955;" d="M1947.201,265.243c0,0,1.732-48.236-13.955-47.64c-19.835,0.755-22.81,25.023-20.115,51.393
					C1913.131,268.997,1942.773,269.286,1947.201,265.243z"/>
				<path style="fill:#EEA886;" d="M2008.724,383.344c0,0,1.478,2.324,3.614,3.045c3.691,1.248,9.152-1.154,11.848,3.682
					c2.694,4.837-10.311,16.92-13.803,17.654c-3.492,0.732-9.092-4.705-13.467-15.431
					C1992.541,381.569,2008.724,383.344,2008.724,383.344z"/>
				<path style="fill:#EEA886;" d="M2023.041,388.565c0,0,6.635,5.048,13.342,11.533c5.885,5.688,11.869,13.155,10.359,14.564
					c-2.063,1.926-6.076-4.485-12.285-9.753c-5.718-4.848-5.394-2.977-5.394-2.977s-0.063-0.538,5.152,5.906
					c5.606,6.927,11.398,15.153,9.671,16.34c-1.085,0.745-1.135,0.943-3.582-1.258c1.138,1.554,0.872,2.066,0.268,2.574
					c-3.129,2.622-12.953-6.347-16.854-9.909c2.979,2.754,4.873,5.08,1.849,5.436c-3.461,0.407-16.784-12.871-22.011-17.19
					C1997.856,399.118,2023.041,388.565,2023.041,388.565z"/>
			</g>
			<path style="fill:#E0E0E0;" d="M1823.848,259.945c0,0-5.296,37.959-2.686,56.633c0,0,2.76,2.051,8.254,0.393
				c0,0,1.373-41.438,4.449-56.147C1833.865,260.824,1832.174,259.544,1823.848,259.945z"/>
		</g>
		<g>
			<rect x="1825.104" style="fill:#E0E0E0;" width="4.098" height="288.653"/>
		</g>
	</g>
	<g>
		
			<rect x="2465.934" y="1495.108" transform="matrix(-1 -1.224647e-16 1.224647e-16 -1 5011.332 2995.7881)" style="fill:#FFFFFF;" width="79.465" height="5.571"/>
		
			<rect x="2465.934" y="1505.606" transform="matrix(-1 -1.224647e-16 1.224647e-16 -1 5011.332 3034.6328)" style="fill:#FFFFFF;" width="79.465" height="23.42"/>
		
			<rect x="2428.605" y="1536.9" transform="matrix(-1 -1.224647e-16 1.224647e-16 -1 4904.0898 3077.2998)" style="fill:#FFFFFF;" width="46.879" height="3.499"/>
		
			<rect x="2428.605" y="1541.931" transform="matrix(-1 -1.224647e-16 1.224647e-16 -1 4904.0898 3093.3398)" style="fill:#FFFFFF;" width="46.879" height="9.479"/>
		
			<rect x="2558.449" y="1465.085" transform="matrix(-1 -1.224647e-16 1.224647e-16 -1 5120.3975 2995.7861)" style="fill:#FFFFFF;" width="3.499" height="65.616"/>
	</g>
	<defs>
		<filter id="Adobe_OpacityMaskFilter" filterUnits="userSpaceOnUse" x="378.483" y="1021.372" width="99.787" height="48.503">
			<feFlood  style="flood-color:white;flood-opacity:1" result="back"/>
			<feBlend  in="SourceGraphic" in2="back" mode="normal"/>
		</filter>
	</defs>
	
		<mask maskUnits="userSpaceOnUse" x="378.483" y="1021.372" width="99.787" height="48.503" id="SVGID_00000158015387430854825180000009602304294476914564_">
		<g style="filter:url(#Adobe_OpacityMaskFilter);">
			<defs>
				
					<filter id="Adobe_OpacityMaskFilter_00000103237076791638505390000015303410093036497798_" filterUnits="userSpaceOnUse" x="378.483" y="1021.372" width="99.787" height="48.503">
					<feFlood  style="flood-color:white;flood-opacity:1" result="back"/>
					<feBlend  in="SourceGraphic" in2="back" mode="normal"/>
				</filter>
			</defs>
			
				<mask maskUnits="userSpaceOnUse" x="378.483" y="1021.372" width="99.787" height="48.503" id="SVGID_00000158015387430854825180000009602304294476914564_">
				<g style="filter:url(#Adobe_OpacityMaskFilter_00000103237076791638505390000015303410093036497798_);">
				</g>
			</mask>
			
				<linearGradient id="SVGID_00000067918365487803696380000017748653390456047802_" gradientUnits="userSpaceOnUse" x1="423.4662" y1="808.3147" x2="431.8707" y2="1214.5201">
				<stop  offset="0" style="stop-color:#FFFFFF"/>
				<stop  offset="1" style="stop-color:#000000"/>
			</linearGradient>
			
				<polygon style="mask:url(#SVGID_00000158015387430854825180000009602304294476914564_);fill:url(#SVGID_00000067918365487803696380000017748653390456047802_);" points="
				401.868,1069.875 478.27,1069.875 454.884,1021.372 378.483,1021.372 			"/>
		</g>
	</mask>
	
		<linearGradient id="SVGID_00000183232862465728758920000016094976321626934171_" gradientUnits="userSpaceOnUse" x1="423.4662" y1="808.3147" x2="431.8707" y2="1214.5201">
		<stop  offset="0" style="stop-color:#40D5E6"/>
		<stop  offset="1" style="stop-color:#5577FF"/>
	</linearGradient>
	<polygon style="fill:url(#SVGID_00000183232862465728758920000016094976321626934171_);" points="401.868,1069.875 
		478.27,1069.875 454.884,1021.372 378.483,1021.372 	"/>
	<defs>
		
			<filter id="Adobe_OpacityMaskFilter_00000047054220913173869720000002677254009162574488_" filterUnits="userSpaceOnUse" x="342.733" y="1021.372" width="41.59" height="48.503">
			<feFlood  style="flood-color:white;flood-opacity:1" result="back"/>
			<feBlend  in="SourceGraphic" in2="back" mode="normal"/>
		</filter>
	</defs>
	
		<mask maskUnits="userSpaceOnUse" x="342.733" y="1021.372" width="41.59" height="48.503" id="SVGID_00000048464471294001286240000018128078873273083320_">
		<g style="filter:url(#Adobe_OpacityMaskFilter_00000047054220913173869720000002677254009162574488_);">
			<defs>
				
					<filter id="Adobe_OpacityMaskFilter_00000165220736642338361720000005216005772440839586_" filterUnits="userSpaceOnUse" x="342.733" y="1021.372" width="41.59" height="48.503">
					<feFlood  style="flood-color:white;flood-opacity:1" result="back"/>
					<feBlend  in="SourceGraphic" in2="back" mode="normal"/>
				</filter>
			</defs>
			
				<mask maskUnits="userSpaceOnUse" x="342.733" y="1021.372" width="41.59" height="48.503" id="SVGID_00000048464471294001286240000018128078873273083320_">
				<g style="filter:url(#Adobe_OpacityMaskFilter_00000165220736642338361720000005216005772440839586_);">
				</g>
			</mask>
			
				<linearGradient id="SVGID_00000104692929984641521120000015813535361851977893_" gradientUnits="userSpaceOnUse" x1="358.6463" y1="809.6559" x2="367.0508" y2="1215.8608">
				<stop  offset="0" style="stop-color:#FFFFFF"/>
				<stop  offset="1" style="stop-color:#000000"/>
			</linearGradient>
			
				<polygon style="mask:url(#SVGID_00000048464471294001286240000018128078873273083320_);fill:url(#SVGID_00000104692929984641521120000015813535361851977893_);" points="
				366.119,1069.875 384.324,1069.875 360.939,1021.372 342.733,1021.372 			"/>
		</g>
	</mask>
	
		<linearGradient id="SVGID_00000051385250948897272850000000652424103618268589_" gradientUnits="userSpaceOnUse" x1="358.6463" y1="809.6559" x2="367.0508" y2="1215.8608">
		<stop  offset="0" style="stop-color:#40D5E6"/>
		<stop  offset="1" style="stop-color:#5577FF"/>
	</linearGradient>
	<polygon style="fill:url(#SVGID_00000051385250948897272850000000652424103618268589_);" points="366.119,1069.875 
		384.324,1069.875 360.939,1021.372 342.733,1021.372 	"/>
	<defs>
		
			<filter id="Adobe_OpacityMaskFilter_00000109716181244232157430000006834729525263822464_" filterUnits="userSpaceOnUse" x="2419.549" y="164.948" width="84.725" height="32.676">
			<feFlood  style="flood-color:white;flood-opacity:1" result="back"/>
			<feBlend  in="SourceGraphic" in2="back" mode="normal"/>
		</filter>
	</defs>
	
		<mask maskUnits="userSpaceOnUse" x="2419.549" y="164.948" width="84.725" height="32.676" id="SVGID_00000057116358325474293960000007491674152550010544_">
		<g style="filter:url(#Adobe_OpacityMaskFilter_00000109716181244232157430000006834729525263822464_);">
			<defs>
				
					<filter id="Adobe_OpacityMaskFilter_00000103951647171578414750000015076328459013925529_" filterUnits="userSpaceOnUse" x="2419.549" y="164.948" width="84.725" height="32.676">
					<feFlood  style="flood-color:white;flood-opacity:1" result="back"/>
					<feBlend  in="SourceGraphic" in2="back" mode="normal"/>
				</filter>
			</defs>
			
				<mask maskUnits="userSpaceOnUse" x="2419.549" y="164.948" width="84.725" height="32.676" id="SVGID_00000057116358325474293960000007491674152550010544_">
				<g style="filter:url(#Adobe_OpacityMaskFilter_00000103951647171578414750000015076328459013925529_);">
				</g>
			</mask>
			
				<linearGradient id="SVGID_00000120542034318843931300000018103396807748869512_" gradientUnits="userSpaceOnUse" x1="2508.5532" y1="6.8097" x2="2411.092" y2="371.3873">
				<stop  offset="0" style="stop-color:#FFFFFF"/>
				<stop  offset="1" style="stop-color:#000000"/>
			</linearGradient>
			
				<polygon style="mask:url(#SVGID_00000057116358325474293960000007491674152550010544_);fill:url(#SVGID_00000120542034318843931300000018103396807748869512_);" points="
				2419.549,197.624 2504.273,197.624 2504.273,164.948 2419.549,164.948 			"/>
		</g>
	</mask>
	
		<linearGradient id="SVGID_00000169530055834178767750000001325522342904942012_" gradientUnits="userSpaceOnUse" x1="2508.5532" y1="6.8097" x2="2411.092" y2="371.3873">
		<stop  offset="0" style="stop-color:#40D5E6"/>
		<stop  offset="1" style="stop-color:#5577FF"/>
	</linearGradient>
	<polygon style="fill:url(#SVGID_00000169530055834178767750000001325522342904942012_);" points="2419.549,197.624 
		2504.273,197.624 2504.273,164.948 2419.549,164.948 	"/>
	<defs>
		
			<filter id="Adobe_OpacityMaskFilter_00000033345863214557171170000005057063487109159590_" filterUnits="userSpaceOnUse" x="2419.549" y="149.699" width="84.725" height="6.148">
			<feFlood  style="flood-color:white;flood-opacity:1" result="back"/>
			<feBlend  in="SourceGraphic" in2="back" mode="normal"/>
		</filter>
	</defs>
	
		<mask maskUnits="userSpaceOnUse" x="2419.549" y="149.699" width="84.725" height="6.148" id="SVGID_00000075843622454980671730000013148922628867140486_">
		<g style="filter:url(#Adobe_OpacityMaskFilter_00000033345863214557171170000005057063487109159590_);">
			<defs>
				
					<filter id="Adobe_OpacityMaskFilter_00000098929907100922341030000001712148719309312899_" filterUnits="userSpaceOnUse" x="2419.549" y="149.699" width="84.725" height="6.148">
					<feFlood  style="flood-color:white;flood-opacity:1" result="back"/>
					<feBlend  in="SourceGraphic" in2="back" mode="normal"/>
				</filter>
			</defs>
			
				<mask maskUnits="userSpaceOnUse" x="2419.549" y="149.699" width="84.725" height="6.148" id="SVGID_00000075843622454980671730000013148922628867140486_">
				<g style="filter:url(#Adobe_OpacityMaskFilter_00000098929907100922341030000001712148719309312899_);">
				</g>
			</mask>
			
				<linearGradient id="SVGID_00000016770513975847044710000005264258356062132671_" gradientUnits="userSpaceOnUse" x1="2494.2668" y1="31.7392" x2="2418.7842" y2="314.0999">
				<stop  offset="0" style="stop-color:#FFFFFF"/>
				<stop  offset="1" style="stop-color:#000000"/>
			</linearGradient>
			
				<polygon style="mask:url(#SVGID_00000075843622454980671730000013148922628867140486_);fill:url(#SVGID_00000016770513975847044710000005264258356062132671_);" points="
				2419.549,155.848 2504.273,155.848 2504.273,149.699 2419.549,149.699 			"/>
		</g>
	</mask>
	
		<linearGradient id="SVGID_00000074413532291309793680000015486937065587093150_" gradientUnits="userSpaceOnUse" x1="2494.2668" y1="31.7392" x2="2418.7842" y2="314.0999">
		<stop  offset="0" style="stop-color:#40D5E6"/>
		<stop  offset="1" style="stop-color:#5577FF"/>
	</linearGradient>
	<polygon style="fill:url(#SVGID_00000074413532291309793680000015486937065587093150_);" points="2419.549,155.848 
		2504.273,155.848 2504.273,149.699 2419.549,149.699 	"/>
	<g>
		<polygon style="fill:#C5C6CF;" points="2404.104,1363.323 2727.069,1342.556 2728.844,1531.365 2438.211,1531.365 		"/>
		<polygon style="fill:#E2E3ED;" points="2418.09,1345.734 2727.069,1342.556 2728.844,1531.365 2438.211,1531.365 		"/>
		<g>
			<path style="fill:#EEA987;" d="M2413.195,1125.916c0,0,7.346,8.082,10.235,4.526c2.89-3.558,6.177-8.61,6.177-8.61
				L2413.195,1125.916z"/>
			<path style="fill:#EEA987;" d="M2398.684,1048.689l9.453,43.943c-2.909-3.578-8.014-9.295-9.669-7.596
				c-2.364,2.426,5.522,14.416,6.874,19.578c1.238,4.73,2.865,12.112,4.906,16.484l3.57,7.191l15.789-6.459
				c0,0-0.734-31.328-1.33-38.381c-0.967-11.467-23.033-36.314-25.173-36.572
				C2399.244,1046.415,2398.684,1048.689,2398.684,1048.689z"/>
		</g>
		<path style="fill:#E6D3CD;" d="M2722.208,1880.385c0,0,4.446,10.717,8.193,14.965c3.747,4.246,18.099,11.838,18.176,24.453
			c0.085,13.678-24.19,9.882-33.685,9.383c-9.494-0.5-10.213-7.809-14.21-15.553c-3.997-7.746-8.026-6.434-8.776-12.68
			c-0.749-6.246,3.061-20.23,3.061-20.23L2722.208,1880.385z"/>
		<g>
			<path style="fill:#E6D3CD;" d="M2498.457,1882.84c0,0-13.225,13.887-26.649,16.796c-13.426,2.909-22.817,6.62-22.918,14.589
				s38.636,13.221,54,5.187c22.93-11.989,25.261-8.376,27.803-14.368c2.542-5.993-3.054-22.02-2.888-23.926
				C2528.009,1878.762,2498.457,1882.84,2498.457,1882.84z"/>
		</g>
		<g>
			<path style="fill:#3C4145;" d="M2533.729,1481.843c0,0-13.891,100.896-19.563,135.005c-6.633,39.881-8.883,72.832-10.732,93.473
				c-2.326,25.963-6.792,162.474-8.421,170.064c-1.628,7.592,36.343,3.807,36.343,3.807s27.543-177.018,34.473-204.666
				c6.452-25.746,24.201-131.885,30.089-124.854s42.858,131.212,47.22,151.519c4.359,20.305,46.407,179.273,46.407,179.273
				s31.428,6.753,39.421,0.39c0,0-27.425-146.046-30.203-184.113c-1.059-14.509-9.654-172.96-34.188-237.149
				C2651.609,1430.666,2533.729,1481.843,2533.729,1481.843z"/>
		</g>
		<path style="fill:#FFC955;" d="M2574.482,1239.86c0,0-36.756,7.601-41.117,11.463c-4.734,4.112-13.084,44.367-13.582,55.582
			c-0.499,11.214,4.431,58.058,9.165,75.501c4.735,17.443,3.654,108.488,1.534,122.813c0,0,73.727,14.42,146.491,4.95
			c0,0-12.577-79.071-9.665-102.974c3.73-30.622,12.709-101.174,12.709-101.174s-9.721-47.504-16.2-52.986s-51.519-14.4-51.519-14.4
			L2574.482,1239.86z"/>
		<path style="fill:#EEA886;" d="M2589.678,1126.208c0,0-44.213-16.36-41.449,42.395c2.764,58.757,13.125,64.728,42.209,56.521
			c29.086-8.206,31.523-45.288,35.311-63.127C2629.535,1144.159,2604.137,1128.773,2589.678,1126.208z"/>
		<path style="fill:#EEA886;" d="M2567.203,1249.164c0,0,22.969,18.628,45.096-10.529c0,0-0.975-23.652,5.793-45.744
			s-46.297,29.455-46.297,29.455c0.557,0.394,0.664,2.602,0.346,5.681c-0.27,2.61-0.842,5.847-1.703,9.13
			C2568.5,1244.542,2568.951,1243.23,2567.203,1249.164z"/>
		<path style="fill:#163342;" d="M2619.602,1191.139c0,0,0.126-15.696-6.4-17.141c-6.527-1.445-9.889,7.629-9.889,7.629
			l-5.256-0.283c0,0,4.697-15.904-1.525-19.552c-6.223-3.646-43.447-0.442-48.119-5.798s2.104-37.159,12.26-40.281
			c10.156-3.121,37.898-9.452,55.516,6.236c0,0,15.782,0.104,15.748,19.016C2631.912,1153.46,2624.913,1182.627,2619.602,1191.139z"
			/>
		<path style="fill:#A77860;" d="M2570.438,1237.156c34.271-5.762,39.393-25.251,39.469-25.555
			c-13.322,17.18-37.766,16.425-37.766,16.425C2571.871,1230.637,2571.299,1233.873,2570.438,1237.156z"/>
		<path style="fill:#EEA886;" d="M2605.813,1167.334c1.953-5.178,12.98-4.524,11.852,3.684c-1.13,8.208-10.243,20.85-13.902,18.479
			C2600.102,1187.126,2603.119,1174.474,2605.813,1167.334z"/>
		<path style="fill:#EEA886;" d="M2624.223,1241.15c0,0-20.729,41.898-51.244,38.509c-30.514-3.392-12.826-32.628-9.91-37.292
			C2563.068,1242.367,2581.38,1230.615,2624.223,1241.15z"/>
		<g>
			<path style="fill:#FFC955;" d="M2431.666,1207.325c-8.617-16.772-27.562-81.551-27.562-81.551l26.815-5.608
				c0,0,14.268,32.598,21.057,55.156c3.309,10.992,7.746,21.787,8.734,23.522s46.674,36.333,51.646,38.876
				c4.982,2.543,24.106,9.169,33.254,18.46c9.146,9.28,4.693,22.004,4.693,22.004c-19.396,24.948-55.221-7.489-55.221-7.489
				S2443.743,1230.832,2431.666,1207.325z"/>
		</g>
		<path style="fill:#FFC955;" d="M2476.389,1255.288c0,0,42.325,46.221,43.783,63.349c1.041,12.225,8.666-36.76,8.666-36.76
			L2476.389,1255.288z"/>
		
			<rect x="2438.211" y="1331.748" transform="matrix(-1 -1.224647e-16 1.224647e-16 -1 5193.2344 2863.1133)" style="fill:#FF8557;" width="316.813" height="199.617"/>
		<path style="fill:#EFAA88;" d="M2705.771,1541.398c0,0,1.502-3.664,1.377-5.587c0,0-0.495-3.48-0.697-5.976
			c-0.062-0.792-0.099-1.484-0.074-1.934c0.096-1.876,0.869-5.967-0.164-10.538c-1.03-4.566-6.307-20.335-6.307-20.335
			l-14.234,2.116l-12.37-1.677c0,0-9.22,26.91-8.751,31.278c0.049,0.428,0.111,0.847,0.201,1.235c0.756,3.661,2.855,6.065,3.47,7.94
			c0.23,0.688,2.978,7.367,5.039,8.008c2.859,0.892,5.204,0.349,6.791-0.952c0,0,5.677,1.499,9.272-0.143
			c0,0,5.191,1.551,9.082-1.766C2698.406,1543.07,2703.852,1544.053,2705.771,1541.398z"/>
		<path style="fill:#FFC955;" d="M2643.58,1252.021c-4.819,1.866-9.927,13.527-6.129,36.398
			c4.074,24.536,12.175,35.018,15.432,40.753c3.256,5.734,23.386,43.964,23.311,49.619c-0.196,14.727,0.148,53.604-0.317,56.579
			c-0.796,5.083-4.077,63.658-4.077,63.658l31.095,7.527c0,0,6.128-66.054,8.9-86.02c1.112-8.01,3.515-29.984,0.743-51.882
			c-2.672-21.124-17.977-67.815-20.027-71.531C2690.458,1293.41,2675.448,1239.682,2643.58,1252.021z"/>
	</g>
	
		<linearGradient id="SVGID_00000017493967580676686110000006248357972445994683_" gradientUnits="userSpaceOnUse" x1="877.6416" y1="1335.9175" x2="877.6416" y2="3823.3828">
		<stop  offset="0" style="stop-color:#44607D"/>
		<stop  offset="1" style="stop-color:#F5F5F5"/>
	</linearGradient>
	<path style="fill:url(#SVGID_00000017493967580676686110000006248357972445994683_);" d="M1122.292,1666.299H632.991
		c-30.211,0-54.702-24.49-54.702-54.701v-598.992c0-30.211,24.491-54.702,54.702-54.702h489.302
		c30.211,0,54.702,24.491,54.702,54.702v598.992C1176.995,1641.809,1152.504,1666.299,1122.292,1666.299z"/>
	<g style="opacity:0.76;">
		<g>
			<g>
				<path style="fill:#FFFFFF;" d="M792.518,1067.646c-13.061-36.521-47.965-58.953-84.752-57.848
					c-8.906,0.268-17.921,1.916-26.769,5.078c-26.795,9.586-46.01,30.928-53.904,56.143c-5.47,17.477-5.505,36.811,1.138,55.382
					c0.659,1.847,1.378,3.665,2.147,5.438c3.494,8.045,8.079,15.32,13.523,21.717c22.829,26.839,60.71,38.182,95.852,25.615
					C785.121,1162.943,808.743,1113.014,792.518,1067.646z M732.4,1158.611c-26.348,9.424-54.747,0.918-71.864-19.201
					c-4.079-4.795-7.52-10.251-10.136-16.284c-0.578-1.331-1.117-2.692-1.613-4.079c-4.979-13.923-4.952-28.418-0.851-41.518
					c5.918-18.908,20.322-34.91,40.412-42.094c6.631-2.371,13.392-3.605,20.069-3.81c27.578-0.832,53.751,15.987,63.544,43.37
					C784.127,1109.012,766.414,1146.445,732.4,1158.611z"/>
			</g>
		</g>
	</g>
	
		<linearGradient id="SVGID_00000034768880088533844700000003374038103115593097_" gradientUnits="userSpaceOnUse" x1="877.6416" y1="798.6088" x2="877.6416" y2="2542.7734">
		<stop  offset="0" style="stop-color:#626E7A"/>
		<stop  offset="1" style="stop-color:#F5F5F5"/>
	</linearGradient>
	<path style="fill:url(#SVGID_00000034768880088533844700000003374038103115593097_);" d="M1153.704,906.706H601.58
		c-12.863,0-23.291-10.428-23.291-23.29v-5.892c0-12.864,10.428-23.292,23.291-23.292h552.124c12.863,0,23.291,10.428,23.291,23.292
		v5.892C1176.995,896.279,1166.567,906.706,1153.704,906.706z"/>
	<g>
		<g>
			<g>
				<g>
					<g>
						<polygon style="fill:#FFFFFF;" points="960.247,1328.925 1051.698,1334.084 1124.595,1233.531 1119.667,1229.959 
							1048.721,1327.819 957.627,1322.681 853.179,1441.79 743.831,1418.096 635.788,1520.04 639.965,1524.467 745.676,1424.724 
							855.393,1448.498 						"/>
					</g>
				</g>
			</g>
		</g>
		<g>
			<g>
				<g>
					<path style="fill:#FFFFFF;" d="M870.15,1441.71c1.897,8.761-3.667,17.401-12.429,19.299s-17.402-3.668-19.299-12.429
						c-1.897-8.762,3.668-17.402,12.429-19.301C859.613,1427.383,868.253,1432.948,870.15,1441.71z"/>
				</g>
			</g>
		</g>
		<g>
			<g>
				<g>
					<path style="fill:#FFFFFF;" d="M974.77,1323.394c1.897,8.762-3.668,17.401-12.43,19.299
						c-8.761,1.897-17.402-3.668-19.299-12.429c-1.898-8.762,3.667-17.402,12.429-19.3
						C964.232,1309.066,972.873,1314.631,974.77,1323.394z"/>
				</g>
			</g>
		</g>
		<g>
			<g>
				<g>
					<path style="fill:#FFFFFF;" d="M1065.197,1327.014c1.897,8.762-3.668,17.402-12.43,19.299
						c-8.761,1.897-17.402-3.668-19.299-12.43c-1.897-8.761,3.667-17.402,12.429-19.299
						C1054.659,1312.687,1063.299,1318.252,1065.197,1327.014z"/>
				</g>
			</g>
		</g>
		<g>
			<g>
				<g>
					<path style="fill:#FFFFFF;" d="M760.531,1419.477c1.897,8.762-3.668,17.402-12.429,19.3
						c-8.762,1.896-17.402-3.668-19.299-12.431c-1.897-8.761,3.668-17.402,12.429-19.298
						C749.993,1405.15,758.633,1410.715,760.531,1419.477z"/>
				</g>
			</g>
		</g>
	</g>
	<g>
		<rect x="728.431" y="1483.249" style="fill:#FFFFFF;" width="66.451" height="12.796"/>
	</g>
	<g>
		<rect x="774.646" y="1351.934" style="fill:#FFFFFF;" width="66.451" height="12.797"/>
	</g>
	<g>
		<rect x="912.49" y="1443.442" style="fill:#FFFFFF;" width="66.451" height="12.796"/>
	</g>
	<g>
		<rect x="972.096" y="1263.732" style="fill:#FFFFFF;" width="66.451" height="12.797"/>
	</g>
	<g>
		<rect x="1068.61" y="1370.814" style="fill:#FFFFFF;" width="66.451" height="12.797"/>
	</g>
	<g>
		<g>
			
				<linearGradient id="SVGID_00000063623335639948990700000002367070222102998443_" gradientUnits="userSpaceOnUse" x1="850.6548" y1="1129.5498" x2="870.3491" y2="1129.5498">
				<stop  offset="0" style="stop-color:#D5E4FF"/>
				<stop  offset="1" style="stop-color:#EDFFFE"/>
			</linearGradient>
			
				<rect x="850.655" y="1074.811" style="fill:url(#SVGID_00000063623335639948990700000002367070222102998443_);" width="19.694" height="109.479"/>
		</g>
		<g>
			
				<linearGradient id="SVGID_00000000188499089942703110000014524549936594393789_" gradientUnits="userSpaceOnUse" x1="885.2329" y1="1114.9561" x2="904.9277" y2="1114.9561">
				<stop  offset="0" style="stop-color:#D5E4FF"/>
				<stop  offset="1" style="stop-color:#EDFFFE"/>
			</linearGradient>
			
				<rect x="885.233" y="1045.623" style="fill:url(#SVGID_00000000188499089942703110000014524549936594393789_);" width="19.695" height="138.666"/>
		</g>
		<g>
			
				<linearGradient id="SVGID_00000099651237053859165030000008663543888202641798_" gradientUnits="userSpaceOnUse" x1="921.5186" y1="1122.5908" x2="941.2139" y2="1122.5908">
				<stop  offset="0" style="stop-color:#D5E4FF"/>
				<stop  offset="1" style="stop-color:#EDFFFE"/>
			</linearGradient>
			
				<rect x="921.519" y="1060.893" style="fill:url(#SVGID_00000099651237053859165030000008663543888202641798_);" width="19.695" height="123.396"/>
		</g>
		<g>
			
				<linearGradient id="SVGID_00000183935810336389937950000012864697982986112430_" gradientUnits="userSpaceOnUse" x1="958.8013" y1="1140.3164" x2="978.4961" y2="1140.3164">
				<stop  offset="0" style="stop-color:#D5E4FF"/>
				<stop  offset="1" style="stop-color:#EDFFFE"/>
			</linearGradient>
			
				<rect x="958.801" y="1096.344" style="fill:url(#SVGID_00000183935810336389937950000012864697982986112430_);" width="19.695" height="87.945"/>
		</g>
		<g>
			<rect x="850.655" y="1114.855" style="fill:#007BDE;" width="19.694" height="69.434"/>
		</g>
		<g>
			<rect x="885.233" y="1096.344" style="fill:#007BDE;" width="19.695" height="87.945"/>
		</g>
		<g>
			<rect x="921.519" y="1106.027" style="fill:#007BDE;" width="19.695" height="78.262"/>
		</g>
		<g>
			<rect x="958.801" y="1129.551" style="fill:#007BDE;" width="19.695" height="54.738"/>
		</g>
	</g>
	<g>
		<g>
			
				<linearGradient id="SVGID_00000063607417212951471540000006709634120966961805_" gradientUnits="userSpaceOnUse" x1="996.7539" y1="1147.5645" x2="1016.4487" y2="1147.5645">
				<stop  offset="0" style="stop-color:#D5E4FF"/>
				<stop  offset="1" style="stop-color:#EDFFFE"/>
			</linearGradient>
			
				<rect x="996.754" y="1110.84" style="fill:url(#SVGID_00000063607417212951471540000006709634120966961805_);" width="19.695" height="73.449"/>
		</g>
		<g>
			
				<linearGradient id="SVGID_00000146457893536488468220000007733631033582264220_" gradientUnits="userSpaceOnUse" x1="1031.3325" y1="1120.5527" x2="1051.0273" y2="1120.5527">
				<stop  offset="0" style="stop-color:#D5E4FF"/>
				<stop  offset="1" style="stop-color:#EDFFFE"/>
			</linearGradient>
			
				<rect x="1031.333" y="1056.816" style="fill:url(#SVGID_00000146457893536488468220000007733631033582264220_);" width="19.695" height="127.473"/>
		</g>
		<g>
			
				<linearGradient id="SVGID_00000029745376319477899650000015494055871195256993_" gradientUnits="userSpaceOnUse" x1="1067.6182" y1="1132.2441" x2="1087.3125" y2="1132.2441">
				<stop  offset="0" style="stop-color:#D5E4FF"/>
				<stop  offset="1" style="stop-color:#EDFFFE"/>
			</linearGradient>
			
				<rect x="1067.618" y="1080.199" style="fill:url(#SVGID_00000029745376319477899650000015494055871195256993_);" width="19.694" height="104.09"/>
		</g>
		<g>
			
				<linearGradient id="SVGID_00000154398302648548932440000014205998910346875543_" gradientUnits="userSpaceOnUse" x1="1104.9004" y1="1103.8857" x2="1124.5952" y2="1103.8857">
				<stop  offset="0" style="stop-color:#D5E4FF"/>
				<stop  offset="1" style="stop-color:#EDFFFE"/>
			</linearGradient>
			
				<rect x="1104.9" y="1023.482" style="fill:url(#SVGID_00000154398302648548932440000014205998910346875543_);" width="19.695" height="160.807"/>
		</g>
		<g>
			<rect x="996.754" y="1145.158" style="fill:#007BDE;" width="19.695" height="39.131"/>
		</g>
		<g>
			<rect x="1031.333" y="1125.969" style="fill:#007BDE;" width="19.695" height="58.32"/>
		</g>
		<g>
			<rect x="1067.618" y="1132.244" style="fill:#007BDE;" width="19.694" height="52.045"/>
		</g>
		<g>
			<rect x="1104.9" y="1064.776" style="fill:#007BDE;" width="19.695" height="119.513"/>
		</g>
	</g>
	<g>
		<g>
			<g>
				<g>
					<path style="fill:#EEA886;" d="M514.398,1475.504c0,0,3.058,5.012,3.442,9.103c0.303,3.237,3.026,8.077,4.205,10.75
						c1.18,2.675,4.973,14.774,5.109,17.921c0.056,1.287-2.816,9.402-2.41,11.997c0.407,2.595,1.893,7.737-0.438,8.078
						c-2.331,0.343-4.973-3.874-4.973-3.874s0.221,2.391-1.751,3.303c-3.834,1.774-5.864,0.212-5.864,0.212s-1.414,2.628-3.189,2.98
						c-3.915,0.78-5.832-0.788-5.832-0.788s-1.725,1.475-4.43,1.423c-3.459-0.068-4.914-3.056-4.914-3.056s-4.382,0.886-5.653-1.159
						c-1.271-2.044-1.051-4.225-1.577-6.077c-0.526-1.853-0.128-18.582,5.555-30.627c5.684-12.046-1.447-23.793-1.447-23.793
						L514.398,1475.504z"/>
				</g>
			</g>
		</g>
		<g>
			<g>
				<path style="fill:#DB9C7C;" d="M519.949,1527.91c0,0,0.39-15.01-3.561-18.205c-3.95-3.196-4.399,2.222-4.399,2.222
					s0.537-5.354-3.78-6.077c-4.317-0.723-4.499,5.637-4.499,5.637s-0.707-4.127-5.242-3.28c-4.535,0.85-3.455,6.117-3.455,6.117
					s-4.331-5.166-7.141-0.204c-4.744,8.379-0.172,18.274-0.172,18.274s1.337,2.27,5.653,1.159c0,0,2.887,5.814,9.343,1.633
					c0,0,6.612,3.64,9.021-2.192C511.717,1532.993,519.005,1536.455,519.949,1527.91z"/>
			</g>
		</g>
		<path style="fill:#4C5385;" d="M565.315,1259.279c0,0-25.695,85.641-34.377,117.231c-2.723,9.908-9.313,104.522-10.476,108.332
			s-33.756,9.028-33.756,9.028s3.949-118.362,4.317-124.818c0.369-6.455,35.962-138.633,46.314-143.35
			c7.755-3.533,11.849-0.61,21.621,6.645C572.673,1242.531,565.315,1259.279,565.315,1259.279z"/>
		<path style="fill:#EFAA88;" d="M883.852,1122.949c0,0-0.562,3.327-1.516,4.662c0,0-1.925,2.295-3.194,4.01
			c-0.4,0.545-0.738,1.029-0.923,1.365c-0.774,1.401-2.054,4.709-4.859,7.552c-2.799,2.841-13.71,11.876-13.71,11.876l-9.348-7.934
			l-9.705-4.352c0,0,5.434-23.619,7.738-26.568c0.227-0.287,0.461-0.563,0.701-0.805c2.193-2.309,4.795-3.104,6.083-4.185
			c0.476-0.394,5.468-3.991,7.247-3.526c2.471,0.641,3.923,2.088,4.486,3.742c0,0,4.782,1.47,6.644,4.275
			c0,0,4.455,1.214,5.778,5.364C879.275,1118.427,883.656,1120.164,883.852,1122.949z"/>
		<g>
			<g>
				<path style="fill:#EAD8CF;" d="M702.595,1282.221l6.638-2.455c0,0-8.279-19.436-11.893-18.963
					c-4.163,0.545-9.358,1.918-9.358,1.918L702.595,1282.221z"/>
			</g>
		</g>
		<g>
			<g>
				<path style="fill:#DA9B5B;" d="M704.111,1285.573c-0.849-0.632-14.112-26.077-14.112-26.077l-28.338,3.852l15.313,30.139
					L704.111,1285.573z"/>
			</g>
		</g>
		<g>
			<g>
				<path style="fill:#424773;" d="M544.466,1844.021c0,0-2.342,16.259-2.635,18.7c-0.293,2.442-26.057-1.438-26.057-1.438
					l-2.086-19.355C513.689,1841.928,541.246,1841.728,544.466,1844.021z"/>
			</g>
		</g>
		<g>
			<g>
				<path style="fill:#292C47;" d="M542.106,1860.654c0,0,8.163,9.797,16.058,14.066c7.895,4.27,20.302,5.961,24.97,10.382
					c3.37,3.19,12.274,16.927-20.516,16.649c-32.79-0.277-48.6,1.939-52.112-3.326c-3.513-5.268,5.083-38.873,5.083-38.873
					S523.354,1862.348,542.106,1860.654z"/>
			</g>
		</g>
		<g>
			<g>
				<path style="fill:#424773;" d="M729.065,1844.021c0,0-2.342,16.259-2.635,18.7c-0.293,2.442-26.056-1.438-26.056-1.438
					l-2.086-19.355C698.288,1841.928,725.845,1841.728,729.065,1844.021z"/>
			</g>
		</g>
		<g>
			<g>
				<path style="fill:#292C47;" d="M726.704,1860.654c0,0,8.163,9.797,16.058,14.066s36.948,7.777,41.617,12.197
					c3.37,3.191,8.975,16.035-37.163,14.834c-32.779-0.854-48.599,1.939-52.113-3.326c-3.513-5.268,5.084-38.873,5.084-38.873
					S707.503,1862.537,726.704,1860.654z"/>
			</g>
		</g>
		<g>
			<g>
				<path style="fill:#292C47;" d="M565.8,1426.264c0,0-24.208,38.46-22.402,73.228c1.806,34.766-8.778,72.724-12.414,109.042
					c-4.054,40.489-20.645,136.342-21.247,158c-0.602,21.656,2.575,90.814,2.575,90.814l33.211,0.76
					c0,0,27.894-167.572,35.118-184.671c7.224-17.098,43.048-138.996,44.252-152.675
					C626.098,1507.084,565.8,1426.264,565.8,1426.264z"/>
			</g>
		</g>
		<g>
			<g>
				<path style="fill:#292C47;" d="M693.236,1431.474c0,0,18.243,95.29,20.651,116.568c2.408,21.279,4.013,102.976,5.217,116.274
					c1.204,13.3,11.247,173.633,14.449,193.791h-42.459c0,0-32.592-116.847-32.592-172.131c0-55.285-25.18-120.189-41.434-156.666
					c-16.254-36.477-53.459-37.34-63.451-105.016C553.618,1424.295,679.708,1410.009,693.236,1431.474z"/>
			</g>
		</g>
		<g>
			<g>
				<path style="fill:#EEA886;" d="M606.196,1102.9c0,0,32.493-12.137,47.475,12.598c14.982,24.734,13.538,74.252-2.84,80.341
					c-16.378,6.089-40.982,2.905-49.367-12.571c-8.385-15.478-15.956-37.854-15.592-52.805
					C586.236,1115.51,597.665,1107.217,606.196,1102.9z"/>
			</g>
		</g>
		<g>
			<g>
				<path style="fill:#EEA886;" d="M647.304,1196.971c0,0-1.352,8.773,0.883,13.095c2.235,4.321-42.096,4.435-42.096,4.435
					s-3.6-23.506-10.422-43.367C588.847,1151.271,647.304,1196.971,647.304,1196.971z"/>
			</g>
		</g>
		<g>
			<g>
				<path style="fill:#353A3D;" d="M595.669,1171.133c0,0,3.059,5.047,15.549,3.09c12.49-1.959,27.726-18.576,32.941-20.4
					c5.215-1.824,5.264-4.888,5.264-4.888l3.265,4.77l5.539,0.351c0,0-5.052-14.865,2.569-20.926
					c7.621-6.063-7.91-48.111-47.964-34.112c0,0-30.764,8.479-29.645,25.977C584.305,1142.488,588.786,1162.42,595.669,1171.133z"/>
			</g>
		</g>
		<g>
			<g>
				<path style="fill:#E2D2CA;" d="M650.819,1209.545c0,0-0.141-8.257-3.883-9.048c-3.743-0.792-41.312-4.404-45.906-2.599v9.619
					C601.03,1207.518,609.881,1212.965,650.819,1209.545z"/>
			</g>
		</g>
		<g>
			<g>
				<path style="fill:#EEA886;" d="M648.596,1142.572c-0.701-2.936-8.163-11.321-11.021-2.342
					c-2.858,8.979,4.317,21.057,8.319,20.023C649.897,1159.22,650.372,1150.012,648.596,1142.572z"/>
			</g>
		</g>
		<g>
			<g>
				<path style="fill:#323657;" d="M799.92,1307.104c-0.017-0.008-0.037-0.01-0.062-0.004
					C800.117,1307.211,800.153,1307.222,799.92,1307.104z"/>
			</g>
		</g>
		<g>
			<g>
				<path style="fill:#4C5385;" d="M712.958,1222.048c-25.759-3.396-62.14-12.503-62.14-12.503l-49.789-2.029
					c0,0-45.695,10.06-63.691,18.188c-1.707,0.771-1.715,40.766-6.399,51.253l14.92,31.478c0,0,8.619,62.352,10.407,90.082
					c0.822,12.731-17.775,119.373-17.775,119.373s19.926,5.867,53.907,9.613c33.981,3.745,118.884-1.355,119.419-5.367
					c0.537-4.016-16.442-149.447-17.194-156.979c-1.154-11.559,3.985-72.983,3.985-72.983c7.845-6.087,76.732-38.062,95.524-54.726
					c5.03-4.459,26.257-25.131,32.292-32.267c21.367-25.269,38.885-46.944,41.017-51.616c2.421-2.658-23.218-16.596-25.544-17.371
					c-2.035-0.68-30.919,36.748-42.038,48.791c-4.957,5.368-25.563,20.358-25.563,20.358S729.071,1222.974,712.958,1222.048z"/>
			</g>
		</g>
		<g>
			<g>
				<path style="fill:#353A3D;" d="M596.942,1105.818c0,0-41.431,3.242-1.273,65.314L596.942,1105.818z"/>
			</g>
		</g>
	</g>
	<g>
		<g>
			<path style="fill:#353A3D;" d="M1124.445,1853.04c0,0-8.724,13.053-20.961,15.872c-12.237,2.82-24.292,7.305-24.383,15.027
				s35.38,12.329,49.385,4.543c20.9-11.619,23.025-8.117,25.342-13.925c2.317-5.808-2.784-21.339-2.633-23.187
				C1151.38,1849.088,1124.445,1853.04,1124.445,1853.04z"/>
		</g>
		<g>
			<path style="fill:#81807E;" d="M1125.8,1846.602c0,0-1.592,6.305-1.355,6.438s27.576,3.391,26.75-1.669
				c-0.67-4.103-1.627-8.563-1.627-8.563L1125.8,1846.602z"/>
		</g>
		<g>
			<path style="fill:#353A3D;" d="M1216.454,1852.174c0,0-6.223,12.485-16.855,16.738c-11.365,4.546-20.479,9.771-20.272,17.295
				c0.207,7.525,27.783,15.15,47.845,0.709c12.675-9.124,16.692-9.168,18.726-14.914s-3.531-20.676-3.455-22.481
				C1242.536,1847.291,1216.454,1852.174,1216.454,1852.174z"/>
		</g>
		<g>
			<path style="fill:#81807E;" d="M1216.144,1845.69c0,0,0.075,6.363,0.311,6.483c0.235,0.121,26.66,2.299,25.988-2.653
				c-0.534-3.933-2.564-8.683-2.564-8.683L1216.144,1845.69z"/>
		</g>
		<g>
			<path style="fill:#2D3133;" d="M1119.259,1464.292c0,0-24.549,108.285-30.157,141.269c-4.772,28.074-8.576,57.307-6.29,77.574
				c2.831,25.09,38.35,155.127,36.865,162.483c-1.485,7.356,37.167,1.178,37.167,1.178s-27.014-145.052-21.618-172.048
				c3.997-19.995,39.014-152.82,44.38-146.009c5.367,6.813,12.021,125.356,15.995,145.035
				c3.975,19.678,16.176,175.163,16.176,175.163s27.28,4.025,34.566-2.142c0,0,3.317-132.765,0.785-169.657
				c-0.965-14.061,16.473-168.581-5.888-230.788C1229.424,1413.476,1119.259,1464.292,1119.259,1464.292z"/>
		</g>
		<g>
			<path style="fill:#DECBC4;" d="M1012.403,1365.854c17.496-2.458,72.544,21.928,77.545,20.087
				c3.44-1.263,11.513-27.566,17.279-47.476c3.412-11.775,6.014-21.314,6.375-22.102l0.022-0.043
				c-0.055,0.527-0.948,9.531,0.187,21.358c0.072,0.765,0.158,1.544,0.247,2.331c0.026,0.204,0.051,0.408,0.077,0.616
				c0.515,4.235,1.301,8.757,2.479,13.324c1.748,6.745,2.572,15.625,2.883,24.995v0.037c0.004,0.073,0.004,0.141,0.013,0.217
				c0.004,0.217,0.018,0.43,0.018,0.646c0,0.086,0.008,0.174,0.008,0.265c0.489,17.049-0.689,35.43-1.178,45.212
				c-0.77,15.153,4.215,21.975,4.359,22.17c0.004,0.005,0.004,0.005,0.004,0.005l5.274-0.74l3.811-0.536l0.046-0.008l5.091-0.715
				l19.963-2.808l7.23-1.016l1.709-0.243l12.648-1.777l35.66-5.019l3.913-0.548l1.612-0.227l13.448-1.896l6.078-0.851l0.021-0.004
				c0,0,5.163-36.613,5.559-56.401c0.357-18.178,10.088-55.083,11.674-60.986c0.008-0.043,0.021-0.081,0.034-0.123
				c0.013-0.056,0.026-0.111,0.042-0.163c0.03-0.101,0.051-0.187,0.072-0.259c0.009-0.043,0.022-0.085,0.035-0.127
				c0-0.014,0.004-0.025,0.009-0.035c0.004-0.012,0.008-0.024,0.008-0.038c0.013-0.042,0.013-0.063,0.013-0.063
				s29.107,30.578,34.754,43.92c1.722,4.049,6.988,15.06,13.69,28.465c4.584-8.749,7.455-14.83,7.455-16.354
				c0-0.187-0.004-0.386-0.009-0.595c-0.429-13.193-14.255-66.685-25.164-101.632c-8.471-17.028-15.778-30.799-18.121-32.479
				c-3.551-2.551-18.492-8.947-31.531-14.122c-0.43-0.17-0.854-0.336-1.271-0.502c-1.216-0.48-2.416-0.949-3.581-1.404
				c-0.583-0.225-1.157-0.446-1.722-0.663c-0.311-0.119-0.617-0.234-0.923-0.349c-0.25-0.098-0.497-0.192-0.744-0.285h-0.004
				c-6.52-2.479-11.475-4.211-12.495-4.271c-0.17-0.013-0.443-0.008-0.813,0.005c-0.429,0.009-0.986,0.033-1.65,0.077
				c-8.059,0.472-32.113,2.726-39.854,3.461c-1.408,0.132-2.28,0.218-2.412,0.229c-0.013,0-0.017,0-0.017,0s-3.687,1.68-9.237,4.219
				l-0.004,0.005l-0.515,0.234c-3.356,1.538-7.239,3.589-11.342,5.835c-8.047,4.41-16.935,9.563-24.306,13.072
				c-7.229,3.438-17.126,8.23-17.968,8.902l-36.621,105.604l-63.531-11.611L1012.403,1365.854z"/>
		</g>
		<g>
			<path style="fill:#495055;" d="M1122.718,1447.491c0,0-2.683,3.21-3.459,16.801c0,0,110.32-12.869,121.982-17.941
				c0,0,0.456-14.978-2.018-15.239C1236.506,1430.827,1122.718,1447.491,1122.718,1447.491z"/>
		</g>
		<g>
			<path style="fill:#EEA886;" d="M1216.797,1208.9c-0.343,17.314-33.866,26.785-33.866,26.785s-14.022-17.579-10.673-19.263
				c1.315-0.661,1.849-3.285,2.013-6.228c0.152-2.801-0.027-5.89-0.191-7.852c-0.1-1.225-0.194-2.013-0.194-2.013
				s4.789-5.054,10.883-11.075c10.648-10.528,25.287-24.015,25.309-18.649c0.001,0.284-0.038,0.624-0.123,1.017
				C1207.382,1183.697,1216.797,1208.9,1216.797,1208.9z"/>
		</g>
		<g>
			<path style="fill:#353A3D;" d="M1214.017,1433.768c0,0,2.408,15.184,2.617,19.143l5.103-1.019c0,0-1.406-16.065-2.232-18.759
				L1214.017,1433.768z"/>
		</g>
		<g>
			<path style="fill:#353A3D;" d="M1131.922,1445.719c0,0-1.934,13.803-1.98,19.016l5.399-0.701c0,0,1.106-17.236,1.724-19.036
				L1131.922,1445.719z"/>
		</g>
		<g>
			<path style="fill:#A77860;" d="M1203.886,1183.533c0,0,0,0-0.002,0.002c-0.066,0.102-1.488,2.229-3.915,5.281
				c-5.146,6.474-14.821,17.106-25.697,21.379c0.152-2.801-0.027-5.89-0.191-7.852c-1.113-0.029-2.226-0.158-3.329-0.401
				c2.982-5.21,7.288-10.674,7.288-10.674l6.73-2.013L1203.886,1183.533z"/>
		</g>
		<g>
			<path style="fill:#EEA886;" d="M1210.321,1170.84c-2.9,6.309-5.654,10.881-6.435,12.693c0,0,0,0-0.002,0.002
				c-0.508,1.18-1.893,3.104-3.915,5.281c-5.524,5.952-15.793,13.803-25.888,13.527c-1.113-0.029-2.226-0.158-3.329-0.401
				c-4.076-0.892-8.89-2.785-11.538-7.97c-20.914-40.947-5.772-74.431-5.772-74.431s57.185-16.171,66.132,1.044
				C1225.852,1132.66,1217.135,1156.018,1210.321,1170.84z"/>
		</g>
		<g>
			<path style="fill:#163342;" d="M1153.441,1119.542c0,0-5.311-0.294-6.624-10.362c-1.297-9.949,1.326-12.705,1.326-12.705
				s23.607-9.882,32.085-11.168c8.479-1.285,29.325-2.52,34.211,3.068c0,0,11.872-2.76,15.106,16.95
				c5.132,31.268-17.486,61.628-17.486,61.628s0.193-20.426-4.311-23.133c-4.505-2.707-8.393,3.73-8.393,3.73l-9.215,1.65
				c0,0,13.996-30.221-2.792-31.341C1170.56,1116.741,1163.052,1121.295,1153.441,1119.542z"/>
		</g>
		<g>
			<path style="fill:#EEA886;" d="M1199.609,1139.406c0.876-8.998,17.151-12.434,16.061-3.002
				c-1.09,9.433-9.104,18.494-12.807,18.176C1199.161,1154.262,1198.941,1146.266,1199.609,1139.406z"/>
		</g>
		<g>
			<path style="fill:#3C4145;" d="M1312.57,1368.945c0-0.187-0.004-0.386-0.009-0.595c-0.314-13.158-6.789-65.849-17.697-100.794
				c-5.295-16.97-6.517-28.822-8.567-30.291c-3.551-2.547-35.147-11.893-48.552-17.148c-0.43-0.17-0.854-0.336-1.271-0.502
				c-1.216-0.48-2.416-0.949-3.581-1.404c-0.583-0.225-1.157-0.446-1.722-0.663c-0.311-0.119-0.617-0.234-0.923-0.349
				c-0.25-0.098-0.497-0.192-0.744-0.285c-0.021,0.021-0.042,0.047-0.072,0.072c-1.195,1.336-7.396,8.383-14.8,18.912
				c-13.843,19.691-31.875,51.566-29.115,81.005c0.885,9.449,1.982,23.017,3.819,38.241c0.157,1.303,0.323,2.612,0.489,3.938
				c0.447,3.505,0.936,7.082,1.467,10.704c0.319,2.174,0.655,4.364,1.008,6.566c3.666,22.822,15.157,38.383,25.36,56.994
				c0.089,0.156,0.174,0.314,0.264,0.471c0.047,0.091,0.098,0.18,0.145,0.27c0.217,0.395,0.434,0.795,0.651,1.193
				c0.349,0.652,0.697,1.312,1.046,1.971c0.2,0.377,0.396,0.757,0.591,1.14c1.952,3.746,3.862,7.578,5.716,11.427
				c1.199,2.484,2.377,4.977,3.525,7.459c0.119,0.26,0.238,0.516,0.357,0.775c0,0,1.879,4.363,4.287,9.968
				c0.885,2.06,1.841,4.282,2.803,6.52c0.659,1.536,1.323,3.079,1.96,4.577c0.565,1.31,1.11,2.585,1.629,3.793
				c1.157,2.701,2.169,5.065,2.871,6.719c0.523,1.234,0.876,2.072,0.991,2.357c3.509,8.781,6.044,15.561,7.213,18.729
				c0.467,1.276,0.714,1.966,0.714,1.966l35.29-19.479c6.698-3.356,3.198-21.417,0.681-28.47c-2.092-5.863-5.04-12.154-8.361-18.652
				c-1.361-2.657-2.781-5.35-4.235-8.063c11.044-19.296,22.229-39.194,29.319-52.718
				C1309.699,1376.55,1312.57,1370.469,1312.57,1368.945z M1256.458,1313.723c0.008-0.043,0.021-0.081,0.034-0.123
				c0.013-0.056,0.026-0.111,0.042-0.163c0.021-0.089,0.047-0.173,0.072-0.259c0.009-0.043,0.022-0.085,0.035-0.127
				c0-0.014,0.004-0.025,0.009-0.035c0.004-0.012,0.008-0.024,0.008-0.038c0,0,17.169,26.832,15.872,50.142
				c-0.2,3.628-3.806,12.797-9.059,24.553c0,0.008-0.004,0.012-0.008,0.021c-1.91,4.283-4.041,8.905-6.303,13.732
				c-0.085-0.199-0.166-0.404-0.251-0.604c-3.283-8.012-5.418-15.53-5.418-22.097
				C1251.49,1378.724,1252.94,1327.578,1256.458,1313.723z"/>
		</g>
		<g>
			<path style="fill:#3C4145;" d="M988.954,1330.066l79.91,17.402l38.092-99.615c0.842-0.668,11.763-6.545,18.993-9.986
				c7.528-3.584,17.054-8.007,25.504-11.907c4.036-1.867,7.838-3.61,11.049-5.086l0.264,0.208c0,0-4.716,15.705-10.819,54.909
				c0,0.003,0,0.008-0.004,0.013c-0.208,1.318-0.413,2.658-0.621,4.027c-0.021,0.157-0.046,0.318-0.072,0.476
				c-0.136,0.907-0.276,1.825-0.412,2.757c-0.017,0.11-0.034,0.221-0.051,0.327c-0.094,0.624-0.187,1.255-0.276,1.893
				c-0.23,1.548-0.459,3.126-0.689,4.733c-2.722,19.082-6.541,51.558-10.211,84.343v0.014c-2.9,25.839-9.509,52.356-11.61,72.146
				c0,0.012-0.004,0.025-0.004,0.038c-0.417,3.878-1.408,9.046-2.748,14.876c-0.149,0.659-0.306,1.327-0.463,2.004
				c-5.912,24.977-17.391,60.33-17.391,60.33l-3.342-3.088l-9.901-9.138c-2.279-2.102-3.143-5.325-2.224-8.281
				c5.491-17.713,24.152-80.4,27.571-124.478c0.004-0.012,0.004-0.026,0.004-0.037c1.072-13.848-2.977-26.893-5.325-39.26
				c-0.042,0.107-0.081,0.213-0.119,0.324c-1.965,5.464-4.142,11.406-6.336,17.189v0.004c-5.89,15.531-11.917,29.924-14.426,30.842
				c-5.584,2.055-110.804-26.714-111.532-30.844L988.954,1330.066z"/>
		</g>
		<g>
			<path style="fill:#51565C;" d="M1220.195,1259.881l-16.309,9.197l6.967,7.107l-18.553,100.17
				c-3.782-23.479-5.504-45.775-6.785-59.45c-4.266-45.511,41.159-96.849,43.985-99.993c2.182,0.827,4.539,1.742,6.974,2.705
				L1220.195,1259.881z"/>
		</g>
		<g>
			<path style="fill:#51565C;" d="M1163.018,1220.64c0,0-6.093,19.902-13.195,69.575c-2.722,19.084-6.543,51.562-10.215,84.343
				l-3.796-93.813l7.769-8.417l-6.906-8.632l14.779-37.735c4.036-1.866,7.836-3.612,11.05-5.087L1163.018,1220.64z"/>
		</g>
		<g>
			<path style="fill:#F5E2D9;" d="M1230.319,1217.113l-13.522-8.213c0,0-0.379,7.416-33.866,26.785l9.51,26.785L1230.319,1217.113z"
				/>
		</g>
		<g>
			<path style="fill:#F5E2D9;" d="M1174.023,1212.637c0,0,0.527,8.003,8.908,23.049l-18.561,24.195l-1.353-39.241L1174.023,1212.637
				z"/>
		</g>
		<g>
			<path style="fill:#323657;" d="M1182.981,1235.686c0,0,3.597,14.388,2.302,18.416c0,0-7.91,2.879-13.595-0.719
				C1171.688,1253.383,1175.716,1243.312,1182.981,1235.686z"/>
		</g>
		<g>
			<g>
				<path style="fill:#AD9F99;" d="M1164.387,1443.189c-2.013-10.152-0.097-40.57-0.015-41.861l1.723,0.111
					c-0.02,0.313-1.984,31.482-0.015,41.414L1164.387,1443.189z"/>
			</g>
		</g>
		<g>
			<path style="fill:#69737A;" d="M1178.471,1438.509c0,0-16.232,1.937-21.6,3.276l0.703,18.195l21.257-2.27L1178.471,1438.509z"/>
		</g>
		<g>
			<path style="fill:#323657;" d="M1174.918,1252.088c0,0-18.104,45.721-15.151,96.895c3.062,53.06,8.083,72.299,8.083,72.299
				l11.164,13.998l4.922-17.206c0,0-14.979-67.646-5.31-133.47c1.752-11.928,4.354-34.53,4.354-34.53L1174.918,1252.088z"/>
		</g>
		<g>
			<path style="fill:#EEA886;" d="M1229.32,1468.005c0,0-3.885,7.77-7.77,9.063c-3.884,1.296-9.55,7.608-9.55,7.608l27.354,14.405
				c0,0,7.284-14.243,7.608-23.308C1247.287,1466.71,1229.32,1468.005,1229.32,1468.005z"/>
		</g>
		<g>
			<path style="fill:#DECBC4;" d="M1226.724,1468.732l-1.812,3.643c0,0,17.373,12.707,22.056,13.515l1.607-4.854L1226.724,1468.732z
				"/>
		</g>
		<g>
			<path style="fill:#3C4145;" d="M1224.912,1468.893c0,0,13.02,10.767,23.988,15.73l36.899-66.369l-19.12-36.964
				C1266.679,1381.29,1225.775,1462.418,1224.912,1468.893z"/>
		</g>
		<g>
			<path style="fill:#2D3133;" d="M1114.692,1316.495c-0.604,12.277-0.515,23.183-0.515,23.183s0,0.004,0,0.008
				c-0.004,0.061-0.017,0.392-0.042,0.94c-0.025-0.208-0.051-0.412-0.077-0.616c-1.965,5.464-4.142,11.406-6.336,17.189
				c-0.51-6.702-0.642-12.949-0.494-18.734c0.881-34.426,11.709-52.48,11.709-52.48
				C1116.453,1291.986,1115.262,1304.859,1114.692,1316.495z"/>
		</g>
		<g>
			<path style="fill:#2D3133;" d="M1280.031,1446.08l-29.54,35.677l25.305-43.74C1277.25,1440.73,1278.67,1443.423,1280.031,1446.08
				z"/>
		</g>
		<g>
			<path style="fill:#D9C9C2;" d="M1065.508,1401.35h-68.201c-4.674,0-8.742-3.199-9.842-7.743l-29.624-122.313
				c-1.543-6.374,3.285-12.511,9.842-12.511h68.201c4.674,0,8.742,3.199,9.842,7.743l29.624,122.313
				C1076.894,1395.213,1072.065,1401.35,1065.508,1401.35z"/>
		</g>
		<g>
			<g>
				<path style="fill:#EEA886;" d="M982.088,1367.346c3.337-3.089,9.775-4.881,15.287-8.564c5.513-3.684,0.909-7.48,0.909-7.48
					c5.664-1.945,5.055-4.53,4.329-6.292c-0.98-2.38-7.166-1.704-7.166-1.704s5.547-1.227,7.828-2.236
					c2.282-1.01,1.507-4.987-2.003-6.245c-3.51-1.259-17.812,2.269-17.812,2.269s2.332-1.143,9.386-4.683
					c7.054-3.54,8.602-6.761,4.443-8.308c-2.891-1.074-8.573,1.18-19.478,8.507c-8.21,5.518-7.543,6.235-7.543,6.235
					S978.102,1371.037,982.088,1367.346z"/>
			</g>
		</g>
	</g>
	<g>
		<g>
			<polygon style="fill:#898FBF;" points="1494.616,1626.932 1798.631,1626.932 1702.814,1921.182 1711.775,1924.1 
				1811.609,1617.508 1487.774,1617.508 1388.89,1921.182 1397.851,1924.1 			"/>
		</g>
		<g>
			<polygon style="fill:#898FBF;" points="1598.086,1921.182 1502.27,1626.932 1806.283,1626.932 1903.049,1924.1 1912.01,1921.182 
				1813.125,1617.508 1489.291,1617.508 1589.125,1924.1 			"/>
		</g>
		<g>
			<rect x="1466.332" y="1710.164" style="fill:#898FBF;" width="372.104" height="9.424"/>
		</g>
		<g>
			<rect x="1427.999" y="1812.477" style="fill:#898FBF;" width="445.192" height="9.424"/>
		</g>
	</g>
	<g>
		<g>
			<g>
				<path style="fill:#EEA886;" d="M1646.957,955.36c0,0,7.578-13.262-4.441-48.806c-11.623-34.376-51.861-31.26-64.649-9.236
					c-12.788,22.023-8.468,35.703,10.358,60.568C1607.051,982.752,1639.143,966.727,1646.957,955.36z"/>
			</g>
		</g>
		<g>
			<g>
				<path style="fill:#EEA886;" d="M1553.496,1566.896c0,0-1.99,14.598-2.24,16.79c-0.248,2.193-22.149-1.291-22.149-1.291
					l-1.772-17.379C1527.334,1565.016,1550.758,1564.836,1553.496,1566.896z"/>
			</g>
		</g>
		<g>
			<g>
				<path style="fill:#152B3D;" d="M1551.489,1581.83c0,0,6.938,8.795,13.65,12.63c6.712,3.834,17.258,5.353,21.226,9.321
					c2.865,2.864,10.435,15.197-17.439,14.949c-27.873-0.25-41.313,1.741-44.299-2.987s4.321-34.901,4.321-34.901
					S1535.771,1582.765,1551.489,1581.83z"/>
			</g>
		</g>
		<g>
			<g>
				<path style="fill:#EEA886;" d="M1705.138,1566.896c0,0-1.991,14.598-2.239,16.79c-0.25,2.193-22.15-1.291-22.15-1.291
					l-1.773-17.379C1678.975,1565.016,1702.4,1564.836,1705.138,1566.896z"/>
			</g>
		</g>
		<g>
			<g>
				<path style="fill:#152B3D;" d="M1703.131,1581.83c0,0,6.939,8.795,13.65,12.63c6.711,3.834,31.408,6.983,35.377,10.951
					c2.865,2.865,7.629,14.397-31.59,13.319c-27.865-0.767-41.313,1.741-44.3-2.987s4.321-34.901,4.321-34.901
					S1689.248,1582.383,1703.131,1581.83z"/>
			</g>
		</g>
		<g>
			<g>
				<path style="fill:#FFC05C;" d="M1560.869,1203.423c0,0-11.229,34.896-9.75,64.967c1.479,30.072-5.807,62.979-8.784,94.392
					c-3.319,35.021-16.907,117.93-17.399,136.662c-0.493,18.733,2.109,78.553,2.109,78.553l27.197,0.656
					c0,0,22.842-144.942,28.758-159.732c5.916-14.789,35.254-120.225,36.239-132.056
					C1620.226,1275.031,1560.869,1203.423,1560.869,1203.423z"/>
			</g>
		</g>
		<g>
			<g>
				<path style="fill:#FFC05C;" d="M1673.636,1199.79c0,0,16.51,92.265,18.481,110.67c1.973,18.405,3.287,89.069,4.273,100.571
					c0.986,11.504,6.573,150.53,11.832,167.621h-30.325c0,0-31.136-101.067-31.136-148.887c0-47.817-20.621-103.956-33.932-135.507
					s-43.777-32.298-51.961-90.836C1560.869,1203.423,1662.558,1181.224,1673.636,1199.79z"/>
			</g>
		</g>
		<g>
			<g>
				<path style="fill:#EEA886;" d="M1635.957,964.745c0,0-3.422,9.957,0,17.061c3.422,7.105-43.707,2.842-43.707,2.842
					s2.132-14.683-4.025-26.762C1582.066,945.808,1635.957,964.745,1635.957,964.745z"/>
			</g>
		</g>
		<g>
			<g>
				<path style="fill:#FFC05C;" d="M1558.684,1211.025c0,0,16.947,17.41,116.469-2.712l-1.517-8.523l-113.136,4.259
					L1558.684,1211.025z"/>
			</g>
		</g>
		<g>
			<g>
				<path style="fill:#EEA886;" d="M1643.088,984.113c0,0,17.407,1.776,22.381,2.724c4.973,0.947,38.449-5.987,45.316-6.697
					c6.868-0.711,36.151-20.775,37.099-23.143c0.947-2.369,17.815-45.079,18.763-54.315c0.947-9.236,16.432-4.469,15.104,1.897
					c-2.484,11.904-5.673,40.804-7.42,49.181c-1.889,9.045-6.947,29.529-9.789,32.05c-2.842,2.521-29.209,22.577-55.023,31.103
					c-25.813,8.526-45.244,21.078-45.244,21.078h-127.219c0,0-49.482-70.732-50.547-81.389
					c-1.065-10.657,34.563-81.487,41.667-90.367c7.104-8.882,17.381,2.899,17.381,2.899s-21.288,62.46-24.13,71.342
					c-2.842,8.88,24.762,47.9,32.34,48.018c7.578,0.118,27.037-2.368,35.682-2.724c8.645-0.355,17.762-4.144,17.762-4.144
					L1643.088,984.113z"/>
			</g>
		</g>
		<g>
			<g>
				<path style="fill:#254380;" d="M1697.914,1031.359c0,0-15.573,10.354-16.994,28.115c-1.421,17.76-7.104,45.822-9.946,55.414
					c-2.842,9.59,2.486,79.214,3.196,84.188c0.711,4.973-98.442,16.789-113.67,4.973c0,0-4.263-65.005-6.039-83.477
					c-1.775-18.472-10.301-63.229-13.143-69.268c-2.842-6.039-37.298-54.373-38.719-60.744c0,0,17.825-28.418,30.614-28.773
					c0,0,20.311,23.801,26.932,24.866c6.621,1.065,47.213-6.374,47.219-6.435c0,0,4.43,6.033,27.982-1.072
					c0,0,28.048,3.165,32.609,3.747c5.525,0.706,43.932-4.82,43.932-4.82s15.408,26.019,12.709,39.155L1697.914,1031.359z"/>
			</g>
		</g>
		<g>
			<g>
				<path style="fill:#EEA886;" d="M1765.756,908.232c0,0,3.479-16.464-0.71-21.19c-2.382-2.69-8.112-9.815-8.636-10.862
					c-0.523-1.046-6.674-4.58-6.674-6.28c0-1.701,6.02-3.795,11.254,1.046c5.233,4.841,8.505,5.888,10.599,5.364
					c2.094-0.522,5.104-17.926,5.364-22.244c0.262-4.319,1.929-15.703,4.629-14.917c2.699,0.785,2.568,5.757,2.568,5.757
					s3.141-8.636,5.234-6.935c2.094,1.701,1.832,5.888,1.832,5.888s3.926-4.842,4.973-1.309s0,6.674,0,6.674
					s4.057-2.225,4.318,3.271c0.262,5.496-1.178,21.591-4.057,27.349c-2.879,5.758-13.654,20.817-14.939,26.7
					C1780.225,912.427,1765.756,908.232,1765.756,908.232z"/>
			</g>
		</g>
		<g>
			<g>
				<path style="fill:#EEA886;" d="M1542.088,879.319c0,0,11.836-19.896,15.861-21.671c4.026-1.776,9.711-2.783,14.684-6.335
					c4.974-3.552,11.545-6.513,11.189-7.697c-0.354-1.184-6.216-0.71-12.492,2.013c-6.275,2.724-9.029,1.408-9.621-0.014
					c-0.592-1.421,3.346-11.452,5.24-13.82c1.895-2.369,15.394-15.946,13.144-17.959c-2.249-2.013-11.013,5.447-12.433,6.986
					c0,0,6.985-14.683,4.262-15.393c-2.723-0.71-7.814,4.5-7.814,4.5s0.592-12.551-12.907,7.816c0,0,2.842-6.75-1.303-4.5
					c-4.144,2.25-8.171,14.919-9.473,21.314c-1.303,6.394-7.212,26.764-12.25,31.677
					C1523.137,871.147,1542.088,879.319,1542.088,879.319z"/>
			</g>
		</g>
		<g>
			<g>
				<path style="fill:#353A3D;" d="M1588.225,957.886c0,0,6.236,0.551,19.498-4.027c13.263-4.579,14.252-27.769,17.12-25.023
					c5.853,5.606,11.378,1.737,13.589-1.579c0,0-6.473-8.526-3.474-12.631c3-4.105,7.884-7.101,7.884-7.101
					s-9.328-44.958-51.775-24.476C1541.333,907.048,1588.225,957.886,1588.225,957.886z"/>
			</g>
		</g>
		<g>
			<g>
				<path style="fill:#254380;" d="M1635.957,981.806l-1.496-6.498c0,0-27.093-0.551-41.875,1.593l-1.556,7.768
					C1591.03,984.668,1609.958,993.252,1635.957,981.806z"/>
			</g>
		</g>
		<g>
			<g>
				<path style="fill:#EEA886;" d="M1629.274,923.152c-2.462-4.09-11.562-6.848-12.631,4.736
					c-0.829,8.98,16.263,18.789,16.42,10.421C1633.221,929.941,1630.912,925.874,1629.274,923.152z"/>
			</g>
		</g>
		<g>
			<g>
				<path style="fill:#E55353;" d="M1766.402,904.494c0,0,9.775,0.241,14.516,4.524c0,0,0.31,2.719-0.791,4.863
					c0,0-8.474-3.953-14.971-4.694C1765.156,909.187,1765.264,905.633,1766.402,904.494z"/>
			</g>
		</g>
		<g>
			<g>
				<path style="fill:#353A3D;" d="M1777.926,906.93c0.902,2.139-0.099,4.605-2.238,5.508c-2.139,0.903-4.604-0.099-5.507-2.238
					c-0.903-2.139,0.099-4.604,2.237-5.508C1774.557,903.79,1777.022,904.792,1777.926,906.93z"/>
			</g>
		</g>
	</g>
</g>
</svg>
