<?xml version="1.0" encoding="utf-8"?>
<!-- Generator: Adobe Illustrator 27.5.0, SVG Export Plug-In . SVG Version: 6.00 Build 0)  -->
<svg version="1.1" xmlns="http://www.w3.org/2000/svg" xmlns:xlink="http://www.w3.org/1999/xlink" x="0px" y="0px"
	 viewBox="0 0 750 500" style="enable-background:new 0 0 750 500;" xml:space="preserve">
<g id="Background_Complete">
	<g>
		<rect x="165.224" y="50.283" style="fill:#F5F5F5;" width="60.415" height="82.673"/>
	</g>
	<g>
		<rect x="149.911" y="60.69" style="fill:#E0E0E0;" width="60.415" height="82.673"/>
	</g>
	<g>
		<g>
			<g>
				<path style="fill:#EBEBEB;" d="M495.07,173.743c0,0-0.128,0.01-0.389,0.015c-0.277,0.004-0.664,0.009-1.169,0.015
					c-1.05,0.007-2.576,0.017-4.551,0.03c-3.996,0.014-9.793,0.035-17.068,0.06c-14.613,0.023-35.15,0.054-58.909,0.091l-0.159,0
					l-0.045-0.153c-1.22-4.163-0.474-9.041,2.251-12.771c2.717-3.72,7.384-6.09,12.192-5.967l-0.218,0.281
					c-0.353-1.217-0.518-2.588-0.456-3.955c0.182-4.553,2.771-8.952,6.745-10.988c3.923-2.071,8.765-1.995,12.482,0.067
					l-0.304,0.108c2.117-5.166,6.585-8.911,11.432-10.647c4.861-1.767,10.253-1.535,14.492,0.683
					c4.26,2.183,7.293,5.901,8.972,9.802c1.724,3.923,1.961,8.135,1.104,11.752l-0.164-0.187c2.436-0.27,4.794,0.149,6.819,0.977
					c2.029,0.832,3.751,2.052,5.059,3.467c0.651,0.705,1.214,1.469,1.593,2.284c0.377,0.813,0.658,1.628,0.848,2.427
					c0.392,1.596,0.532,3.092,0.58,4.432c0.086,2.686-0.239,4.756-0.531,6.126c-0.159,0.685-0.295,1.2-0.423,1.544
					C495.134,173.581,495.07,173.743,495.07,173.743"/>
			</g>
		</g>
	</g>
	<g>
		<path style="fill:#EBEBEB;" d="M652.141,134.452c-8.202,1.363-13.745,9.117-12.383,17.319c1.363,8.202,9.117,13.746,17.319,12.382
			c7.015-1.166,12.082-7.008,12.549-13.806l0.006-0.001l4.127-0.686l2.202-4.641l3.223,3.739l5.17-0.859l2.202-4.641l3.223,3.739
			l4.444-0.739l1.342-2.828l1.964,2.279l2.587-0.43l2.843-3.764l-4.874-5.357l-30.744,5.109
			C664.206,136.301,658.3,133.428,652.141,134.452z M643.756,151.106c-0.391-2.353,1.199-4.577,3.552-4.968
			c2.353-0.391,4.577,1.199,4.968,3.552c0.391,2.353-1.199,4.577-3.552,4.968C646.372,155.049,644.147,153.459,643.756,151.106z"/>
	</g>
	<g>
		<g>
			<path style="fill:#EBEBEB;" d="M636.874,249.494l1.854,34.095c0.066,1.214,1.065,2.168,2.282,2.177l61.352,0.45
				c1.271,0.009,2.309-1.014,2.319-2.285l0.194-26.539c0.009-1.277-1.023-2.318-2.3-2.319l-37.732-0.033
				c-0.61-0.001-1.194-0.243-1.625-0.674l-6.51-6.507c-0.427-0.428-1.006-0.669-1.61-0.674l-15.906-0.117
				C637.862,247.057,636.802,248.169,636.874,249.494z"/>
		</g>
		<g>
			
				<rect x="637.739" y="250.815" transform="matrix(1 0.0073 -0.0073 1 2.0026 -4.9113)" style="fill:#F5F5F5;" width="67.036" height="40.057"/>
		</g>
		<g>
			<path style="fill:#EBEBEB;" d="M632.527,254.125l4.812,41.809c0.085,0.743,0.712,1.305,1.46,1.311l65.329,0.479
				c0.772,0.006,1.419-0.584,1.486-1.353l3.595-41.747c0.074-0.86-0.601-1.601-1.464-1.607l-73.736-0.54
				C633.12,252.469,632.426,253.242,632.527,254.125z"/>
		</g>
	</g>
	<g>
		<g>
			<g>
				<g>
					<g>
						<path style="fill:#EBEBEB;" d="M629.131,437.753c-15.552-10.865-19.08-31.033-18.465-49.162
							c0.102-3.026-0.23-6.216,1.209-8.872c1.44-2.654,4.799-4.469,7.508-3.194c2.247,1.058,3.227,3.672,4.484,5.834
							c1.672,2.877,4.164,5.257,7.097,6.779c1.927,1,4.311,1.611,6.213,0.562c2.61-1.44,2.918-5.046,2.899-8.057
							c-0.036-5.61-0.07-11.219-0.105-16.828c-0.019-3.009-0.028-6.083,0.908-8.939c0.936-2.856,3.004-5.51,5.867-6.312
							c2.864-0.802,6.404,0.849,7.009,3.795c0.252,1.226,0.002,2.499,0.086,3.748c0.084,1.25,0.666,2.632,1.852,2.98
							c1.201,0.353,2.406-0.5,3.305-1.381c3.107-3.039,5.215-6.954,7.185-10.847c1.97-3.893,3.882-7.879,6.701-11.193
							c2.819-3.315,6.718-5.941,11.028-6.185c4.311-0.244,8.903,2.417,9.992,6.648c1.092,4.243-1.383,8.548-4.077,11.983
							c-3.996,5.096-8.724,9.602-13.988,13.333c-0.949,0.673-1.977,1.401-2.34,2.516c-0.654,2.007,1.247,3.999,3.229,4.659
							c2.243,0.747,4.678,0.514,7.024,0.79c2.347,0.276,4.889,1.311,5.777,3.529c1.233,3.076-1.34,6.301-3.871,8.413
							c-5.069,4.229-10.858,7.57-17.033,9.832c-2.214,0.81-4.544,1.521-6.329,3.076c-1.785,1.556-2.863,4.261-1.784,6.38
							c1.08,2.123,3.848,2.801,6.167,2.37c2.318-0.43,4.394-1.689,6.605-2.523c4.136-1.561,9.477-1.276,12.127,2.298
							c1.741,2.35,1.894,5.622,1.014,8.422c-0.88,2.801-2.666,5.214-4.563,7.438c-6.629,7.777-15.115,14.039-24.711,17.366
							C647.557,440.34,638.667,441.24,629.131,437.753"/>
					</g>
				</g>
			</g>
		</g>
		<g>
			<g>
				<g>
					<g>
						<g>
							<path style="fill:#E0E0E0;" d="M628.893,451.193c0.657-7.182,2.232-15.663,4.918-24.805
								c2.668-9.149,6.425-18.935,10.705-29.036c1.079-2.521,2.146-5.012,3.197-7.467c1.055-2.448,2.101-4.876,3.271-7.188
								c2.32-4.634,4.904-8.913,7.484-12.898c2.579-3.987,5.171-7.677,7.62-11.109c2.458-3.429,4.808-6.581,7.074-9.363
								c4.515-5.583,8.681-9.646,11.655-12.319c1.484-1.342,2.67-2.345,3.483-3.014c0.391-0.318,0.698-0.567,0.929-0.755
								c0.211-0.167,0.322-0.249,0.328-0.242c0.007,0.008-0.092,0.104-0.292,0.286c-0.222,0.198-0.518,0.462-0.894,0.797
								c-0.788,0.697-1.951,1.725-3.411,3.089c-2.925,2.719-7.033,6.811-11.496,12.408c-2.24,2.79-4.567,5.948-7.004,9.383
								c-2.431,3.442-5.006,7.135-7.567,11.12c-2.561,3.983-5.125,8.251-7.425,12.863c-1.16,2.3-2.194,4.708-3.25,7.163
								c-1.05,2.454-2.115,4.944-3.193,7.464c-4.277,10.093-8.038,19.849-10.726,28.963c-2.703,9.106-4.312,17.545-5.016,24.696"/>
						</g>
					</g>
				</g>
			</g>
		</g>
		<g>
			<g>
				<g>
					<g>
						<g>
							<path style="fill:#E0E0E0;" d="M651.142,382.676c-0.037,0.006-0.14-0.451-0.294-1.284c-0.158-0.832-0.347-2.042-0.558-3.541
								c-0.426-2.997-0.872-7.155-1.347-11.741c-0.475-4.589-0.979-8.729-1.449-11.711c-0.231-1.491-0.43-2.697-0.578-3.528
								c-0.144-0.833-0.206-1.298-0.168-1.307c0.037-0.008,0.17,0.44,0.378,1.261c0.213,0.819,0.472,2.018,0.752,3.506
								c0.571,2.975,1.139,7.126,1.614,11.719c0.457,4.527,0.87,8.623,1.186,11.752c0.151,1.413,0.28,2.603,0.383,3.559
								C651.149,382.202,651.181,382.67,651.142,382.676z"/>
						</g>
					</g>
				</g>
			</g>
		</g>
		<g>
			<g>
				<g>
					<g>
						<g>
							<path style="fill:#E0E0E0;" d="M689.838,375.444c0.001,0.038-0.549,0.102-1.544,0.185c-0.993,0.089-2.43,0.208-4.201,0.414
								c-3.544,0.382-8.421,1.082-13.769,2.09c-5.347,1.018-10.147,2.144-13.595,3.06c-1.728,0.445-3.117,0.843-4.078,1.113
								c-0.961,0.273-1.497,0.407-1.51,0.371c-0.012-0.037,0.503-0.241,1.446-0.579c0.944-0.333,2.319-0.79,4.039-1.287
								c3.431-1.016,8.234-2.207,13.597-3.229c5.363-1.01,10.268-1.651,13.833-1.933c1.781-0.155,3.228-0.216,4.227-0.237
								C689.284,375.396,689.836,375.405,689.838,375.444z"/>
						</g>
					</g>
				</g>
			</g>
		</g>
		<g>
			<g>
				<g>
					<g>
						<g>
							<path style="fill:#E0E0E0;" d="M634.287,425.676c-0.018,0.008-0.108-0.154-0.265-0.472c-0.179-0.379-0.397-0.841-0.662-1.4
								c-0.569-1.218-1.347-3.003-2.279-5.219c-1.867-4.433-4.253-10.637-6.793-17.519c-2.542-6.885-4.867-13.103-6.639-17.568
								c-0.868-2.171-1.583-3.956-2.114-5.283c-0.227-0.576-0.414-1.051-0.567-1.441c-0.124-0.331-0.181-0.509-0.163-0.518
								c0.018-0.007,0.108,0.155,0.266,0.473c0.179,0.378,0.397,0.839,0.662,1.399c0.569,1.218,1.347,3.002,2.279,5.219
								c1.867,4.433,4.253,10.637,6.794,17.522c2.541,6.883,4.867,13.1,6.638,17.566c0.869,2.17,1.583,3.956,2.114,5.282
								c0.227,0.576,0.414,1.052,0.567,1.441C634.248,425.49,634.305,425.668,634.287,425.676z"/>
						</g>
					</g>
				</g>
			</g>
		</g>
		<g>
			<g>
				<g>
					<g>
						<g>
							<path style="fill:#E0E0E0;" d="M685.707,409.104c0.005,0.019-0.171,0.09-0.51,0.21c-0.402,0.135-0.896,0.3-1.493,0.501
								c-1.379,0.447-3.241,1.051-5.506,1.784c-4.649,1.508-11.046,3.664-18.112,6.056c-7.068,2.394-13.491,4.493-18.173,5.905
								c-2.341,0.707-4.24,1.259-5.56,1.614c-0.61,0.16-1.114,0.292-1.523,0.4c-0.35,0.085-0.537,0.121-0.542,0.102
								c-0.005-0.019,0.171-0.09,0.51-0.211c0.401-0.134,0.895-0.299,1.493-0.499c1.379-0.447,3.24-1.05,5.505-1.784
								c4.649-1.507,11.047-3.664,18.115-6.057c7.066-2.393,13.488-4.492,18.17-5.904c2.341-0.707,4.24-1.259,5.562-1.614
								c0.611-0.16,1.113-0.293,1.523-0.4C685.515,409.12,685.701,409.085,685.707,409.104z"/>
						</g>
					</g>
				</g>
			</g>
		</g>
	</g>
</g>
<g id="Background_Simple" style="display:none;">
	<path style="display:inline;fill:#E0E0E0;" d="M607.299,153.353c-23.915-32.642-66.105-52.994-105.773-44.999
		c-52.397,10.56-85.782,63.546-135.4,83.422c-48.852,19.569-104.3,4.007-156.557,10.225c-22.771,2.71-46.142,10.339-61.454,27.409
		c-14.762,16.458-20.041,39.574-19.929,61.682c0.307,60.61,42.444,130.64,98.932,152.614l9.26,1.615
		c50.609,6.417,158.529,5.777,209.184-0.269s112.663-40.645,146.196-79.089c23.471-26.909,37.187-61.575,41.62-97.006
		C638.403,228.804,631.214,185.995,607.299,153.353z"/>
</g>
<g id="Floor">
	<g>
		<g>
			<path style="fill:#263238;" d="M692.399,451.232c0,0.144-143.772,0.26-321.084,0.26c-177.373,0-321.114-0.117-321.114-0.26
				s143.742-0.26,321.114-0.26C548.627,450.971,692.399,451.088,692.399,451.232z"/>
		</g>
	</g>
</g>
<g id="Plant">
	<g>
		<g>
			<g>
				<path style="fill:#E8505B;" d="M618.326,416.321c1.747,2.245,4.876,1.314,6.273-0.181c1.397-1.495,1.914-3.586,2.38-5.578
					c1.064-4.552,2.128-9.325,0.937-13.845c-0.356-1.352-0.936-2.688-1.947-3.653c-1.011-0.965-2.518-1.493-3.849-1.069
					c-1.576,0.503-2.49,2.117-3.132,3.642c-1.888,4.481-2.76,9.386-2.531,14.243C616.565,412.148,616.952,414.513,618.326,416.321"
					/>
			</g>
		</g>
		<g style="opacity:0.2;">
			<g>
				<path d="M618.326,416.321c1.747,2.245,4.876,1.314,6.273-0.181c1.397-1.495,1.914-3.586,2.38-5.578
					c1.064-4.552,2.128-9.325,0.937-13.845c-0.356-1.352-0.936-2.688-1.947-3.653c-1.011-0.965-2.518-1.493-3.849-1.069
					c-1.576,0.503-2.49,2.117-3.132,3.642c-1.888,4.481-2.76,9.386-2.531,14.243C616.565,412.148,616.952,414.513,618.326,416.321"
					/>
			</g>
		</g>
		<g>
			<g>
				<path style="fill:#E8505B;" d="M625.028,427.801c2.596-1.51,5.725-1.847,8.709-1.508c1.603,0.183,3.284,0.574,4.426,1.714
					c1.142,1.139,1.453,3.23,0.263,4.319c-0.708,0.648-1.735,0.793-2.694,0.83c-2.318,0.09-4.909-0.188-6.689,1.299
					c-1.016,0.849-1.652,2.206-2.894,2.661c-1.216,0.445-2.646-0.213-3.357-1.295c-0.711-1.082-0.803-2.474-0.562-3.745
					C622.23,432.076,622.413,429.322,625.028,427.801z"/>
			</g>
		</g>
		<g>
			<g>
				<path style="fill:#E8505B;" d="M614.019,419.887c1.664-2.19,1.844-5.27,0.924-7.861c-0.92-2.591-2.813-4.74-4.955-6.463
					c-2.512-2.021-5.422-3.545-8.513-4.46c-1.217-0.36-2.494-0.628-3.75-0.444c-1.255,0.184-2.493,0.893-3.025,2.045
					c-0.786,1.703,0.15,3.674,1.135,5.27c1.736,2.813,3.693,5.488,5.848,7.994c1.733,2.016,3.702,3.991,6.23,4.814
					c2.528,0.823,5.099,0.581,6.327-1.205"/>
			</g>
		</g>
		<g>
			<g>
				<g>
					<path style="fill:#263238;" d="M619.99,451.44c0.031,0,0.061-0.379,0.094-1.065c0.036-0.773,0.081-1.745,0.135-2.901
						c0.073-1.222,0.177-2.676,0.435-4.267c0.257-1.587,0.698-3.315,1.286-5.075c0.614-1.751,1.389-3.353,2.323-4.651
						c0.927-1.303,2.034-2.268,3.091-2.845c1.052-0.588,2.01-0.853,2.674-0.984c0.671-0.103,1.047-0.176,1.045-0.206
						c-0.001-0.03-0.38-0.016-1.073,0.038c-0.685,0.081-1.684,0.306-2.796,0.881c-1.116,0.564-2.292,1.546-3.266,2.877
						c-0.983,1.326-1.788,2.964-2.412,4.746c-0.599,1.791-1.031,3.536-1.271,5.156c-0.239,1.618-0.312,3.086-0.346,4.316
						c-0.03,1.23-0.014,2.225,0.004,2.912C619.933,451.061,619.961,451.44,619.99,451.44z"/>
				</g>
			</g>
		</g>
		<g>
			<g>
				<g>
					<path style="fill:#263238;" d="M620.077,449.209c0.015-0.002,0.016-0.171,0.003-0.492c-0.02-0.369-0.044-0.833-0.075-1.403
						c-0.065-1.218-0.153-2.98-0.198-5.16c-0.112-4.359-0.041-10.387,0.349-17.028c0.395-6.644,1.061-12.636,1.727-16.944
						c0.154-1.079,0.315-2.052,0.47-2.904c0.146-0.854,0.269-1.589,0.395-2.186c0.105-0.561,0.191-1.018,0.259-1.381
						c0.055-0.317,0.076-0.485,0.061-0.489c-0.015-0.003-0.065,0.158-0.147,0.469c-0.089,0.359-0.202,0.81-0.34,1.365
						c-0.151,0.592-0.3,1.325-0.469,2.176c-0.178,0.85-0.361,1.821-0.535,2.9c-0.746,4.307-1.462,10.31-1.858,16.967
						c-0.391,6.656-0.413,12.699-0.221,17.064c0.085,2.183,0.22,3.947,0.337,5.163c0.064,0.568,0.115,1.031,0.157,1.398
						C620.033,449.044,620.062,449.211,620.077,449.209z"/>
				</g>
			</g>
		</g>
		<g>
			<g>
				<g>
					<path style="fill:#263238;" d="M619.519,437.584c0.03-0.003-0.001-0.523-0.084-1.466c-0.102-0.939-0.3-2.295-0.65-3.949
						c-0.365-1.65-0.858-3.606-1.584-5.722c-0.696-2.125-1.621-4.411-2.766-6.726c-2.248-4.66-5.172-8.416-7.666-10.707
						c-0.589-0.612-1.232-1.042-1.75-1.47c-0.268-0.204-0.505-0.409-0.745-0.569c-0.24-0.148-0.464-0.286-0.671-0.414
						c-0.808-0.495-1.259-0.754-1.274-0.728c-0.065,0.099,1.808,1.077,4.228,3.405c2.411,2.323,5.257,6.055,7.487,10.676
						c1.136,2.295,2.065,4.558,2.777,6.662c0.742,2.094,1.262,4.029,1.664,5.66c0.386,1.636,0.63,2.975,0.782,3.903
						C619.4,437.072,619.489,437.587,619.519,437.584z"/>
				</g>
			</g>
		</g>
	</g>
</g>
<g id="User">
	<g>
		<g>
			<g>
				<g>
					<g>
						<rect x="34.815" y="226.754" style="fill:#FAFAFA;" width="113.058" height="75.722"/>
					</g>
				</g>
			</g>
		</g>
		<g>
			<g>
				<g>
					<g>
						<path style="fill:#263238;" d="M117.165,272.677h-3.013v-18.123c0-4.353-3.541-7.894-7.894-7.894
							c-4.353,0-7.894,3.541-7.894,7.894v18.123H95.35v-18.123c0-6.014,4.893-10.908,10.908-10.908
							c6.014,0,10.908,4.893,10.908,10.908V272.677z"/>
					</g>
				</g>
				<g>
					<g>
						<path style="fill:#263238;" d="M117.778,283.75H94.736c-1.873,0-3.392-1.519-3.392-3.392v-12.351
							c0-1.873,1.519-3.392,3.392-3.392h23.042c1.873,0,3.392,1.519,3.392,3.392v12.351
							C121.17,282.231,119.651,283.75,117.778,283.75z"/>
					</g>
				</g>
				<g>
					<g>
						<g>
							<path style="fill:#455A64;" d="M106.257,274.182c-1.377,0-2.493-1.116-2.493-2.493s1.116-2.493,2.493-2.493
								s2.493,1.116,2.493,2.493S107.634,274.182,106.257,274.182"/>
						</g>
					</g>
					<g>
						<g>
							<rect x="105.577" y="272.677" style="fill:#455A64;" width="1.36" height="5.127"/>
						</g>
					</g>
				</g>
			</g>
		</g>
		<g>
			<g>
				<g>
					<path style="fill:#E8505B;" d="M90.6,272.462c4.188-1.757,7.167-6.076,7.192-11.166c0.027-6.667-5.018-12.096-11.271-12.124
						c-6.25-0.029-11.341,5.353-11.368,12.02c-0.021,5.137,2.979,9.508,7.213,11.271c-17.419,2.624-16.629,21.556-16.629,21.556
						l41.192,0.19C106.928,294.208,107.868,275.069,90.6,272.462z"/>
				</g>
			</g>
		</g>
		<g>
			<g>
				<g>
					<g>
						<g>
							<path style="fill:#263238;" d="M147.873,302.476c0,0-0.015-0.477-0.022-1.382c-0.005-0.916-0.013-2.254-0.023-4
								c-0.012-3.511-0.03-8.652-0.053-15.234c-0.026-13.157-0.064-32.061-0.109-55.106l0.208,0.208
								c-31.158,0.014-70.456,0.033-113.049,0.052h-0.009l0.26-0.26c-0.008,26.977-0.015,52.63-0.022,75.722l-0.238-0.238
								c33.273,0.048,61.505,0.089,81.434,0.117c9.972,0.027,17.863,0.049,23.276,0.064c2.699,0.013,4.777,0.022,6.195,0.029
								c0.697,0.006,1.229,0.011,1.601,0.014C147.683,302.467,147.873,302.476,147.873,302.476s-0.172,0.009-0.524,0.014
								c-0.366,0.003-0.889,0.008-1.574,0.014c-1.407,0.007-3.469,0.016-6.147,0.029c-5.401,0.015-13.274,0.037-23.222,0.064
								c-19.968,0.029-48.254,0.07-81.59,0.118l-0.239,0v-0.239c-0.007-23.093-0.014-48.745-0.022-75.722l0-0.26h0.261h0.009
								c42.592,0.02,81.891,0.038,113.049,0.052l0.209,0l0,0.208c-0.046,23.099-0.083,42.047-0.109,55.235
								c-0.023,6.562-0.041,11.688-0.053,15.188c-0.01,1.729-0.018,3.054-0.023,3.961
								C147.888,302.029,147.873,302.476,147.873,302.476z"/>
						</g>
					</g>
				</g>
			</g>
		</g>
		<g>
			<g>
				<path style="fill:#263238;" d="M147.848,235.85c0,0.144-25.293,0.26-56.487,0.26c-31.204,0-56.492-0.117-56.492-0.26
					c0-0.144,25.288-0.26,56.492-0.26C122.555,235.59,147.848,235.706,147.848,235.85z"/>
			</g>
		</g>
		<g>
			<g>
				<path style="fill:#263238;" d="M42.26,231.309c0,0.645-0.523,1.168-1.168,1.168s-1.168-0.523-1.168-1.168
					c0-0.645,0.523-1.168,1.168-1.168S42.26,230.664,42.26,231.309z"/>
			</g>
			<g>
				<path style="fill:#263238;" d="M46.087,231.309c0,0.645-0.523,1.168-1.168,1.168s-1.168-0.523-1.168-1.168
					c0-0.645,0.523-1.168,1.168-1.168S46.087,230.664,46.087,231.309z"/>
			</g>
			<g>
				<path style="fill:#263238;" d="M50.201,231.309c0,0.645-0.523,1.168-1.168,1.168s-1.168-0.523-1.168-1.168
					c0-0.645,0.523-1.168,1.168-1.168S50.201,230.664,50.201,231.309z"/>
			</g>
		</g>
		<g>
			<g>
				<g>
					<g>
						<g>
							<path style="fill:#263238;" d="M147.873,302.476c0,0-0.015-0.477-0.022-1.382c-0.005-0.916-0.013-2.254-0.023-4
								c-0.012-3.511-0.03-8.652-0.053-15.234c-0.026-13.157-0.064-32.061-0.109-55.106l0.208,0.208
								c-31.158,0.014-70.456,0.033-113.049,0.052h-0.009l0.26-0.26c-0.008,26.977-0.015,52.63-0.022,75.722l-0.238-0.238
								c33.273,0.048,61.505,0.089,81.434,0.117c9.972,0.027,17.863,0.049,23.276,0.064c2.699,0.013,4.777,0.022,6.195,0.029
								c0.697,0.006,1.229,0.011,1.601,0.014C147.683,302.467,147.873,302.476,147.873,302.476s-0.172,0.009-0.524,0.014
								c-0.366,0.003-0.889,0.008-1.574,0.014c-1.407,0.007-3.469,0.016-6.147,0.029c-5.401,0.015-13.274,0.037-23.222,0.064
								c-19.968,0.029-48.254,0.07-81.59,0.118l-0.239,0v-0.239c-0.007-23.093-0.014-48.745-0.022-75.722l0-0.26h0.261h0.009
								c42.592,0.02,81.891,0.038,113.049,0.052l0.209,0l0,0.208c-0.046,23.099-0.083,42.047-0.109,55.235
								c-0.023,6.562-0.041,11.688-0.053,15.188c-0.01,1.729-0.018,3.054-0.023,3.961
								C147.888,302.029,147.873,302.476,147.873,302.476z"/>
						</g>
					</g>
				</g>
			</g>
		</g>
	</g>
	<g>
		<g>
			<g>
				<path style="fill:#263238;" d="M90.615,304.976c-0.144,0-0.26-0.56-0.26-1.25c0-0.691,0.117-1.25,0.26-1.25
					c0.144,0,0.26,0.559,0.26,1.25C90.875,304.416,90.758,304.976,90.615,304.976z"/>
			</g>
		</g>
		<g>
			<g>
				<path style="fill:#263238;" d="M90.615,315.917c-0.144,0-0.26-1.225-0.26-2.735c0-1.511,0.117-2.735,0.26-2.735
					c0.144,0,0.26,1.224,0.26,2.735C90.875,314.692,90.758,315.917,90.615,315.917z"/>
			</g>
		</g>
		<g>
			<g>
				<path style="fill:#263238;" d="M90.615,326.858c-0.144,0-0.26-1.225-0.26-2.735c0-1.511,0.117-2.735,0.26-2.735
					c0.144,0,0.26,1.224,0.26,2.735C90.875,325.633,90.758,326.858,90.615,326.858z"/>
			</g>
		</g>
		<g>
			<g>
				<path style="fill:#263238;" d="M90.615,337.798c-0.144,0-0.26-1.225-0.26-2.735c0-1.511,0.117-2.735,0.26-2.735
					c0.144,0,0.26,1.224,0.26,2.735C90.875,336.574,90.758,337.798,90.615,337.798z"/>
			</g>
		</g>
		<g>
			<g>
				<path style="fill:#263238;" d="M90.615,348.739c-0.144,0-0.26-1.225-0.26-2.735c0-1.511,0.117-2.735,0.26-2.735
					c0.144,0,0.26,1.224,0.26,2.735C90.875,347.515,90.758,348.739,90.615,348.739z"/>
			</g>
		</g>
		<g>
			<g>
				<path style="fill:#263238;" d="M93.115,356.71c0,0.144-1.119,0.26-2.5,0.26c-0.521-0.52-0.144-0.145-0.26-0.261v-0.001v-0.002
					v-0.004v-0.008l0-0.016v-0.032l0-0.064l0.001-0.127l0.004-0.248c0.005-0.149,0.01-0.302,0.015-0.469
					c0.013-0.299,0.032-0.569,0.056-0.795c0.047-0.452,0.112-0.732,0.184-0.732c0.072,0,0.137,0.28,0.184,0.732
					c0.024,0.226,0.043,0.496,0.056,0.795c0.005,0.167,0.01,0.321,0.015,0.469l0.004,0.248l0.001,0.127l0,0.064l0,0.032v0.016v0.008
					v0.004v0.002v0.001c-0.116-0.116,0.26,0.261-0.26-0.259C91.995,356.449,93.115,356.566,93.115,356.71z"/>
			</g>
		</g>
		<g>
			<g>
				<path style="fill:#263238;" d="M102.941,356.71c0,0.144-1.1,0.26-2.457,0.26c-1.357,0-2.457-0.117-2.457-0.26
					s1.1-0.26,2.457-0.26C101.841,356.449,102.941,356.566,102.941,356.71z"/>
			</g>
		</g>
		<g>
			<g>
				<path style="fill:#263238;" d="M112.768,356.71c0,0.144-1.1,0.26-2.457,0.26c-1.357,0-2.457-0.117-2.457-0.26
					s1.1-0.26,2.457-0.26C111.668,356.449,112.768,356.566,112.768,356.71z"/>
			</g>
		</g>
		<g>
			<g>
				<path style="fill:#263238;" d="M122.595,356.71c0,0.144-1.1,0.26-2.457,0.26c-1.357,0-2.457-0.117-2.457-0.26
					s1.1-0.26,2.457-0.26C121.495,356.449,122.595,356.566,122.595,356.71z"/>
			</g>
		</g>
		<g>
			<g>
				<path style="fill:#263238;" d="M132.422,356.71c0,0.144-1.1,0.26-2.457,0.26c-1.357,0-2.457-0.117-2.457-0.26
					s1.1-0.26,2.457-0.26C131.322,356.449,132.422,356.566,132.422,356.71z"/>
			</g>
		</g>
		<g>
			<g>
				<path style="fill:#263238;" d="M142.249,356.71c0,0.144-1.1,0.26-2.457,0.26c-1.357,0-2.457-0.117-2.457-0.26
					s1.1-0.26,2.457-0.26C141.149,356.449,142.249,356.566,142.249,356.71z"/>
			</g>
		</g>
		<g>
			<g>
				<path style="fill:#263238;" d="M152.076,356.71c0,0.144-1.1,0.26-2.457,0.26c-1.357,0-2.457-0.117-2.457-0.26
					s1.1-0.26,2.457-0.26C150.976,356.449,152.076,356.566,152.076,356.71z"/>
			</g>
		</g>
		<g>
			<g>
				<path style="fill:#263238;" d="M161.903,356.71c0,0.144-1.1,0.26-2.457,0.26c-1.357,0-2.457-0.117-2.457-0.26
					s1.1-0.26,2.457-0.26C160.803,356.449,161.903,356.566,161.903,356.71z"/>
			</g>
		</g>
		<g>
			<g>
				<path style="fill:#263238;" d="M171.73,356.71c0,0.144-1.1,0.26-2.457,0.26c-1.357,0-2.457-0.117-2.457-0.26
					s1.1-0.26,2.457-0.26C170.63,356.449,171.73,356.566,171.73,356.71z"/>
			</g>
		</g>
		<g>
			<g>
				<path style="fill:#263238;" d="M181.556,356.71c0,0.144-1.1,0.26-2.457,0.26c-1.357,0-2.457-0.117-2.457-0.26
					s1.1-0.26,2.457-0.26C180.456,356.449,181.556,356.566,181.556,356.71z"/>
			</g>
		</g>
		<g>
			<g>
				<path style="fill:#263238;" d="M191.383,356.71c0,0.144-1.1,0.26-2.457,0.26c-1.357,0-2.457-0.117-2.457-0.26
					s1.1-0.26,2.457-0.26C190.283,356.449,191.383,356.566,191.383,356.71z"/>
			</g>
		</g>
		<g>
			<g>
				<path style="fill:#263238;" d="M198.797,356.71c0,0.144-0.56,0.26-1.25,0.26c-0.69,0-1.25-0.117-1.25-0.26s0.56-0.26,1.25-0.26
					C198.237,356.449,198.797,356.566,198.797,356.71z"/>
			</g>
		</g>
	</g>
</g>
<g id="Document">
	<g>
		<g>
			<g>
				<g>
					<g>
						<g>
							<rect x="139.559" y="73.387" style="fill:#FFFFFF;" width="60.415" height="82.673"/>
						</g>
						<g>
							<g>
								<path style="fill:#263238;" d="M200.003,156.038c0,0-0.011-0.142-0.016-0.407c-0.004-0.283-0.01-0.669-0.017-1.17
									c-0.008-1.047-0.02-2.558-0.036-4.519c-0.02-3.957-0.049-9.709-0.085-16.982c-0.044-14.55-0.105-35.181-0.178-59.596
									l0.273,0.273c-18.194,0.022-38.738,0.046-60.408,0.072h-0.007l0.301-0.302c0.001,30.88,0.003,59.469,0.004,82.673
									l-0.246-0.245c18.273,0.04,33.345,0.073,43.87,0.096c5.258,0.023,9.379,0.042,12.208,0.054
									c1.396,0.011,2.469,0.02,3.217,0.026C199.614,156.021,200.003,156.038,200.003,156.038s-0.354,0.018-1.067,0.028
									c-0.738,0.007-1.796,0.017-3.171,0.03c-2.817,0.017-6.919,0.041-12.153,0.072c-10.563,0.038-25.687,0.093-44.024,0.16
									l-0.246,0.001l0-0.247c-0.032-23.204-0.072-51.793-0.115-82.673l0-0.302h0.302h0.007
									c21.669-0.006,42.214-0.011,60.408-0.015l0.274,0l-0.001,0.273c-0.038,24.488-0.07,45.18-0.092,59.774
									c-0.026,7.247-0.047,12.978-0.061,16.92c-0.013,1.937-0.023,3.43-0.029,4.464c-0.007,0.488-0.011,0.864-0.015,1.139
									C200.014,155.917,200.009,156.044,200.003,156.038z"/>
							</g>
						</g>
					</g>
					<g>
						<g>
							<path style="fill:#263238;" d="M176.489,89.998c0,0.167-6.573,0.306-14.679,0.312c-8.109,0.006-14.68-0.124-14.68-0.291
								c0-0.166,6.571-0.306,14.68-0.312C169.915,89.702,176.488,89.832,176.489,89.998z"/>
						</g>
					</g>
					<g>
						<g>
							<path style="fill:#263238;" d="M192.372,97.171c0,0.167-10.127,0.309-22.618,0.318c-12.495,0.009-22.62-0.119-22.62-0.285
								c0-0.166,10.125-0.309,22.62-0.318C182.244,96.877,192.372,97.004,192.372,97.171z"/>
						</g>
					</g>
					<g>
						<g>
							<path style="fill:#263238;" d="M192.378,104.665c0,0.167-10.127,0.309-22.618,0.318c-12.495,0.009-22.62-0.119-22.62-0.285
								c0-0.166,10.125-0.309,22.62-0.318C182.25,104.371,192.378,104.499,192.378,104.665z"/>
						</g>
					</g>
					<g>
						<g>
							<path style="fill:#263238;" d="M192.383,112.16c0,0.167-10.127,0.309-22.618,0.318c-12.495,0.009-22.62-0.119-22.62-0.285
								c0-0.166,10.125-0.309,22.62-0.318C182.255,111.866,192.383,111.993,192.383,112.16z"/>
						</g>
					</g>
					<g>
						<g>
							<path style="fill:#263238;" d="M192.389,119.654c0,0.167-10.127,0.309-22.618,0.318c-12.495,0.009-22.62-0.119-22.62-0.285
								c0-0.166,10.125-0.309,22.62-0.318C182.261,119.36,192.389,119.488,192.389,119.654z"/>
						</g>
					</g>
					<g>
						<g>
							<path style="fill:#263238;" d="M192.394,127.149c0,0.167-10.127,0.309-22.618,0.318c-12.495,0.009-22.62-0.119-22.62-0.285
								c0-0.166,10.125-0.309,22.62-0.318C182.266,126.854,192.394,126.982,192.394,127.149z"/>
						</g>
					</g>
					<g>
						<g>
							<path style="fill:#263238;" d="M192.399,134.643c0,0.167-10.127,0.309-22.618,0.318c-12.494,0.009-22.62-0.119-22.62-0.285
								c0-0.166,10.125-0.309,22.62-0.318C182.271,134.349,192.399,134.477,192.399,134.643z"/>
						</g>
					</g>
					<g>
						<g>
							<path style="fill:#263238;" d="M171.483,142.153c0,0.167-5.443,0.305-12.157,0.31c-6.716,0.005-12.158-0.126-12.159-0.293
								c0-0.166,5.442-0.305,12.158-0.31C166.039,141.855,171.482,141.986,171.483,142.153z"/>
						</g>
					</g>
				</g>
			</g>
		</g>
		<g>
			<g>
				<circle style="fill:#E8505B;" cx="194.719" cy="149.777" r="12.272"/>
			</g>
			<g>
				<g>
					<path style="fill:#E0E0E0;" d="M201.758,145.046c0.526,0.491-1.884,3.925-5.382,7.67c-0.563,0.602-1.119,1.176-1.649,1.702
						l-0.849,0.843l-0.844-0.709c-3.053-2.564-5.05-4.762-4.679-5.238c0.37-0.476,2.99,0.921,6.225,3.252l-1.693,0.134
						c0.489-0.565,1.023-1.159,1.586-1.762C197.97,147.194,201.232,144.555,201.758,145.046z"/>
				</g>
			</g>
		</g>
	</g>
	<g>
		<g>
			<g>
				<path style="fill:#263238;" d="M165.194,160.566c-0.144,0-0.26-1.119-0.26-2.5c0-1.381,0.117-2.5,0.26-2.5
					c0.144,0,0.26,1.119,0.26,2.5C165.454,159.447,165.338,160.566,165.194,160.566z"/>
			</g>
		</g>
		<g>
			<g>
				<path style="fill:#263238;" d="M165.194,170.566c-0.144,0-0.26-1.119-0.26-2.5c0-1.381,0.117-2.5,0.26-2.5
					c0.144,0,0.26,1.119,0.26,2.5C165.454,169.447,165.338,170.566,165.194,170.566z"/>
			</g>
		</g>
		<g>
			<g>
				<path style="fill:#263238;" d="M165.194,180.566c-0.144,0-0.26-1.119-0.26-2.5c0-1.381,0.117-2.5,0.26-2.5
					c0.144,0,0.26,1.119,0.26,2.5C165.454,179.447,165.338,180.566,165.194,180.566z"/>
			</g>
		</g>
		<g>
			<g>
				<path style="fill:#263238;" d="M165.194,190.566c-0.144,0-0.26-1.119-0.26-2.5c0-1.381,0.117-2.5,0.26-2.5
					c0.144,0,0.26,1.119,0.26,2.5C165.454,189.447,165.338,190.566,165.194,190.566z"/>
			</g>
		</g>
		<g>
			<g>
				<path style="fill:#263238;" d="M165.194,200.566c-0.144,0-0.26-1.119-0.26-2.5c0-1.381,0.117-2.5,0.26-2.5
					c0.144,0,0.26,1.119,0.26,2.5C165.454,199.447,165.338,200.566,165.194,200.566z"/>
			</g>
		</g>
		<g>
			<g>
				<path style="fill:#263238;" d="M165.194,210.566c-0.144,0-0.26-1.119-0.26-2.5c0-1.381,0.117-2.5,0.26-2.5
					c0.144,0,0.26,1.119,0.26,2.5C165.454,209.447,165.338,210.566,165.194,210.566z"/>
			</g>
		</g>
		<g>
			<g>
				<path style="fill:#263238;" d="M165.194,220.566c-0.144,0-0.26-1.119-0.26-2.5c0-1.381,0.117-2.5,0.26-2.5
					c0.144,0,0.26,1.119,0.26,2.5C165.454,219.447,165.338,220.566,165.194,220.566z"/>
			</g>
		</g>
		<g>
			<g>
				<path style="fill:#263238;" d="M165.194,230.566c-0.144,0-0.26-1.119-0.26-2.5c0-1.381,0.117-2.5,0.26-2.5
					c0.144,0,0.26,1.119,0.26,2.5C165.454,229.447,165.338,230.566,165.194,230.566z"/>
			</g>
		</g>
		<g>
			<g>
				<path style="fill:#263238;" d="M170.019,235.741c0,0.144-1.119,0.26-2.5,0.26c-1.061,0-1.968-0.069-2.325-0.166l-0.111-0.03
					l0.016-0.064c0.029-0.115,0.061-0.175,0.094-0.175c0.033,0,0.065,0.06,0.094,0.175l-0.094-0.094
					c0.357-0.097,1.264-0.166,2.325-0.166C168.9,235.481,170.019,235.597,170.019,235.741z"/>
			</g>
		</g>
		<g>
			<g>
				<path style="fill:#263238;" d="M180.019,235.741c0,0.144-1.119,0.26-2.5,0.26c-1.381,0-2.5-0.117-2.5-0.26
					c0-0.144,1.119-0.26,2.5-0.26C178.9,235.481,180.019,235.597,180.019,235.741z"/>
			</g>
		</g>
		<g>
			<g>
				<path style="fill:#263238;" d="M190.019,235.741c0,0.144-1.119,0.26-2.5,0.26c-1.381,0-2.5-0.117-2.5-0.26
					c0-0.144,1.119-0.26,2.5-0.26C188.9,235.481,190.019,235.597,190.019,235.741z"/>
			</g>
		</g>
		<g>
			<g>
				<path style="fill:#263238;" d="M200.019,235.741c0,0.144-1.119,0.26-2.5,0.26c-1.381,0-2.5-0.117-2.5-0.26
					c0-0.144,1.119-0.26,2.5-0.26C198.9,235.481,200.019,235.597,200.019,235.741z"/>
			</g>
		</g>
		<g>
			<g>
				<path style="fill:#263238;" d="M210.019,235.741c0,0.144-1.119,0.26-2.5,0.26c-1.381,0-2.5-0.117-2.5-0.26
					c0-0.144,1.119-0.26,2.5-0.26C208.9,235.481,210.019,235.597,210.019,235.741z"/>
			</g>
		</g>
	</g>
</g>
<g id="Cloud">
	<g>
		<g>
			<g>
				<path style="fill:#263238;" d="M376.573,145.282c-0.144,0-0.26-1.119-0.26-2.499c0-1.38,0.117-2.499,0.26-2.499
					s0.26,1.119,0.26,2.499C376.833,144.163,376.717,145.282,376.573,145.282z"/>
			</g>
		</g>
		<g>
			<g>
				<path style="fill:#263238;" d="M376.573,155.279c-0.144,0-0.26-1.119-0.26-2.5c0-1.381,0.117-2.5,0.26-2.5s0.26,1.119,0.26,2.5
					C376.833,154.16,376.717,155.279,376.573,155.279z"/>
			</g>
		</g>
		<g>
			<g>
				<path style="fill:#263238;" d="M376.573,165.277c-0.144,0-0.26-1.119-0.26-2.499c0-1.38,0.117-2.499,0.26-2.499
					s0.26,1.119,0.26,2.499C376.833,164.158,376.717,165.277,376.573,165.277z"/>
			</g>
		</g>
		<g>
			<g>
				<path style="fill:#263238;" d="M376.573,175.273c-0.144,0-0.26-1.119-0.26-2.499c0-1.381,0.117-2.499,0.26-2.499
					s0.26,1.119,0.26,2.499C376.833,174.154,376.717,175.273,376.573,175.273z"/>
			</g>
		</g>
		<g>
			<g>
				<path style="fill:#263238;" d="M376.573,185.275c-0.144,0-0.26-1.12-0.26-2.501c0-1.382,0.117-2.501,0.26-2.501
					s0.26,1.12,0.26,2.501C376.833,184.155,376.717,185.275,376.573,185.275z"/>
			</g>
		</g>
		<g>
			<g>
				<path style="fill:#263238;" d="M376.573,195.28c-0.144,0-0.26-1.119-0.26-2.5c0-1.381,0.117-2.5,0.26-2.5s0.26,1.119,0.26,2.5
					C376.833,194.16,376.717,195.28,376.573,195.28z"/>
			</g>
		</g>
		<g>
			<g>
				<path style="fill:#263238;" d="M376.573,205.28c-0.144,0-0.26-1.12-0.26-2.5c0-1.381,0.117-2.5,0.26-2.5s0.26,1.119,0.26,2.5
					C376.833,204.161,376.717,205.28,376.573,205.28z"/>
			</g>
		</g>
		<g>
			<g>
				<path style="fill:#263238;" d="M376.573,215.285c-0.144,0-0.26-1.12-0.26-2.502c0-1.382,0.117-2.502,0.26-2.502
					s0.26,1.12,0.26,2.502C376.833,214.165,376.717,215.285,376.573,215.285z"/>
			</g>
		</g>
	</g>
	<g>
		<g>
			<g>
				<g>
					<path style="fill:#E8505B;" d="M444.484,151.699c0,0-0.194,0.016-0.59,0.023c-0.419,0.005-1.006,0.013-1.77,0.023
						c-1.589,0.011-3.9,0.026-6.89,0.046c-6.05,0.021-14.828,0.052-25.843,0.091c-22.125,0.034-53.219,0.083-89.192,0.138l-0.241,0
						l-0.068-0.232c-1.846-6.303-0.718-13.688,3.409-19.336c4.114-5.632,11.18-9.221,18.459-9.034l-0.33,0.426
						c-0.534-1.842-0.784-3.918-0.69-5.988c0.275-6.894,4.195-13.554,10.213-16.637c5.939-3.136,13.271-3.02,18.898,0.102
						l-0.461,0.163c3.206-7.821,9.97-13.493,17.309-16.121c7.361-2.675,15.524-2.323,21.942,1.034
						c6.451,3.305,11.042,8.934,13.584,14.84c2.61,5.939,2.97,12.316,1.671,17.793l-0.249-0.283
						c3.689-0.408,7.259,0.225,10.325,1.48c3.072,1.259,5.68,3.107,7.66,5.249c0.985,1.067,1.839,2.224,2.412,3.458
						c0.571,1.23,0.996,2.465,1.284,3.674c0.594,2.416,0.806,4.682,0.879,6.71c0.13,4.067-0.361,7.201-0.804,9.276
						c-0.24,1.037-0.447,1.816-0.64,2.338C444.582,151.454,444.484,151.699,444.484,151.699"/>
				</g>
			</g>
		</g>
		<g>
			<g>
				<g>
					<g>
						<path style="fill:#E0E0E0;" d="M433.169,117.448h-3.851V94.285c0-5.563-4.526-10.089-10.089-10.089
							c-5.563,0-10.089,4.526-10.089,10.089v23.163h-3.851V94.285c0-7.687,6.254-13.94,13.941-13.94s13.94,6.254,13.94,13.94
							V117.448z"/>
					</g>
				</g>
				<g>
					<g>
						<path style="fill:#E0E0E0;" d="M434.896,131.6h-31.334c-1.873,0-3.392-1.519-3.392-3.392v-17.672
							c0-1.873,1.519-3.392,3.392-3.392h31.334c1.873,0,3.392,1.519,3.392,3.392v17.672
							C438.288,130.081,436.769,131.6,434.896,131.6z"/>
					</g>
				</g>
				<g>
					<g>
						<g>
							<path style="fill:#455A64;" d="M419.229,119.372c-1.76,0-3.186-1.426-3.186-3.186c0-1.76,1.426-3.186,3.186-3.186
								c1.76,0,3.186,1.426,3.186,3.186C422.415,117.946,420.988,119.372,419.229,119.372"/>
						</g>
					</g>
					<g>
						<g>
							<rect x="418.359" y="117.448" style="fill:#455A64;" width="1.738" height="6.552"/>
						</g>
					</g>
				</g>
			</g>
		</g>
	</g>
</g>
<g id="Key">
	<g>
		<g>
			<g>
				<path style="fill:#263238;" d="M653.613,109.763c8.421-7.857,8.879-21.053,1.022-29.475c-7.857-8.421-21.053-8.879-29.475-1.022
					c-7.203,6.72-8.574,17.345-3.905,25.548l-4.243,3.959l1.014,7.043l-6.585-1.846l-5.309,4.953l1.014,7.043l-6.585-1.846
					l-4.563,4.257l0.618,4.292l-4.013-1.125l-2.656,2.478l-0.398,6.523l9.729,2.449l31.567-29.451
					C638.271,116.874,647.288,115.663,653.613,109.763z M650.53,84.119c2.254,2.416,2.122,6.201-0.293,8.455
					c-2.416,2.254-6.201,2.122-8.455-0.293c-2.254-2.416-2.122-6.201,0.293-8.455C644.49,81.572,648.276,81.703,650.53,84.119z"/>
			</g>
			<g>
				<g>
					<path style="fill:none;" d="M653.613,109.763c8.421-7.857,8.879-21.053,1.022-29.475c-7.857-8.421-21.053-8.879-29.475-1.022
						c-7.203,6.72-8.574,17.345-3.905,25.548l-4.243,3.959l1.014,7.043l-6.585-1.846l-5.309,4.953l1.014,7.043l-6.585-1.846
						l-4.563,4.257l0.618,4.292l-4.013-1.125l-2.656,2.478l-0.398,6.523l9.729,2.449l31.567-29.451
						C638.271,116.874,647.288,115.663,653.613,109.763z M650.53,84.119c2.254,2.416,2.122,6.201-0.293,8.455
						c-2.416,2.254-6.201,2.122-8.455-0.293c-2.254-2.416-2.122-6.201,0.293-8.455C644.49,81.572,648.276,81.703,650.53,84.119z"/>
				</g>
				<g>
					<g>
						<path style="fill:#263238;" d="M650.53,84.119c-0.038,0.039-0.391-0.364-1.188-0.855c-0.784-0.48-2.111-1.012-3.765-0.827
							c-1.623,0.153-3.553,1.195-4.53,3.154c-1.008,1.901-0.815,4.681,0.925,6.512c1.706,1.863,4.466,2.249,6.433,1.375
							c2.022-0.839,3.195-2.692,3.46-4.301c0.299-1.637-0.139-2.998-0.564-3.813C650.866,84.534,650.488,84.154,650.53,84.119
							c0.013-0.012,0.111,0.076,0.286,0.259c0.179,0.178,0.415,0.473,0.662,0.888c0.494,0.812,1.019,2.223,0.75,3.973
							c-0.233,1.718-1.452,3.745-3.635,4.681c-1.067,0.469-2.342,0.646-3.595,0.403c-1.258-0.219-2.476-0.882-3.407-1.865
							c-0.915-0.997-1.492-2.257-1.623-3.527c-0.155-1.266,0.11-2.526,0.652-3.558c1.085-2.112,3.191-3.188,4.921-3.302
							c1.764-0.148,3.136,0.474,3.911,1.023c0.397,0.275,0.674,0.531,0.84,0.722C650.461,84.003,650.543,84.106,650.53,84.119z"/>
					</g>
				</g>
				<g>
					<g>
						<path style="fill:#263238;" d="M653.613,109.763c0,0-0.096,0.103-0.3,0.288c-0.22,0.196-0.523,0.466-0.918,0.819
							c-0.858,0.658-2.142,1.653-4.036,2.565c-1.886,0.904-4.381,1.74-7.411,1.992c-3.016,0.226-6.587-0.159-10.167-1.739
							l0.172-0.029c-8.137,7.618-18.961,17.753-31.515,29.507l-0.093,0.087l-0.124-0.031c-3.054-0.766-6.354-1.593-9.731-2.439
							l-0.196-0.049l0.012-0.202c0.122-2.034,0.257-4.264,0.393-6.523l0.006-0.099l0.073-0.068c0.824-0.77,1.736-1.622,2.654-2.48
							l0.103-0.096l0.136,0.038c1.25,0.35,2.627,0.735,4.013,1.122l-0.319,0.28c-0.193-1.34-0.406-2.811-0.62-4.292l-0.019-0.132
							l0.098-0.091c1.434-1.339,2.991-2.792,4.561-4.259l0.106-0.099l0.14,0.039c2.079,0.582,4.322,1.21,6.585,1.844l-0.327,0.287
							c-0.322-2.232-0.667-4.629-1.014-7.043l-0.019-0.135l0.1-0.093c0.444-0.414,0.925-0.863,1.407-1.313
							c1.308-1.22,2.609-2.434,3.902-3.64l0.107-0.1l0.141,0.039c2.214,0.621,4.409,1.237,6.584,1.847l-0.326,0.286
							c-0.341-2.372-0.678-4.721-1.011-7.043l-0.019-0.133l0.098-0.092c1.429-1.332,2.844-2.651,4.244-3.957l-0.047,0.312
							c-1.643-2.953-2.589-6.229-2.711-9.495c-0.068-1.629,0.029-3.255,0.345-4.825c0.271-1.579,0.776-3.094,1.389-4.536
							c2.501-5.793,7.549-9.964,12.964-11.641c5.444-1.728,11.153-1.036,15.611,1.179c4.525,2.184,7.731,5.855,9.599,9.589
							c1.825,3.793,2.359,7.667,2.051,10.945c-0.271,3.296-1.259,6.009-2.34,8.03c-0.133,0.255-0.262,0.502-0.388,0.742
							c-0.147,0.227-0.29,0.448-0.429,0.661c-0.284,0.422-0.52,0.836-0.791,1.183c-0.563,0.678-0.995,1.287-1.42,1.711
							c-0.415,0.414-0.734,0.733-0.964,0.962C653.732,109.662,653.613,109.763,653.613,109.763s0.098-0.123,0.305-0.348
							c0.221-0.236,0.529-0.564,0.928-0.991c0.412-0.432,0.831-1.047,1.378-1.729c0.263-0.349,0.492-0.765,0.768-1.187
							c0.135-0.214,0.273-0.434,0.417-0.662c0.121-0.24,0.247-0.487,0.375-0.741c1.047-2.016,1.998-4.71,2.241-7.968
							c0.28-3.241-0.274-7.056-2.089-10.779c-1.858-3.664-5.027-7.259-9.476-9.383c-4.383-2.157-9.981-2.814-15.305-1.108
							c-5.294,1.656-10.223,5.748-12.655,11.411c-0.596,1.409-1.087,2.89-1.349,4.433c-0.307,1.534-0.399,3.123-0.331,4.713
							c0.123,3.189,1.051,6.385,2.656,9.265l0.098,0.176l-0.146,0.136c-1.399,1.306-2.813,2.627-4.241,3.96l0.079-0.224
							c0.335,2.322,0.674,4.671,1.016,7.043l0.057,0.394l-0.383-0.107c-2.175-0.609-4.37-1.224-6.585-1.844l0.247-0.06
							c-1.292,1.206-2.593,2.42-3.901,3.64c-0.482,0.45-0.963,0.898-1.407,1.313l0.08-0.227c0.347,2.414,0.692,4.81,1.013,7.043
							l0.057,0.395l-0.384-0.108c-2.262-0.635-4.506-1.264-6.584-1.847l0.245-0.06c-1.572,1.465-3.13,2.918-4.565,4.256l0.079-0.223
							c0.213,1.481,0.423,2.952,0.616,4.293l0.055,0.386l-0.375-0.105c-1.386-0.389-2.762-0.776-4.012-1.127l0.239-0.058
							c-0.919,0.857-1.833,1.708-2.658,2.476l0.079-0.167c-0.139,2.259-0.277,4.489-0.403,6.522l-0.184-0.251
							c3.375,0.853,6.674,1.686,9.726,2.458l-0.217,0.056c12.596-11.709,23.456-21.805,31.62-29.394l0.077-0.071l0.095,0.043
							c3.517,1.576,7.037,1.981,10.02,1.782c2.997-0.224,5.475-1.027,7.357-1.9c1.89-0.881,3.182-1.847,4.054-2.481
							c0.406-0.337,0.718-0.596,0.943-0.784C653.497,109.844,653.613,109.763,653.613,109.763z"/>
					</g>
				</g>
			</g>
		</g>
		<g>
			<g>
				<path style="fill:#E0E0E0;" d="M652.914,107.396c8.421-7.857,8.879-21.053,1.022-29.475c-7.857-8.421-21.053-8.879-29.474-1.022
					c-7.203,6.72-8.574,17.345-3.905,25.549l-0.006,0.005l-4.237,3.953l1.014,7.043l-6.585-1.846l-5.309,4.953l1.014,7.043
					l-6.585-1.846l-4.563,4.257l0.618,4.292l-4.013-1.125l-2.656,2.478l-0.398,6.523l9.729,2.448l31.567-29.451
					C637.573,114.507,646.59,113.297,652.914,107.396z M649.831,81.752c2.254,2.416,2.122,6.201-0.293,8.455
					c-2.416,2.254-6.201,2.122-8.455-0.293c-2.254-2.416-2.122-6.201,0.293-8.455C643.792,79.205,647.577,79.336,649.831,81.752z"/>
			</g>
			<g>
				<g>
					<path style="fill:none;" d="M652.914,107.396c8.421-7.857,8.879-21.053,1.022-29.475c-7.857-8.421-21.053-8.879-29.474-1.022
						c-7.203,6.72-8.574,17.345-3.905,25.549l-0.006,0.005l-4.237,3.953l1.014,7.043l-6.585-1.846l-5.309,4.953l1.014,7.043
						l-6.585-1.846l-4.563,4.257l0.618,4.292l-4.013-1.125l-2.656,2.478l-0.398,6.523l9.729,2.448l31.567-29.451
						C637.573,114.507,646.59,113.297,652.914,107.396z M649.831,81.752c2.254,2.416,2.122,6.201-0.293,8.455
						c-2.416,2.254-6.201,2.122-8.455-0.293c-2.254-2.416-2.122-6.201,0.293-8.455C643.792,79.205,647.577,79.336,649.831,81.752z"
						/>
				</g>
				<g>
					<g>
						<path style="fill:#263238;" d="M649.831,81.752c-0.038,0.039-0.391-0.364-1.188-0.855c-0.784-0.48-2.111-1.012-3.765-0.827
							c-1.623,0.153-3.553,1.195-4.53,3.154c-1.008,1.901-0.815,4.68,0.925,6.512c1.706,1.863,4.466,2.249,6.433,1.375
							c2.022-0.839,3.195-2.692,3.46-4.301c0.299-1.637-0.139-2.998-0.564-3.813C650.167,82.167,649.789,81.787,649.831,81.752
							c0.013-0.012,0.111,0.076,0.286,0.258c0.179,0.178,0.415,0.473,0.662,0.888c0.494,0.812,1.019,2.223,0.749,3.973
							c-0.233,1.718-1.452,3.745-3.635,4.681c-1.067,0.469-2.342,0.646-3.595,0.403c-1.258-0.219-2.476-0.882-3.407-1.865
							c-0.915-0.997-1.492-2.257-1.623-3.527c-0.155-1.266,0.11-2.526,0.651-3.558c1.085-2.112,3.191-3.188,4.921-3.302
							c1.764-0.148,3.136,0.474,3.911,1.023c0.397,0.275,0.674,0.531,0.84,0.722C649.763,81.636,649.844,81.74,649.831,81.752z"/>
					</g>
				</g>
				<g>
					<g>
						<path style="fill:#263238;" d="M652.914,107.396c0,0-0.096,0.102-0.3,0.288c-0.22,0.196-0.523,0.466-0.918,0.819
							c-0.858,0.658-2.142,1.653-4.036,2.565c-1.886,0.904-4.381,1.74-7.411,1.992c-3.016,0.226-6.587-0.159-10.167-1.739
							l0.172-0.028c-8.137,7.618-18.961,17.753-31.514,29.507l-0.093,0.087l-0.124-0.031c-3.054-0.766-6.354-1.593-9.731-2.439
							l-0.196-0.049l0.012-0.202c0.122-2.034,0.257-4.264,0.393-6.523l0.006-0.099l0.073-0.068c0.824-0.77,1.736-1.622,2.654-2.479
							l0.103-0.096l0.136,0.038c1.25,0.35,2.627,0.735,4.013,1.122l-0.319,0.28c-0.193-1.34-0.406-2.811-0.62-4.292l-0.019-0.132
							l0.098-0.091c1.434-1.339,2.991-2.792,4.562-4.259l0.106-0.099l0.14,0.039c2.079,0.582,4.322,1.21,6.585,1.844l-0.327,0.287
							c-0.322-2.232-0.667-4.629-1.014-7.043l-0.019-0.135l0.1-0.093c0.444-0.414,0.925-0.863,1.407-1.313
							c1.308-1.22,2.609-2.434,3.902-3.64l0.107-0.1l0.141,0.04c2.214,0.621,4.409,1.236,6.584,1.846l-0.326,0.286
							c-0.341-2.372-0.678-4.721-1.011-7.043l-0.019-0.133l0.098-0.092c1.429-1.332,2.844-2.651,4.245-3.957l-0.047,0.312
							c-1.643-2.953-2.589-6.229-2.711-9.495c-0.068-1.629,0.029-3.255,0.345-4.825c0.271-1.579,0.776-3.094,1.389-4.536
							c2.501-5.793,7.549-9.964,12.964-11.641c5.444-1.728,11.153-1.036,15.611,1.179c4.525,2.184,7.731,5.855,9.599,9.589
							c1.825,3.793,2.359,7.667,2.051,10.945c-0.271,3.296-1.259,6.009-2.34,8.03c-0.133,0.255-0.262,0.502-0.388,0.742
							c-0.147,0.227-0.29,0.448-0.429,0.661c-0.284,0.422-0.52,0.836-0.791,1.183c-0.563,0.678-0.995,1.287-1.42,1.711
							c-0.415,0.414-0.734,0.733-0.964,0.963C653.033,107.295,652.914,107.396,652.914,107.396s0.098-0.123,0.305-0.348
							c0.221-0.236,0.529-0.564,0.928-0.991c0.412-0.432,0.831-1.047,1.378-1.729c0.263-0.349,0.492-0.765,0.768-1.187
							c0.134-0.214,0.273-0.434,0.416-0.662c0.122-0.24,0.247-0.487,0.375-0.741c1.047-2.016,1.998-4.71,2.241-7.968
							c0.28-3.241-0.274-7.056-2.089-10.779c-1.859-3.665-5.027-7.259-9.476-9.383c-4.383-2.157-9.981-2.814-15.305-1.109
							c-5.295,1.656-10.223,5.748-12.655,11.411c-0.596,1.409-1.088,2.89-1.349,4.433c-0.307,1.534-0.399,3.123-0.331,4.713
							c0.123,3.189,1.051,6.385,2.656,9.265l0.098,0.176l-0.146,0.136c-1.399,1.306-2.813,2.627-4.241,3.96l0.079-0.224
							c0.335,2.322,0.674,4.671,1.016,7.043l0.057,0.394l-0.383-0.107c-2.175-0.609-4.37-1.224-6.585-1.844l0.247-0.06
							c-1.292,1.206-2.593,2.42-3.901,3.64c-0.482,0.45-0.963,0.899-1.407,1.313l0.08-0.227c0.347,2.414,0.692,4.81,1.013,7.043
							l0.057,0.395l-0.384-0.108c-2.262-0.635-4.506-1.264-6.584-1.847l0.245-0.06c-1.572,1.465-3.13,2.918-4.565,4.256l0.079-0.223
							c0.213,1.481,0.423,2.952,0.616,4.293l0.055,0.386l-0.375-0.105c-1.386-0.389-2.762-0.776-4.012-1.127l0.239-0.058
							c-0.919,0.857-1.833,1.707-2.658,2.476l0.079-0.167c-0.139,2.259-0.277,4.489-0.403,6.522l-0.184-0.251
							c3.375,0.853,6.674,1.686,9.726,2.458l-0.217,0.056c12.596-11.709,23.456-21.805,31.62-29.394l0.077-0.071l0.095,0.043
							c3.517,1.576,7.037,1.981,10.02,1.782c2.997-0.224,5.475-1.027,7.357-1.9c1.89-0.881,3.182-1.847,4.054-2.481
							c0.406-0.337,0.718-0.596,0.943-0.783C652.798,107.477,652.914,107.396,652.914,107.396z"/>
					</g>
				</g>
			</g>
		</g>
		<g>
			<g>
				<path style="fill:#263238;" d="M650.999,105.769c-0.071-0.062,1.22-1.093,2.801-3.533c0.807-1.205,1.569-2.83,2.144-4.801
					c0.564-1.971,0.868-4.334,0.596-6.905c-0.279-2.556-1.092-5.346-2.749-7.894c-1.657-2.52-4.015-4.908-7.082-6.413
					c-1.505-0.794-3.18-1.351-4.93-1.665c-0.872-0.193-1.773-0.232-2.678-0.309c-0.908,0.015-1.827-0.002-2.745,0.136
					c-3.686,0.393-7.328,2.073-10.223,4.724c-2.847,2.704-4.777,6.222-5.425,9.873c-0.202,0.906-0.248,1.824-0.326,2.729
					c0.015,0.908-0.01,1.81,0.123,2.694c0.192,1.769,0.632,3.478,1.32,5.035c1.289,3.165,3.508,5.682,5.907,7.51
					c2.427,1.83,5.154,2.835,7.685,3.289c2.546,0.45,4.924,0.31,6.929-0.116c2.005-0.437,3.68-1.085,4.937-1.807
					C649.825,106.911,650.942,105.694,650.999,105.769c0.006,0.007-0.065,0.078-0.21,0.212c-0.169,0.151-0.384,0.343-0.653,0.584
					c-0.283,0.262-0.647,0.571-1.119,0.881c-0.46,0.326-0.984,0.715-1.638,1.05c-1.256,0.757-2.942,1.442-4.974,1.914
					c-2.032,0.46-4.451,0.63-7.053,0.195c-2.586-0.44-5.383-1.447-7.879-3.305c-2.468-1.855-4.755-4.426-6.093-7.67
					c-0.712-1.596-1.17-3.35-1.372-5.167c-0.138-0.907-0.117-1.834-0.133-2.768c0.077-0.93,0.124-1.874,0.329-2.806
					c0.659-3.754,2.642-7.379,5.571-10.159c2.976-2.728,6.729-4.453,10.519-4.85c0.943-0.14,1.888-0.121,2.821-0.133
					c0.93,0.08,1.856,0.124,2.751,0.324c1.798,0.328,3.516,0.906,5.058,1.727c3.143,1.559,5.549,4.018,7.229,6.609
					c1.681,2.619,2.491,5.479,2.751,8.089c0.254,2.625-0.083,5.028-0.682,7.023c-0.611,1.994-1.412,3.628-2.253,4.83
					c-0.379,0.63-0.804,1.125-1.161,1.562c-0.342,0.449-0.675,0.791-0.957,1.055c-0.259,0.252-0.465,0.453-0.628,0.611
					C651.082,105.71,651.005,105.776,650.999,105.769z"/>
			</g>
		</g>
		<g>
			<g>
				<path style="fill:#263238;" d="M650.152,90.971c-0.042-0.04,0.436-0.449,1.017-1.384c0.569-0.918,1.2-2.478,0.986-4.427
					c-0.112-0.96-0.424-2.004-1.05-2.955c-0.626-0.941-1.512-1.831-2.66-2.389c-1.129-0.577-2.498-0.854-3.87-0.678
					c-1.376,0.149-2.733,0.777-3.814,1.766c-1.062,1.01-1.784,2.32-2.027,3.683c-0.271,1.356-0.09,2.742,0.408,3.908
					c0.478,1.184,1.304,2.13,2.199,2.82c0.906,0.69,1.926,1.074,2.876,1.252c1.929,0.349,3.529-0.173,4.484-0.677
					C649.673,91.374,650.115,90.927,650.152,90.971c0.012,0.013-0.094,0.125-0.309,0.329c-0.211,0.207-0.557,0.481-1.044,0.767
					c-0.952,0.573-2.602,1.181-4.644,0.863c-1.005-0.164-2.095-0.549-3.07-1.267c-0.964-0.717-1.859-1.716-2.385-2.979
					c-0.546-1.244-0.751-2.731-0.468-4.19c0.255-1.466,1.029-2.884,2.173-3.97c1.162-1.066,2.63-1.739,4.11-1.892
					c1.476-0.181,2.944,0.127,4.147,0.757c1.224,0.612,2.158,1.574,2.807,2.585c0.649,1.023,0.958,2.137,1.052,3.15
					c0.176,2.059-0.545,3.663-1.182,4.573c-0.319,0.466-0.617,0.792-0.838,0.988C650.283,90.886,650.164,90.984,650.152,90.971z"/>
			</g>
		</g>
		<g>
			<g>
				<path style="fill:#263238;" d="M596.029,139.473c-0.098-0.105,7.01-6.896,15.875-15.167
					c8.868-8.273,16.134-14.893,16.232-14.788c0.098,0.105-7.009,6.895-15.877,15.168
					C603.395,132.958,596.128,139.579,596.029,139.473z"/>
			</g>
		</g>
	</g>
	<g>
		<g>
			<g>
				<path style="fill:#263238;" d="M565.313,229.811c0,0.144-1.119,0.26-2.5,0.26c-1.381,0-2.5-0.117-2.5-0.26
					c0-0.144,1.119-0.26,2.5-0.26C564.194,229.55,565.313,229.667,565.313,229.811z"/>
			</g>
		</g>
		<g>
			<g>
				<path style="fill:#263238;" d="M575.313,229.811c0,0.144-1.119,0.26-2.5,0.26c-1.381,0-2.5-0.117-2.5-0.26
					c0-0.144,1.119-0.26,2.5-0.26C574.194,229.55,575.313,229.667,575.313,229.811z"/>
			</g>
		</g>
		<g>
			<g>
				<path style="fill:#263238;" d="M585.313,229.811c0,0.144-1.119,0.26-2.5,0.26c-1.381,0-2.5-0.117-2.5-0.26
					c0-0.144,1.119-0.26,2.5-0.26C584.194,229.55,585.313,229.667,585.313,229.811z"/>
			</g>
		</g>
		<g>
			<g>
				<path style="fill:#263238;" d="M595.313,229.811c0,0.144-1.119,0.26-2.5,0.26c-1.381,0-2.5-0.117-2.5-0.26
					c0-0.144,1.119-0.26,2.5-0.26C594.194,229.55,595.313,229.667,595.313,229.811z"/>
			</g>
		</g>
		<g>
			<g>
				<path style="fill:#263238;" d="M605.313,229.811c0,0.144-1.119,0.26-2.5,0.26c-1.381,0-2.5-0.117-2.5-0.26
					c0-0.144,1.119-0.26,2.5-0.26C604.194,229.55,605.313,229.667,605.313,229.811z"/>
			</g>
		</g>
		<g>
			<g>
				<path style="fill:#263238;" d="M615.313,229.811c0,0.144-1.119,0.26-2.5,0.26c-1.381,0-2.5-0.117-2.5-0.26
					c0-0.144,1.119-0.26,2.5-0.26C614.194,229.55,615.313,229.667,615.313,229.811z"/>
			</g>
		</g>
		<g>
			<g>
				<path style="fill:#263238;" d="M623.797,228.295c0.107,0,0.2,0.624,0.239,1.515l0.01,0.228l-0.25,0.011
					c-0.302,0.014-0.635,0.021-0.984,0.021c-1.381,0-2.5-0.117-2.5-0.26c0-0.144,1.119-0.26,2.5-0.26
					c0.35,0,0.683,0.008,0.984,0.021l-0.239,0.239C623.598,228.919,623.69,228.295,623.797,228.295z"/>
			</g>
		</g>
		<g>
			<g>
				<path style="fill:#263238;" d="M623.797,218.295c0.144,0,0.26,1.119,0.26,2.5c0,1.381-0.117,2.5-0.26,2.5s-0.26-1.119-0.26-2.5
					C623.537,219.415,623.654,218.295,623.797,218.295z"/>
			</g>
		</g>
		<g>
			<g>
				<path style="fill:#263238;" d="M623.797,208.295c0.144,0,0.26,1.119,0.26,2.5c0,1.381-0.117,2.5-0.26,2.5s-0.26-1.119-0.26-2.5
					C623.537,209.415,623.654,208.295,623.797,208.295z"/>
			</g>
		</g>
		<g>
			<g>
				<path style="fill:#263238;" d="M623.797,198.295c0.144,0,0.26,1.119,0.26,2.5c0,1.381-0.117,2.5-0.26,2.5s-0.26-1.119-0.26-2.5
					C623.537,199.415,623.654,198.295,623.797,198.295z"/>
			</g>
		</g>
		<g>
			<g>
				<path style="fill:#263238;" d="M623.797,188.295c0.144,0,0.26,1.119,0.26,2.5c0,1.381-0.117,2.5-0.26,2.5s-0.26-1.119-0.26-2.5
					C623.537,189.415,623.654,188.295,623.797,188.295z"/>
			</g>
		</g>
		<g>
			<g>
				<path style="fill:#263238;" d="M623.797,178.295c0.144,0,0.26,1.119,0.26,2.5c0,1.381-0.117,2.5-0.26,2.5s-0.26-1.119-0.26-2.5
					C623.537,179.415,623.654,178.295,623.797,178.295z"/>
			</g>
		</g>
		<g>
			<g>
				<path style="fill:#263238;" d="M623.797,168.295c0.144,0,0.26,1.119,0.26,2.5c0,1.381-0.117,2.5-0.26,2.5s-0.26-1.119-0.26-2.5
					C623.537,169.415,623.654,168.295,623.797,168.295z"/>
			</g>
		</g>
		<g>
			<g>
				<path style="fill:#263238;" d="M623.797,158.295c0.144,0,0.26,1.119,0.26,2.5c0,1.381-0.117,2.5-0.26,2.5s-0.26-1.119-0.26-2.5
					C623.537,159.415,623.654,158.295,623.797,158.295z"/>
			</g>
		</g>
		<g>
			<g>
				<path style="fill:#263238;" d="M623.797,148.295c0.144,0,0.26,1.119,0.26,2.5c0,1.381-0.117,2.5-0.26,2.5s-0.26-1.119-0.26-2.5
					C623.537,149.415,623.654,148.295,623.797,148.295z"/>
			</g>
		</g>
		<g>
			<g>
				<path style="fill:#263238;" d="M623.797,138.295c0.144,0,0.26,1.119,0.26,2.5c0,1.381-0.117,2.5-0.26,2.5s-0.26-1.119-0.26-2.5
					C623.537,139.415,623.654,138.295,623.797,138.295z"/>
			</g>
		</g>
		<g>
			<g>
				<path style="fill:#263238;" d="M623.797,128.295c0.144,0,0.26,1.119,0.26,2.5c0,1.381-0.117,2.5-0.26,2.5s-0.26-1.119-0.26-2.5
					C623.537,129.415,623.654,128.295,623.797,128.295z"/>
			</g>
		</g>
	</g>
</g>
<g id="Folder">
	<g>
		<g>
			<g>
				<path style="fill:#263238;" d="M548.82,329.484c0,0.144-1.119,0.26-2.5,0.26c-1.381,0-2.5-0.117-2.5-0.26s1.119-0.26,2.5-0.26
					C547.701,329.224,548.82,329.34,548.82,329.484z"/>
			</g>
		</g>
		<g>
			<g>
				<path style="fill:#263238;" d="M558.82,329.484c0,0.144-1.119,0.26-2.5,0.26c-1.381,0-2.5-0.117-2.5-0.26s1.119-0.26,2.5-0.26
					C557.701,329.224,558.82,329.34,558.82,329.484z"/>
			</g>
		</g>
		<g>
			<g>
				<path style="fill:#263238;" d="M568.82,329.484c0,0.144-1.119,0.26-2.5,0.26c-1.381,0-2.5-0.117-2.5-0.26s1.119-0.26,2.5-0.26
					C567.701,329.224,568.82,329.34,568.82,329.484z"/>
			</g>
		</g>
		<g>
			<g>
				<path style="fill:#263238;" d="M578.82,329.484c0,0.144-1.119,0.26-2.5,0.26c-1.381,0-2.5-0.117-2.5-0.26s1.119-0.26,2.5-0.26
					C577.701,329.224,578.82,329.34,578.82,329.484z"/>
			</g>
		</g>
		<g>
			<g>
				<path style="fill:#263238;" d="M588.82,329.484c0,0.144-1.119,0.26-2.5,0.26c-1.381,0-2.5-0.117-2.5-0.26s1.119-0.26,2.5-0.26
					C587.701,329.224,588.82,329.34,588.82,329.484z"/>
			</g>
		</g>
		<g>
			<g>
				<path style="fill:#263238;" d="M598.82,329.484c0,0.144-1.119,0.26-2.5,0.26c-1.381,0-2.5-0.117-2.5-0.26s1.119-0.26,2.5-0.26
					C597.701,329.224,598.82,329.34,598.82,329.484z"/>
			</g>
		</g>
		<g>
			<g>
				<path style="fill:#263238;" d="M608.82,329.484c0,0.144-1.119,0.26-2.5,0.26c-1.381,0-2.5-0.117-2.5-0.26s1.119-0.26,2.5-0.26
					C607.701,329.224,608.82,329.34,608.82,329.484z"/>
			</g>
		</g>
		<g>
			<g>
				<path style="fill:#263238;" d="M618.82,329.484c0,0.144-1.119,0.26-2.5,0.26c-1.381,0-2.5-0.117-2.5-0.26s1.119-0.26,2.5-0.26
					C617.701,329.224,618.82,329.34,618.82,329.484z"/>
			</g>
		</g>
		<g>
			<g>
				<path style="fill:#263238;" d="M628.82,329.484c0,0.144-1.119,0.26-2.5,0.26c-1.381,0-2.5-0.117-2.5-0.26s1.119-0.26,2.5-0.26
					C627.701,329.224,628.82,329.34,628.82,329.484z"/>
			</g>
		</g>
		<g>
			<g>
				<path style="fill:#263238;" d="M638.82,329.484c0,0.144-1.119,0.26-2.5,0.26c-1.381,0-2.5-0.117-2.5-0.26s1.119-0.26,2.5-0.26
					C637.701,329.224,638.82,329.34,638.82,329.484z"/>
			</g>
		</g>
		<g>
			<g>
				<path style="fill:#263238;" d="M647.893,328.548c0.082,0.001,0.151,0.364,0.193,0.938l0.013,0.182l-0.216,0.019
					c-0.422,0.036-0.969,0.058-1.564,0.058c-1.381,0-2.5-0.117-2.5-0.26s1.119-0.26,2.5-0.26c0.595,0,1.142,0.022,1.564,0.058
					l-0.202,0.2C647.735,328.909,647.811,328.547,647.893,328.548z"/>
			</g>
		</g>
		<g>
			<g>
				<path style="fill:#263238;" d="M647.992,318.548c0.144,0.001,0.249,1.122,0.236,2.502c-0.014,1.381-0.141,2.499-0.285,2.497
					c-0.144-0.001-0.249-1.122-0.236-2.503C647.721,319.665,647.849,318.547,647.992,318.548z"/>
			</g>
		</g>
		<g>
			<g>
				<path style="fill:#263238;" d="M648.091,308.549c0.144,0.001,0.249,1.122,0.236,2.502c-0.014,1.381-0.141,2.499-0.285,2.497
					c-0.144-0.001-0.249-1.122-0.236-2.503C647.82,309.666,647.947,308.547,648.091,308.549z"/>
			</g>
		</g>
		<g>
			<g>
				<path style="fill:#263238;" d="M648.19,298.549c0.144,0.001,0.249,1.122,0.236,2.502c-0.014,1.381-0.141,2.499-0.285,2.497
					s-0.249-1.122-0.236-2.503C647.919,299.666,648.046,298.548,648.19,298.549z"/>
			</g>
		</g>
	</g>
	<g>
		<g>
			<path style="fill:#E8505B;" d="M615.098,267.21l1.837,33.794c0.065,1.204,1.056,2.149,2.262,2.158l60.811,0.446
				c1.26,0.009,2.289-1.005,2.298-2.265l0.193-26.305c0.009-1.266-1.014-2.297-2.279-2.298l-37.4-0.033
				c-0.604-0.001-1.184-0.241-1.611-0.668l-6.453-6.45c-0.424-0.424-0.997-0.664-1.596-0.668l-15.766-0.115
				C616.078,264.795,615.026,265.896,615.098,267.21z"/>
		</g>
		<g>
			
				<rect x="615.955" y="268.52" transform="matrix(1 0.0073 -0.0073 1 2.1297 -4.7473)" style="fill:#F5F5F5;" width="66.446" height="39.705"/>
		</g>
		<g>
			<path style="fill:#E8505B;" d="M610.79,271.801l4.77,41.441c0.085,0.736,0.706,1.294,1.447,1.299l64.754,0.474
				c0.766,0.006,1.407-0.578,1.473-1.341l3.563-41.38c0.073-0.852-0.595-1.587-1.451-1.593l-73.087-0.535
				C611.377,270.159,610.689,270.925,610.79,271.801z"/>
		</g>
	</g>
</g>
<g id="Device">
	<g>
		<g>
			<g>
				<g>
					<g>
						<g>
							<g>
								<path style="fill:#263238;" d="M556.529,447.974H221.83c-8.045,0-14.567-6.522-14.567-14.567V221.942
									c0-8.045,6.522-14.567,14.567-14.567h334.699c8.045,0,14.567,6.522,14.567,14.567v211.465
									C571.096,441.452,564.574,447.974,556.529,447.974z"/>
							</g>
						</g>
					</g>
					<g>
						<g>
							<g>
								<path style="fill:#263238;" d="M568.436,451.232H209.845c-9.829,0-17.798-7.968-17.798-17.798v-3.255h394.186v3.255
									C586.234,443.263,578.266,451.232,568.436,451.232z"/>
							</g>
						</g>
					</g>
					<g>
						<g>
							<g>
								<rect x="217.029" y="216.934" style="fill:#455A64;" width="343.284" height="203.183"/>
							</g>
						</g>
					</g>
					<g>
						<g>
							<g>
								<polygon style="fill:#455A64;" points="353.313,430.179 358.205,437.96 427.034,437.96 431.577,430.179 								"/>
							</g>
						</g>
					</g>
				</g>
				<g>
					<g>
						<g>
							<g>
								<g>
									<g>
										<g>
											<path style="fill:#EBEBEB;" d="M550.676,419.466H227.373c-1.808,0-3.273-1.466-3.273-3.273V227.085
												c0-1.807,1.465-3.273,3.273-3.273h323.303c1.807,0,3.273,1.465,3.273,3.273v189.109
												C553.948,418.001,552.483,419.466,550.676,419.466z"/>
										</g>
									</g>
								</g>
							</g>
							<g>
								<g>
									<g>
										<g>
											<rect x="224.1" y="238.148" style="fill:#FAFAFA;" width="329.849" height="181.319"/>
										</g>
									</g>
								</g>
							</g>
							<g>
								<g>
									<g>
										<g>
											<path style="fill:#263238;" d="M251.152,231.368c0,1.455-1.179,2.634-2.634,2.634c-1.455,0-2.634-1.179-2.634-2.634
												s1.179-2.634,2.634-2.634C249.973,228.734,251.152,229.913,251.152,231.368z"/>
										</g>
									</g>
								</g>
							</g>
							<g>
								<g>
									<g>
										<g>
											<path style="fill:#263238;" d="M235.187,231.368c0,1.455-1.179,2.634-2.634,2.634c-1.454,0-2.634-1.179-2.634-2.634
												s1.18-2.634,2.634-2.634C234.008,228.734,235.187,229.913,235.187,231.368z"/>
										</g>
									</g>
								</g>
							</g>
							<g>
								<g>
									<g>
										<g>
											<path style="fill:#263238;" d="M242.85,231.368c0,1.455-1.179,2.634-2.634,2.634c-1.455,0-2.634-1.179-2.634-2.634
												s1.179-2.634,2.634-2.634C241.671,228.734,242.85,229.913,242.85,231.368z"/>
										</g>
									</g>
								</g>
							</g>
						</g>
					</g>
				</g>
				<g>
					<g>
						<g>
							<path style="fill:#455A64;" d="M567.97,430.179c0,0.13-80.753,0.236-180.345,0.236c-99.626,0-180.362-0.105-180.362-0.236
								c0-0.13,80.736-0.236,180.362-0.236C487.216,429.944,567.97,430.049,567.97,430.179z"/>
						</g>
					</g>
				</g>
			</g>
			<g>
				<g>
					<g>
						<rect x="246.959" y="329.487" style="fill:#E0E0E0;" width="75.27" height="5.035"/>
					</g>
				</g>
				<g>
					<g>
						<rect x="344.181" y="259.579" style="fill:#E0E0E0;" width="75.27" height="5.035"/>
					</g>
				</g>
				<g>
					<g>
						<g>
							<path style="fill:#E0E0E0;" d="M531.4,278.332c0,0.13-41.914,0.236-93.605,0.236c-51.71,0-93.614-0.105-93.614-0.236
								c0-0.13,41.905-0.236,93.614-0.236C489.486,278.096,531.4,278.202,531.4,278.332z"/>
						</g>
					</g>
				</g>
				<g>
					<g>
						<g>
							<path style="fill:#E0E0E0;" d="M531.4,289.327c0,0.13-41.914,0.236-93.605,0.236c-51.71,0-93.614-0.105-93.614-0.236
								c0-0.13,41.905-0.236,93.614-0.236C489.486,289.091,531.4,289.196,531.4,289.327z"/>
						</g>
					</g>
				</g>
				<g>
					<g>
						<g>
							<path style="fill:#E0E0E0;" d="M531.4,300.321c0,0.13-41.914,0.236-93.605,0.236c-51.71,0-93.614-0.105-93.614-0.236
								c0-0.13,41.905-0.236,93.614-0.236C489.486,300.086,531.4,300.191,531.4,300.321z"/>
						</g>
					</g>
				</g>
				<g>
					<g>
						<g>
							<path style="fill:#E0E0E0;" d="M531.4,311.316c0,0.13-41.914,0.236-93.605,0.236c-51.71,0-93.614-0.105-93.614-0.236
								c0-0.13,41.905-0.236,93.614-0.236C489.486,311.081,531.4,311.186,531.4,311.316z"/>
						</g>
					</g>
				</g>
				<g>
					<g>
						<g>
							<path style="fill:#E0E0E0;" d="M531.4,322.311c0,0.13-41.914,0.236-93.605,0.236c-51.71,0-93.614-0.105-93.614-0.236
								c0-0.13,41.905-0.236,93.614-0.236C489.486,322.076,531.4,322.181,531.4,322.311z"/>
						</g>
					</g>
				</g>
				<g>
					<g>
						<g>
							<path style="fill:#E0E0E0;" d="M417.262,333.306c0,0.13-16.361,0.236-36.539,0.236c-20.185,0-36.542-0.105-36.542-0.236
								c0-0.13,16.358-0.236,36.542-0.236C400.901,333.07,417.262,333.176,417.262,333.306z"/>
						</g>
					</g>
				</g>
				<g>
					<g>
						<g>
							<path style="fill:#E0E0E0;" d="M530.031,354.645c0,0.13-27.549,0.236-61.525,0.236c-33.987,0-61.531-0.106-61.531-0.236
								c0-0.13,27.543-0.236,61.531-0.236C502.482,354.409,530.031,354.515,530.031,354.645z"/>
						</g>
					</g>
				</g>
				<g>
					<g>
						<g>
							<path style="fill:#E0E0E0;" d="M530.031,366.316c0,0.13-27.549,0.236-61.525,0.236c-33.987,0-61.531-0.105-61.531-0.236
								c0-0.13,27.543-0.236,61.531-0.236C502.482,366.08,530.031,366.186,530.031,366.316z"/>
						</g>
					</g>
				</g>
				<g>
					<g>
						<g>
							<path style="fill:#E0E0E0;" d="M530.031,377.987c0,0.13-27.549,0.236-61.525,0.236c-33.987,0-61.531-0.105-61.531-0.236
								c0-0.13,27.543-0.236,61.531-0.236C502.482,377.751,530.031,377.857,530.031,377.987z"/>
						</g>
					</g>
				</g>
				<g>
					<g>
						<g>
							<path style="fill:#E0E0E0;" d="M530.031,389.658c0,0.13-27.549,0.236-61.525,0.236c-33.987,0-61.531-0.105-61.531-0.236
								c0-0.13,27.543-0.236,61.531-0.236C502.482,389.423,530.031,389.528,530.031,389.658z"/>
						</g>
					</g>
				</g>
				<g>
					<g>
						<g>
							<path style="fill:#E0E0E0;" d="M322.419,353.528c0,0.13-16.422,0.236-36.676,0.236c-20.26,0-36.679-0.105-36.679-0.236
								c0-0.13,16.419-0.236,36.679-0.236C305.997,353.293,322.419,353.398,322.419,353.528z"/>
						</g>
					</g>
				</g>
				<g>
					<g>
						<g>
							<path style="fill:#E0E0E0;" d="M322.419,362.694c0,0.13-16.422,0.236-36.676,0.236c-20.26,0-36.679-0.105-36.679-0.236
								c0-0.13,16.419-0.236,36.679-0.236C305.997,362.458,322.419,362.564,322.419,362.694z"/>
						</g>
					</g>
				</g>
				<g>
					<g>
						<g>
							<path style="fill:#E0E0E0;" d="M322.419,371.86c0,0.13-16.422,0.236-36.676,0.236c-20.26,0-36.679-0.105-36.679-0.236
								c0-0.13,16.419-0.236,36.679-0.236C305.997,371.624,322.419,371.73,322.419,371.86z"/>
						</g>
					</g>
				</g>
				<g>
					<g>
						<g>
							<path style="fill:#E0E0E0;" d="M322.419,381.026c0,0.13-16.422,0.236-36.676,0.236c-20.26,0-36.679-0.105-36.679-0.236
								c0-0.13,16.419-0.236,36.679-0.236C305.997,380.79,322.419,380.895,322.419,381.026z"/>
						</g>
					</g>
				</g>
				<g>
					<g>
						<g>
							<path style="fill:#E0E0E0;" d="M322.419,390.191c0,0.13-16.422,0.236-36.676,0.236c-20.26,0-36.679-0.105-36.679-0.236
								c0-0.13,16.419-0.236,36.679-0.236C305.997,389.956,322.419,390.061,322.419,390.191z"/>
						</g>
					</g>
				</g>
				<g>
					<g>
						<g>
							<g>
								<g>
									<rect x="344.135" y="349.076" style="fill:#F5F5F5;" width="53.404" height="51.668"/>
								</g>
							</g>
						</g>
					</g>
					<g>
						<g>
							<g>
								<g>
									<polygon style="fill:#EBEBEB;" points="348.275,396.322 363.049,369.734 375.132,386.728 382.475,377.703 393.398,396.322 
																			"/>
								</g>
							</g>
						</g>
					</g>
					<g>
						<g>
							<g>
								<g>
									<path style="fill:#EBEBEB;" d="M380.279,364.563c0,2.123-1.721,3.843-3.843,3.843c-2.123,0-3.843-1.72-3.843-3.843
										c0-2.123,1.721-3.843,3.843-3.843C378.559,360.72,380.279,362.44,380.279,364.563z"/>
								</g>
							</g>
						</g>
					</g>
					<g>
						<g>
							<g>
								<g>
									<g>
										<path style="fill:#EBEBEB;" d="M393.398,396.466c-0.004-0.004-0.008-0.075-0.012-0.212
											c-0.003-0.155-0.007-0.352-0.012-0.602c-0.006-0.55-0.015-1.326-0.026-2.325c-0.013-2.049-0.032-5.012-0.056-8.775
											c-0.027-7.547-0.066-18.293-0.112-31.197l0.218,0.218c-13.068,0.011-28.56,0.023-45.118,0.036
											c-0.061,0.054,0.477-0.478,0.25-0.247v0.011v0.023v0.046v0.092v0.184v0.368v0.736v1.467c0,0.977,0,1.949,0,2.917
											c-0.001,1.936-0.001,3.854-0.002,5.753c-0.002,3.797-0.004,7.514-0.006,11.133c-0.008,7.236-0.017,14.077-0.024,20.371
											l-0.222-0.221c13.468,0.047,24.716,0.086,32.625,0.113c3.943,0.025,7.053,0.044,9.202,0.058
											c1.05,0.011,1.865,0.02,2.441,0.026c0.264,0.005,0.471,0.009,0.632,0.012
											C393.319,396.457,393.394,396.461,393.398,396.466c0.005,0.004-0.062,0.008-0.197,0.012
											c-0.156,0.003-0.354,0.007-0.608,0.013c-0.566,0.006-1.366,0.014-2.398,0.026c-2.138,0.014-5.23,0.033-9.152,0.058
											c-7.943,0.027-19.241,0.066-32.767,0.113l-0.221,0.001v-0.223c-0.008-6.293-0.016-13.135-0.024-20.371
											c-0.002-3.619-0.004-7.337-0.007-11.133c-0.001-1.898-0.001-3.817-0.001-5.753c0-0.968,0-1.94,0-2.917v-1.467
											l-0.001-0.736v-0.368v-0.184v-0.092v-0.046v-0.023v-0.011c-0.227,0.223,0.309-0.319,0.259-0.262
											c16.558,0.013,32.05,0.026,45.118,0.036l0.219,0.001l-0.001,0.218c-0.046,12.96-0.085,23.755-0.112,31.336
											c-0.024,3.741-0.044,6.688-0.057,8.725c-0.011,0.982-0.019,1.744-0.025,2.283c-0.005,0.241-0.009,0.43-0.013,0.579
											C393.407,396.406,393.403,396.47,393.398,396.466z"/>
									</g>
								</g>
							</g>
						</g>
					</g>
				</g>
			</g>
			<g>
				<g>
					<g>
						<g>
							<g>
								<rect x="248.378" y="250.984" style="fill:#F5F5F5;" width="72.432" height="70.077"/>
							</g>
						</g>
					</g>
				</g>
				<g>
					<g>
						<g>
							<g>
								<polygon style="fill:#E0E0E0;" points="253.994,315.063 274.031,279.002 290.42,302.051 300.379,289.811 315.194,315.063 
																	"/>
							</g>
						</g>
					</g>
				</g>
				<g>
					<g>
						<g>
							<g>
								<path style="fill:#E0E0E0;" d="M297.401,271.988c0,2.879-2.334,5.212-5.213,5.212c-2.879,0-5.213-2.333-5.213-5.212
									s2.334-5.213,5.213-5.213C295.068,266.776,297.401,269.109,297.401,271.988z"/>
							</g>
						</g>
					</g>
				</g>
				<g>
					<g>
						<g>
							<g>
								<g>
									<path style="fill:#E0E0E0;" d="M315.194,315.258c-0.005-0.005-0.011-0.102-0.017-0.287
										c-0.003-0.21-0.009-0.477-0.016-0.817c-0.008-0.746-0.02-1.798-0.035-3.154c-0.018-2.779-0.044-6.798-0.077-11.901
										c-0.037-10.235-0.089-24.811-0.152-42.312l0.296,0.296c-17.725,0.014-38.736,0.031-61.194,0.049
										c-0.083,0.073,0.648-0.649,0.339-0.335v0.015v0.031v0.063v0.125v0.25v0.5v0.998v1.99c0,1.324-0.001,2.643-0.001,3.956
										c-0.001,2.626-0.001,5.228-0.003,7.802c-0.003,5.15-0.005,10.192-0.008,15.1c-0.011,9.814-0.023,19.093-0.033,27.629
										l-0.3-0.301c18.266,0.064,33.523,0.116,44.249,0.153c5.348,0.033,9.566,0.06,12.48,0.078
										c1.425,0.015,2.53,0.027,3.311,0.035c0.358,0.007,0.639,0.012,0.858,0.017
										C315.087,315.246,315.189,315.252,315.194,315.258c0.006,0.005-0.085,0.011-0.268,0.017
										c-0.211,0.004-0.48,0.01-0.825,0.017c-0.768,0.008-1.853,0.02-3.253,0.035c-2.899,0.018-7.094,0.045-12.413,0.079
										c-10.773,0.037-26.097,0.09-44.442,0.153l-0.301,0.001v-0.302c-0.01-8.535-0.021-17.815-0.033-27.629
										c-0.003-4.909-0.006-9.951-0.009-15.1c-0.001-2.575-0.001-5.177-0.002-7.802c-0.001-1.313-0.001-2.632-0.001-3.956v-1.99
										l-0.001-0.998v-0.5v-0.25v-0.125v-0.063v-0.031v-0.015c-0.308,0.303,0.419-0.432,0.351-0.355
										c22.458,0.018,43.469,0.035,61.194,0.048l0.297,0.001l-0.001,0.296c-0.063,17.578-0.115,32.219-0.151,42.5
										c-0.033,5.074-0.059,9.071-0.077,11.834c-0.015,1.332-0.026,2.365-0.034,3.097c-0.007,0.327-0.013,0.583-0.017,0.785
										C315.206,315.178,315.201,315.263,315.194,315.258z"/>
								</g>
							</g>
						</g>
					</g>
				</g>
			</g>
		</g>
		<g>
			<g>
				<polygon style="fill:#E8505B;" points="330.518,277.612 334.096,284.862 342.097,286.025 336.308,291.668 337.674,299.637 
					330.518,295.875 323.362,299.637 324.729,291.668 318.939,286.025 326.94,284.862 				"/>
			</g>
			<g>
				<polygon style="fill:#E8505B;" points="355.72,252.411 359.298,259.661 367.299,260.823 361.509,266.467 362.876,274.435 
					355.72,270.673 348.564,274.435 349.93,266.467 344.141,260.823 352.142,259.661 				"/>
			</g>
			<g>
				<polygon style="fill:#E8505B;" points="389.401,242.518 392.979,249.768 400.98,250.931 395.19,256.574 396.557,264.543 
					389.401,260.781 382.245,264.543 383.611,256.574 377.822,250.931 385.823,249.768 				"/>
			</g>
			<g>
				<polygon style="fill:#E8505B;" points="424.259,252.646 427.837,259.896 435.838,261.059 430.049,266.702 431.415,274.671 
					424.259,270.909 417.103,274.671 418.47,266.702 412.68,261.059 420.681,259.896 				"/>
			</g>
			<g>
				<polygon style="fill:#E8505B;" points="448.283,276.67 451.861,283.92 459.862,285.083 454.073,290.726 455.44,298.695 
					448.283,294.933 441.127,298.695 442.494,290.726 436.704,285.083 444.705,283.92 				"/>
			</g>
			<g>
				<polygon style="fill:#E8505B;" points="456.998,311.529 460.576,318.779 468.577,319.941 462.787,325.585 464.154,333.553 
					456.998,329.791 449.842,333.553 451.208,325.585 445.419,319.941 453.42,318.779 				"/>
			</g>
			<g>
				<polygon style="fill:#E8505B;" points="448.519,346.152 452.097,353.402 460.098,354.565 454.308,360.208 455.675,368.176 
					448.519,364.414 441.363,368.176 442.729,360.208 436.94,354.565 444.941,353.402 				"/>
			</g>
			<g>
				<polygon style="fill:#E8505B;" points="423.005,370.176 426.583,377.426 434.584,378.589 428.794,384.232 430.161,392.201 
					423.005,388.438 415.848,392.201 417.215,384.232 411.426,378.589 419.426,377.426 				"/>
			</g>
			<g>
				<polygon style="fill:#E8505B;" points="388.723,380.079 392.301,387.329 400.302,388.492 394.512,394.135 395.879,402.104 
					388.723,398.342 381.567,402.104 382.933,394.135 377.144,388.492 385.145,387.329 				"/>
			</g>
			<g>
				<polygon style="fill:#E8505B;" points="355.984,370.187 359.562,377.437 367.563,378.6 361.774,384.243 363.14,392.212 
					355.984,388.449 348.828,392.212 350.195,384.243 344.405,378.6 352.406,377.437 				"/>
			</g>
			<g>
				<polygon style="fill:#E8505B;" points="330.076,345.525 333.654,352.775 341.655,353.938 335.865,359.581 337.232,367.55 
					330.076,363.788 322.92,367.55 324.286,359.581 318.497,353.938 326.498,352.775 				"/>
			</g>
			<g>
				<polygon style="fill:#E8505B;" points="321.361,311.569 324.939,318.819 332.94,319.982 327.151,325.625 328.517,333.594 
					321.361,329.831 314.205,333.594 315.572,325.625 309.782,319.982 317.783,318.819 				"/>
			</g>
			<g>
				<g>
					<g>
						<path style="fill:#263238;" d="M414.094,336.437h-7v-38.1c0-8.968-7.296-16.264-16.264-16.264s-16.264,7.296-16.264,16.264
							v38.1h-7v-38.1c0-12.827,10.437-23.264,23.264-23.264c12.827,0,23.264,10.436,23.264,23.264V336.437z"/>
					</g>
					<g>
						<path style="fill:#E8505B;" d="M416.371,359.716H365.29c-3.209,0-5.811-2.602-5.811-5.811v-28.606
							c0-3.209,2.602-5.811,5.811-5.811h51.081c3.209,0,5.811,2.602,5.811,5.811v28.606
							C422.182,357.115,419.58,359.716,416.371,359.716z"/>
					</g>
					<g>
						<g>
							<path style="fill:#263238;" d="M396.072,334.361c0,2.895-2.346,5.241-5.241,5.241c-2.894,0-5.241-2.346-5.241-5.241
								s2.346-5.241,5.241-5.241C393.725,329.121,396.072,331.467,396.072,334.361z"/>
						</g>
						<g>
							<rect x="389.401" y="336.437" style="fill:#263238;" width="2.859" height="10.778"/>
						</g>
					</g>
				</g>
				<g>
					<g>
						<path style="fill:#FAFAFA;" d="M362.823,355.901c-0.144,0-0.26-6.709-0.26-14.982c0-8.277,0.116-14.984,0.26-14.984
							c0.144,0,0.26,6.707,0.26,14.984C363.083,349.193,362.967,355.901,362.823,355.901z"/>
					</g>
				</g>
				<g>
					<g>
						<path style="fill:#FAFAFA;" d="M386.726,341.08c-0.017,0.026-0.246-0.082-0.615-0.349c-0.37-0.265-0.862-0.718-1.351-1.377
							c-0.977-1.282-1.871-3.611-1.291-6.125c0.609-2.508,2.452-4.189,3.901-4.896c0.733-0.37,1.375-0.554,1.825-0.625
							c0.449-0.073,0.702-0.067,0.706-0.036c0.022,0.098-0.994,0.194-2.354,0.984c-1.338,0.756-3.01,2.376-3.571,4.693
							c-0.538,2.322,0.23,4.52,1.087,5.795C385.924,340.461,386.79,341.001,386.726,341.08z"/>
					</g>
				</g>
			</g>
		</g>
	</g>
</g>
<g id="Character">
	<g>
		<g>
			<path style="fill:#263238;" d="M170.274,301.631c-0.797,2.242-0.574,4.745,0.16,7.008c0.734,2.263,1.95,4.335,3.157,6.385
				c1.572-4.029,3.146-8.068,4.252-12.248c0.243-0.919,0.42-2.025-0.235-2.714c-0.497-0.523-1.299-0.598-2.018-0.556
				c-2.111,0.125-4.169,1.004-5.72,2.442"/>
		</g>
		<g>
			<polygon style="fill:#263238;" points="82.091,413.795 65.731,451.195 88.252,451.195 104.288,413.498 			"/>
		</g>
		<g>
			<g>
				<g>
					<g>
						<g>
							<g>
								<path style="fill:#455A64;" d="M179.372,450.747c22.072-7.307,6.937-36.502,6.937-36.502l-96.465,9.073
									c-7.744-0.052-14.051,6.211-14.051,13.956l0,0c0,7.708,6.249,13.957,13.957,13.957L179.372,450.747"/>
							</g>
						</g>
					</g>
				</g>
			</g>
			<g>
				<g>
					<g>
						<g>
							<g>
								<path style="fill:#455A64;" d="M201.313,451.232c21.507-7.259,7.328-36.993,7.328-36.993l-94.041,8.866
									c-9.185,0.12-13.671,4.55-13.671,13.924l0,0c0.017,7.707,2.865,14.203,13.638,13.984L201.313,451.232"/>
							</g>
						</g>
					</g>
				</g>
			</g>
			<g>
				<g>
					<g>
						<g>
							<g>
								<g>
									<path style="fill:#263238;" d="M180.124,419.172c0-0.009-0.091-0.012-0.268-0.011c-0.204,0.005-0.462,0.011-0.783,0.019
										c-0.723,0.03-1.73,0.071-3.01,0.123c-2.648,0.131-6.42,0.318-11.064,0.548c-9.37,0.514-22.258,1.22-36.493,2.001
										c-1.781,0.085-3.544,0.239-5.275,0.264c-1.742,0.027-3.457,0.1-5.139,0.201c-1.683,0.103-3.334,0.228-4.95,0.402
										c-1.601,0.186-3.228,0.359-4.703,0.965c-1.474,0.574-2.823,1.416-3.911,2.506c-1.091,1.09-1.87,2.434-2.372,3.806
										c-0.509,1.376-0.786,2.772-0.966,4.114c-0.175,1.344-0.268,2.644-0.259,3.889c0.01,2.487,0.445,4.749,1.241,6.549
										c0.789,1.807,1.889,3.125,2.925,3.984c1.04,0.866,2.001,1.297,2.663,1.504c0.665,0.21,0.677,0.141,0.03-0.098
										c-0.644-0.235-1.575-0.688-2.575-1.56c-0.997-0.865-2.051-2.174-2.798-3.948c-0.755-1.769-1.158-3.986-1.146-6.433
										c0.002-1.224,0.104-2.508,0.286-3.832c0.187-1.321,0.469-2.686,0.969-4.015c0.495-1.328,1.245-2.602,2.292-3.637
										c1.045-1.036,2.346-1.842,3.773-2.391c1.424-0.579,2.989-0.738,4.597-0.921c1.606-0.168,3.252-0.289,4.93-0.388
										c1.677-0.098,3.386-0.167,5.119-0.192c1.744-0.023,3.499-0.177,5.283-0.262c14.236-0.839,27.124-1.598,36.495-2.15
										c4.642-0.298,8.411-0.54,11.058-0.71c1.278-0.093,2.283-0.166,3.005-0.219c0.321-0.029,0.578-0.052,0.781-0.07
										C180.035,419.195,180.124,419.181,180.124,419.172z"/>
								</g>
							</g>
						</g>
					</g>
				</g>
			</g>
			<g>
				<g>
					<g>
						<g>
							<g>
								<path style="fill:#263238;" d="M201.361,428.38c0.012,0.027-0.25,0.183-0.765,0.38c-0.513,0.199-1.295,0.399-2.285,0.465
									c-1.942,0.153-4.888-0.452-7.07-2.666c-2.159-2.239-2.69-5.199-2.488-7.136c0.091-0.988,0.311-1.765,0.523-2.273
									c0.209-0.509,0.372-0.767,0.399-0.755c0.101,0.034-0.474,1.135-0.557,3.05c-0.104,1.871,0.468,4.656,2.493,6.753
									c2.045,2.076,4.814,2.718,6.687,2.662C200.214,428.826,201.329,428.279,201.361,428.38z"/>
							</g>
						</g>
					</g>
				</g>
			</g>
		</g>
		<g>
			<g>
				<polygon style="fill:#FFBE9D;" points="153.517,369.254 144.594,399.786 111.565,403.329 111.565,409.191 160.096,409.861 
					166.704,370.103 				"/>
			</g>
		</g>
		<g>
			<g>
				<path style="fill:#E8505B;" d="M196.587,337.353c5.86,0.012,21.729,3.005,23.124,13.701c1.259,9.659,3.145,20.619,3.145,20.619
					l-20.889,0.561l7.117,1.884l3.047,45.088l-54.057-1.874l2.867-23.18l2.354-23.172l0,0l-11.813-0.964
					c0,0,4.042-20.17,11.091-26.395c0,0,6.451-5.668,15.558-6.269C187.238,336.753,196.587,337.353,196.587,337.353"/>
			</g>
		</g>
		<g>
			<g>
				<g>
					<path style="fill:#263238;" d="M165.232,356.001c0.125,0.014-0.7,8.164-1.843,18.2c-1.143,10.04-2.171,18.164-2.297,18.15
						c-0.125-0.014,0.7-8.162,1.843-18.202C164.079,364.113,165.107,355.987,165.232,356.001z"/>
				</g>
			</g>
		</g>
		<g>
			<g>
				<g>
					<path style="fill:#263238;" d="M198.203,337.422c0.015-0.001,0.035,0.13,0.059,0.379c0.023,0.249,0.047,0.618,0.055,1.094
						c0.019,0.947-0.055,2.354-0.585,3.993c-0.496,1.619-1.352,3.587-3.065,5.199c-0.842,0.805-1.899,1.507-3.126,1.941
						c-1.226,0.433-2.574,0.601-3.933,0.624c-1.361,0.012-2.687-0.041-3.963-0.269c-1.269-0.226-2.477-0.683-3.43-1.392
						c-1.92-1.426-2.834-3.429-3.256-5.069c-0.449-1.66-0.489-3.062-0.449-4.009c0.018-0.476,0.054-0.843,0.082-1.092
						c0.031-0.249,0.054-0.378,0.069-0.377c0.035,0.002,0.007,0.527,0.018,1.471c0.012,0.942,0.098,2.313,0.576,3.931
						c0.449,1.597,1.37,3.508,3.2,4.839c0.905,0.66,2.041,1.084,3.268,1.298c1.226,0.215,2.543,0.266,3.876,0.254
						c1.33-0.023,2.628-0.184,3.795-0.591c1.165-0.407,2.175-1.065,2.992-1.832c1.664-1.539,2.522-3.417,3.052-5.013
						c0.556-1.597,0.675-2.965,0.709-3.907C198.181,337.949,198.168,337.423,198.203,337.422z"/>
				</g>
			</g>
		</g>
		<g style="opacity:0.2;">
			<g>
				<g>
					<path d="M201.101,356.003c-2.001,9.566-4.61,19.398-6.611,28.965c-0.425,2.033-0.882,4.138-2.124,5.802
						c-0.776,1.04-1.816,1.848-2.854,2.626c-3.945,2.96-8.103,5.731-12.737,7.42c6.693-0.565,13.337-1.722,19.828-3.451
						c1.099-0.293,2.269-0.65,2.978-1.539c0.627-0.786,0.773-1.841,0.891-2.84C201.911,380.72,201.495,368.346,201.101,356.003"/>
				</g>
			</g>
		</g>
		<g>
			<g>
				<g>
					<path style="fill:#263238;" d="M223.189,371.834c0.001,0.032-0.559,0.073-1.57,0.12c-1.086,0.04-2.532,0.093-4.285,0.158
						c-3.618,0.113-8.618,0.238-14.139,0.348c-0.608,0.012-1.21,0.023-1.775,0.034l-0.223,0.004l-0.009-0.22
						c-0.199-5.127-0.108-9.685-0.011-12.965c0.051-1.639,0.113-2.958,0.169-3.866c0.056-0.908,0.1-1.407,0.13-1.406
						s0.042,0.501,0.038,1.411c-0.007,0.983-0.017,2.284-0.029,3.867c-0.016,3.275-0.052,7.836,0.156,12.935l-0.232-0.215
						c0.565-0.012,1.167-0.024,1.775-0.036c5.522-0.11,10.522-0.184,14.142-0.215c1.754-0.005,3.201-0.009,4.287-0.013
						C222.628,371.784,223.188,371.803,223.189,371.834z"/>
				</g>
			</g>
		</g>
		<g>
			<g>
				<g>
					<path style="fill:#E0E0E0;" d="M70.192,374.029l18.451,36.275h58.172l-2.354-4.739l-16.853-0.501l-13.736-30.584
						c-0.854-1.902-2.744-3.125-4.829-3.125H71.832C70.458,371.355,69.569,372.805,70.192,374.029z"/>
				</g>
			</g>
			<g>
				<g>
					<circle style="fill:#263238;" cx="97.098" cy="390.273" r="2.226"/>
				</g>
			</g>
		</g>
		<g>
			<g>
				<g>
					<g>
						<g>
							<g>
								<g>
									<g>
										<g>
											<g>
												<g>
													<g>
														<g>
															<g>
																<g>
																	<path style="fill:#FFBE9D;" d="M198.489,310.019l-2.084,29.517c-0.34,4.819-4.349,8.555-9.18,8.555l0,0
																		c-5.319,0-9.532-4.497-9.183-9.805c0.185-2.81,0.352-5.11,0.352-5.11s-7.134-1.111-7.234-8.255
																		c-0.047-3.365,0.401-10.027,0.903-16.289c0.586-7.31,6.682-12.947,14.016-12.947h0.007
																		C193.52,296.117,199.128,302.6,198.489,310.019z"/>
																</g>
															</g>
														</g>
													</g>
												</g>
											</g>
										</g>
									</g>
									<g>
										<g>
											<g>
												<g>
													<g>
														<g>
															<g>
																<g>
																	<path style="fill:#EB996E;" d="M178.351,333.518c0,0,4.515,0.367,9.314-2.647c0,0-2.202,5.142-9.331,4.498
																		L178.351,333.518z"/>
																</g>
															</g>
														</g>
													</g>
												</g>
											</g>
										</g>
									</g>
								</g>
							</g>
						</g>
						<g>
							<g>
								<g>
									<g>
										<g>
											<g>
												<g>
													<g>
														<g>
															<g>
																<g>
																	<g>
																		<g>
																			<g>
																				<path style="fill:#263238;" d="M174.296,313.272c-0.019,0.539,0.422,0.999,0.984,1.029
																					c0.561,0.03,1.033-0.381,1.052-0.92c0.019-0.539-0.421-1-0.983-1.03
																					C174.787,312.321,174.315,312.733,174.296,313.272z"/>
																			</g>
																		</g>
																	</g>
																</g>
															</g>
														</g>
													</g>
												</g>
												<g>
													<g>
														<g>
															<g>
																<g>
																	<g>
																		<g>
																			<g>
																				<g>
																					<path style="fill:#263238;" d="M173.662,311.867c0.126,0.133,0.899-0.439,1.997-0.436
																						c1.097-0.013,1.902,0.552,2.021,0.417c0.059-0.059-0.07-0.3-0.421-0.555c-0.345-0.254-0.934-0.502-1.618-0.499
																						c-0.684,0.004-1.259,0.255-1.59,0.513C173.714,311.566,173.6,311.807,173.662,311.867z"/>
																				</g>
																			</g>
																		</g>
																	</g>
																</g>
															</g>
														</g>
													</g>
												</g>
											</g>
											<g>
												<g>
													<g>
														<g>
															<g>
																<g>
																	<g>
																		<g>
																			<g>
																				<path style="fill:#263238;" d="M184.637,313.568c-0.019,0.539,0.422,0.999,0.984,1.029
																					c0.561,0.03,1.033-0.381,1.052-0.92c0.019-0.539-0.421-1-0.983-1.03
																					C185.128,312.617,184.656,313.029,184.637,313.568z"/>
																			</g>
																		</g>
																	</g>
																</g>
															</g>
														</g>
													</g>
												</g>
												<g>
													<g>
														<g>
															<g>
																<g>
																	<g>
																		<g>
																			<g>
																				<g>
																					<path style="fill:#263238;" d="M184.454,312.072c0.127,0.133,0.901-0.439,1.998-0.436
																						c1.097-0.013,1.902,0.552,2.022,0.417c0.058-0.059-0.069-0.299-0.422-0.555
																						c-0.345-0.254-0.934-0.502-1.618-0.499c-0.684,0.004-1.259,0.255-1.59,0.513
																						C184.507,311.771,184.393,312.012,184.454,312.072z"/>
																				</g>
																			</g>
																		</g>
																	</g>
																</g>
															</g>
														</g>
													</g>
												</g>
											</g>
											<g>
												<g>
													<g>
														<g>
															<g>
																<g>
																	<g>
																		<g>
																			<g>
																				<path style="fill:#263238;" d="M180.47,320.214c0.005-0.062-0.677-0.18-1.783-0.322
																					c-0.28-0.029-0.546-0.085-0.593-0.276c-0.066-0.203,0.051-0.505,0.187-0.831
																					c0.264-0.678,0.539-1.389,0.829-2.135c1.151-3.04,1.985-5.539,1.862-5.584
																					c-0.123-0.045-1.156,2.382-2.307,5.421c-0.277,0.75-0.542,1.464-0.794,2.148c-0.106,0.319-0.289,0.68-0.146,1.1
																					c0.076,0.21,0.281,0.362,0.461,0.41c0.18,0.055,0.337,0.058,0.476,0.066
																					C179.775,320.271,180.466,320.276,180.47,320.214z"/>
																			</g>
																		</g>
																	</g>
																</g>
															</g>
														</g>
													</g>
												</g>
											</g>
											<g>
												<g>
													<g>
														<g>
															<g>
																<g>
																	<g>
																		<g>
																			<g>
																				<path style="fill:#263238;" d="M183.701,320.973c-0.179-0.01-0.181,1.181-1.201,2.027
																					c-1.018,0.849-2.289,0.715-2.298,0.882c-0.017,0.075,0.283,0.231,0.819,0.246
																					c0.526,0.018,1.294-0.151,1.918-0.668c0.622-0.519,0.89-1.211,0.93-1.7
																					C183.915,321.262,183.783,320.966,183.701,320.973z"/>
																			</g>
																		</g>
																	</g>
																</g>
															</g>
														</g>
													</g>
												</g>
											</g>
										</g>
									</g>
								</g>
								<g>
									<g>
										<g>
											<g>
												<g>
													<g>
														<g>
															<g>
																<path style="fill:#263238;" d="M184.171,307.769c0.108,0.298,1.204,0.157,2.492,0.312
																	c1.292,0.129,2.33,0.506,2.501,0.239c0.076-0.128-0.105-0.409-0.525-0.698c-0.416-0.288-1.08-0.563-1.854-0.649
																	c-0.773-0.084-1.481,0.038-1.951,0.229C184.363,307.393,184.124,307.627,184.171,307.769z"/>
															</g>
														</g>
													</g>
												</g>
											</g>
										</g>
									</g>
								</g>
								<g>
									<g>
										<g>
											<g>
												<g>
													<g>
														<g>
															<g>
																<path style="fill:#263238;" d="M174.066,308.689c0.193,0.249,0.949-0.01,1.859-0.022
																	c0.909-0.044,1.68,0.167,1.857-0.093c0.078-0.127-0.043-0.376-0.38-0.612c-0.331-0.235-0.886-0.427-1.511-0.409
																	c-0.625,0.02-1.166,0.246-1.483,0.501C174.087,308.311,173.981,308.568,174.066,308.689z"/>
															</g>
														</g>
													</g>
												</g>
											</g>
										</g>
									</g>
								</g>
							</g>
						</g>
						<g>
							<g>
								<g>
									<g>
										<g>
											<g>
												<g>
													<g>
														<g>
															<path style="fill:#FFBE9D;" d="M196.08,315.828c0.122-0.053,4.909-1.452,4.753,3.432
																c-0.156,4.884-5.028,3.72-5.032,3.58S196.08,315.828,196.08,315.828z"/>
														</g>
													</g>
												</g>
											</g>
										</g>
									</g>
								</g>
							</g>
							<g>
								<g>
									<g>
										<g>
											<g>
												<g>
													<g>
														<g>
															<g>
																<path style="fill:#EB996E;" d="M197.352,321.037c0.022-0.015,0.083,0.062,0.225,0.133
																	c0.138,0.068,0.378,0.121,0.635,0.033c0.522-0.173,0.983-0.978,1.035-1.858c0.027-0.444-0.053-0.871-0.199-1.226
																	c-0.138-0.362-0.361-0.619-0.619-0.674c-0.257-0.068-0.445,0.082-0.51,0.217c-0.07,0.134-0.042,0.233-0.068,0.241
																	c-0.014,0.012-0.102-0.085-0.057-0.286c0.023-0.096,0.084-0.21,0.202-0.3c0.12-0.092,0.294-0.135,0.475-0.109
																	c0.376,0.038,0.704,0.395,0.865,0.786c0.182,0.393,0.281,0.872,0.252,1.371c-0.063,0.983-0.596,1.888-1.309,2.07
																	c-0.346,0.079-0.63-0.034-0.774-0.154C197.357,321.155,197.335,321.046,197.352,321.037z"/>
															</g>
														</g>
													</g>
												</g>
											</g>
										</g>
									</g>
								</g>
							</g>
						</g>
					</g>
				</g>
			</g>
		</g>
		<g>
			<rect x="81.902" y="410.362" style="fill:#263238;" width="71.113" height="3.469"/>
		</g>
		<g>
			<polygon style="fill:#263238;" points="131.112,412.096 152.742,451.232 172.106,451.232 153.014,413.831 			"/>
		</g>
		<g>
			<g>
				<path style="fill:#455A64;" d="M153.016,413.831c0.001,0.144-15.937,0.34-35.594,0.439c-19.664,0.099-35.6,0.062-35.6-0.082
					s15.934-0.34,35.598-0.439C137.076,413.651,153.015,413.687,153.016,413.831z"/>
			</g>
		</g>
		<g>
			<path style="fill:#263238;" d="M170.092,305.428c1.296,0.493,2.807,0.385,4.02-0.288c-0.508,0.417-0.327,1.304,0.194,1.705
				c0.521,0.401,1.23,0.44,1.887,0.417c3.515-0.124,6.965-1.6,9.483-4.055c0.028,1.236,1.02,2.3,2.182,2.721
				c1.162,0.42,2.453,0.303,3.654,0.015c-0.32,1.825-0.639,3.708-0.225,5.513c0.414,1.806,1.754,3.532,3.586,3.806
				c0.368,0.899,0.161,1.917,0.227,2.886c0.066,0.969,0.634,2.083,1.605,2.11c0.856,0.024,1.497-0.854,1.61-1.704
				c0.113-0.849-0.385-2.58,0.223-3.956c0.66-1.493,0.397-1.217,1.054-2.712c0.657-1.495,1.027-3.551,1.539-5.101
				c0.512-1.551,0.709-3.276,0.125-4.801c-0.584-1.525-2.098-2.764-3.727-2.65c0.594-1.531,0.098-3.418-1.173-4.46
				c-1.27-1.041-3.218-1.158-4.603-0.275c0,0-5.567-3.781-11.715-1.693c-6.114,2.076-7.069,7.672-8.405,7.846
				c-1.336,0.174-5.402-2.033-4.705-0.639c0.697,1.394,1.859,2.73,2.439,2.788c0.581,0.058-4.646-2.149-2.846-0.174
				C168.324,304.703,170.092,305.428,170.092,305.428z"/>
		</g>
		<g>
			<g>
				<path style="fill:#FAFAFA;" d="M219.111,353.034c-0.06,0.054-0.527-0.839-1.929-1.855c-1.367-1.016-3.769-2.063-6.86-2.022
					c-3.089-0.011-6.635,1.331-10.11,3.464c-3.516,2.081-7.049,5.01-11.468,6.934c-2.198,0.961-4.538,1.506-6.812,1.542
					c-2.273,0.049-4.464-0.347-6.423-1.059c-1.965-0.71-3.671-1.78-5.115-2.913c-1.455-1.126-2.732-2.252-3.981-3.163
					c-2.464-1.875-4.93-2.658-6.646-2.712c-1.73-0.054-2.628,0.426-2.643,0.352c-0.003-0.008,0.05-0.036,0.159-0.083
					c0.11-0.041,0.268-0.125,0.491-0.184c0.437-0.147,1.116-0.284,1.998-0.287c1.761-0.01,4.324,0.747,6.857,2.617
					c2.562,1.772,5.167,4.576,9.043,5.923c3.807,1.387,8.567,1.439,12.867-0.51c4.325-1.879,7.861-4.783,11.426-6.867
					c3.524-2.133,7.17-3.48,10.355-3.421c3.174,0.006,5.623,1.138,6.983,2.229c0.7,0.537,1.143,1.065,1.426,1.427
					C218.995,352.822,219.126,353.024,219.111,353.034z"/>
			</g>
		</g>
		<g>
			<g>
				<path style="fill:#FAFAFA;" d="M201.318,379.32c-0.029,0.037-0.484-0.316-1.378-0.832c-0.894-0.508-2.251-1.167-4.047-1.558
					c-1.785-0.393-4.019-0.509-6.363,0.113c-2.358,0.585-4.767,1.822-7.447,2.813c-1.341,0.491-2.712,0.858-4.058,1.026
					c-1.347,0.17-2.66,0.177-3.9,0.072c-2.485-0.217-4.644-0.93-6.335-1.733c-1.699-0.804-2.926-1.724-3.71-2.411
					c-0.407-0.328-0.679-0.633-0.873-0.826c-0.191-0.198-0.284-0.308-0.271-0.32c0.034-0.036,0.452,0.362,1.272,0.99
					c0.814,0.631,2.052,1.488,3.737,2.234c1.677,0.745,3.797,1.404,6.22,1.589c2.418,0.199,5.112-0.106,7.74-1.109
					c2.634-0.971,5.075-2.21,7.509-2.789c2.43-0.617,4.745-0.457,6.563-0.007c1.833,0.448,3.195,1.175,4.07,1.744
					c0.437,0.288,0.763,0.531,0.97,0.713C201.225,379.206,201.329,379.306,201.318,379.32z"/>
			</g>
		</g>
		<g>
			<g>
				<path style="fill:#FAFAFA;" d="M209.192,396.128c-0.025,0.056-0.658-0.341-1.933-0.613c-1.269-0.267-3.204-0.247-5.424,0.487
					c-1.109,0.355-2.292,0.853-3.506,1.497c-1.217,0.64-2.487,1.403-3.863,2.145c-1.375,0.739-2.867,1.475-4.53,1.947
					c-1.656,0.473-3.51,0.606-5.31,0.217c-3.625-0.786-6.492-2.882-9.135-4.459c-2.63-1.621-5.217-2.799-7.542-2.964
					c-2.322-0.192-4.188,0.439-5.272,1.132c-1.111,0.687-1.507,1.339-1.557,1.289c-0.014-0.011,0.09-0.16,0.304-0.438
					c0.229-0.263,0.585-0.647,1.142-1.021c1.084-0.768,3.004-1.482,5.41-1.33c2.422,0.123,5.098,1.309,7.762,2.919
					c2.675,1.572,5.518,3.612,8.993,4.361c1.723,0.371,3.467,0.249,5.068-0.199c1.604-0.448,3.072-1.157,4.441-1.879
					c1.371-0.724,2.648-1.473,3.891-2.105c1.242-0.637,2.455-1.125,3.596-1.465c2.282-0.705,4.288-0.669,5.576-0.332
					c0.647,0.165,1.127,0.368,1.435,0.533C209.045,396.017,209.201,396.112,209.192,396.128z"/>
			</g>
		</g>
		<g>
			<g>
				<path style="fill:#FAFAFA;" d="M211.744,415.237c0.005,0.012-0.163,0.101-0.507,0.208c-0.342,0.109-0.866,0.229-1.551,0.263
					c-1.375,0.1-3.365-0.3-5.627-1.175c-1.139-0.411-2.372-0.899-3.738-1.217c-1.369-0.29-2.873-0.401-4.447-0.253
					c-3.162,0.267-6.49,1.461-10.047,2.483c-1.783,0.506-3.564,0.92-5.321,1.089c-1.755,0.176-3.463,0.123-5.067-0.07
					c-3.21-0.413-5.991-1.316-8.249-2.201c-2.261-0.892-4.025-1.759-5.233-2.373c-0.605-0.306-1.067-0.558-1.379-0.732
					c-0.311-0.174-0.471-0.274-0.463-0.29c0.008-0.016,0.184,0.052,0.51,0.196c0.378,0.171,0.847,0.384,1.42,0.643
					c1.232,0.557,3.014,1.37,5.276,2.211c2.258,0.836,5.02,1.69,8.174,2.069c1.576,0.176,3.247,0.217,4.959,0.039
					c1.713-0.171,3.461-0.579,5.231-1.082c3.53-1.012,6.897-2.21,10.148-2.46c1.617-0.139,3.175-0.009,4.587,0.311
					c1.406,0.347,2.641,0.861,3.768,1.292c2.237,0.914,4.147,1.352,5.492,1.317C211.023,415.494,211.729,415.18,211.744,415.237z"/>
			</g>
		</g>
		<g>
			<g>
				<path style="fill:#FAFAFA;" d="M221.995,366.776c0.019,0.018-0.17,0.275-0.605,0.645c-0.432,0.37-1.116,0.855-2.063,1.261
					c-0.946,0.393-2.159,0.711-3.532,0.685c-1.374,0.003-2.864-0.441-4.252-1.125c-1.398-0.673-2.66-1.4-3.891-1.837
					c-1.217-0.43-2.414-0.515-3.375-0.376c-0.969,0.138-1.679,0.531-2.101,0.874c-0.419,0.352-0.594,0.617-0.634,0.588
					c-0.019-0.01,0.096-0.316,0.498-0.738c0.403-0.412,1.147-0.892,2.175-1.087c1.021-0.196,2.289-0.147,3.595,0.286
					c1.294,0.432,2.587,1.162,3.956,1.82c1.366,0.669,2.74,1.09,4.04,1.115c1.297,0.051,2.46-0.214,3.385-0.547
					C221.049,367.634,221.932,366.692,221.995,366.776z"/>
			</g>
		</g>
		<g>
			<g>
				<path style="fill:#FAFAFA;" d="M163.925,366.279c0.021,0.021-0.067,0.173-0.325,0.349c-0.255,0.175-0.701,0.342-1.26,0.33
					c-0.554-0.005-1.217-0.172-1.847-0.532c-0.631-0.347-1.233-0.833-1.886-1.252c-1.284-0.875-2.753-0.948-3.737-0.755
					c-1,0.185-1.552,0.552-1.598,0.474c-0.036-0.038,0.458-0.535,1.515-0.833c1.021-0.309,2.696-0.285,4.099,0.675
					c0.692,0.446,1.272,0.933,1.846,1.276c0.562,0.35,1.135,0.53,1.626,0.58C163.367,366.707,163.879,366.203,163.925,366.279z"/>
			</g>
		</g>
		<g>
			<g>
				<g>
					<path style="fill:#FFBE9D;" d="M136.756,398.57l14.55-1.749l10.252,6.722l39.206-9.397l1.148-21.879l17.597-0.433l-0.41,25.675
						c-0.174,8.266-7.045,14.81-15.31,14.581l-57.422-1.59l-2.438-4.887l-12.32-0.366L136.756,398.57z"/>
				</g>
			</g>
			<g>
				<g>
					<g>
						<path style="fill:#EB996E;" d="M200.268,394.147c0.004,0.015-0.25,0.092-0.737,0.224c-0.527,0.137-1.238,0.322-2.134,0.555
							c-1.9,0.473-4.577,1.14-7.867,1.96c-6.69,1.621-15.863,3.844-25.996,6.299c-0.814,0.195-1.621,0.388-2.419,0.579l-0.096,0.023
							l-0.082-0.054c-3.625-2.384-7.077-4.655-10.242-6.737l0.14,0.033c-5.756,0.665-10.741,1.241-14.558,1.682l0.096-0.055
							c-1.627,2.065-2.925,3.713-3.844,4.88c-0.434,0.537-0.778,0.963-1.037,1.284c-0.239,0.289-0.368,0.434-0.378,0.426
							c-0.011-0.008,0.097-0.17,0.316-0.475c0.244-0.333,0.569-0.774,0.978-1.33c0.894-1.186,2.157-2.861,3.74-4.96l0.036-0.047
							l0.061-0.008c3.813-0.476,8.792-1.098,14.542-1.816l0.076-0.009l0.065,0.042c3.171,2.073,6.63,4.334,10.262,6.708
							l-0.178-0.031c0.798-0.191,1.605-0.385,2.418-0.58c10.145-2.405,19.329-4.582,26.027-6.17c3.304-0.761,5.993-1.38,7.901-1.819
							c0.904-0.198,1.622-0.356,2.154-0.472C200.003,394.178,200.264,394.131,200.268,394.147z"/>
					</g>
				</g>
			</g>
			<g>
				<g>
					<g>
						<path style="fill:#EB996E;" d="M144.706,402.738c0,0.126-2.531,0.228-5.652,0.228c-0.353-0.001-0.698-0.003-1.034-0.004
							l0.145-0.053c-2.016,1.688-3.592,2.905-3.664,2.82c-0.072-0.085,1.382-1.444,3.373-3.162l0.062-0.053l0.084,0
							c0.336-0.001,0.681-0.003,1.034-0.004C142.175,402.51,144.706,402.612,144.706,402.738z"/>
					</g>
				</g>
			</g>
			<g>
				<g>
					<g>
						<path style="fill:#EB996E;" d="M207.488,398.53c-0.121,0.074-0.875-1.764-2.856-2.981c-1.955-1.26-3.939-1.145-3.924-1.286
							c-0.005-0.051,0.476-0.164,1.265-0.099c0.785,0.06,1.871,0.353,2.902,0.999c1.028,0.65,1.761,1.502,2.155,2.184
							C207.43,398.03,207.537,398.512,207.488,398.53z"/>
					</g>
				</g>
			</g>
		</g>
	</g>
</g>
</svg>
