<svg xmlns="http://www.w3.org/2000/svg" viewBox="0 0 500 500"><g id="freepik--background-simple--inject-80"><path d="M123.34,328.91c18.39,4.14,38.3,2.11,54.77-5.59,10.69-5,19.81-12.2,30.2-17.67,29-15.26,67.81-15.41,97.91-.37,15.61,7.8,29.11,19.37,46.18,24.08,21.83,6,47.19-1.48,59.89-17.71s11.75-39.95-2.23-56c-16.51-19-47.73-26.77-59-48.43a32.85,32.85,0,0,1,1.11-32.34c5.6-9.05,16-18.39,11.11-28-1.84-3.59-5.57-6.16-9.29-8.39-27-16.19-60.57-22.4-92.64-20.18S198.67,130.79,171.21,145c-30.24,15.62-57.5,36.56-74.82,63.37C80.6,232.77,77.1,258,79.44,285.84c.68,8-.58,15.44,5.1,22.38C93.08,318.67,109.65,325.83,123.34,328.91Z" style="fill:#E8505B"></path><path d="M123.34,328.91c18.39,4.14,38.3,2.11,54.77-5.59,10.69-5,19.81-12.2,30.2-17.67,29-15.26,67.81-15.41,97.91-.37,15.61,7.8,29.11,19.37,46.18,24.08,21.83,6,47.19-1.48,59.89-17.71s11.75-39.95-2.23-56c-16.51-19-47.73-26.77-59-48.43a32.85,32.85,0,0,1,1.11-32.34c5.6-9.05,16-18.39,11.11-28-1.84-3.59-5.57-6.16-9.29-8.39-27-16.19-60.57-22.4-92.64-20.18S198.67,130.79,171.21,145c-30.24,15.62-57.5,36.56-74.82,63.37C80.6,232.77,77.1,258,79.44,285.84c.68,8-.58,15.44,5.1,22.38C93.08,318.67,109.65,325.83,123.34,328.91Z" style="fill:#fff;opacity:0.9"></path></g><g id="freepik--Shadow--inject-80"><ellipse id="freepik--shadow--inject-80" cx="249.41" cy="413.03" rx="193.89" ry="16.64" style="fill:#f5f5f5"></ellipse></g><g id="freepik--character-3--inject-80"><path d="M244.61,254.42S218.12,287.61,213.77,297c-4.25,9.2-15.24,41.95-15.24,41.95l8.11-.38s18.51-24.9,18-36.79c0,0,46.48-30,31.86-47.87Z" style="fill:#E8505B"></path><g style="opacity:0.2"><path d="M244.61,254.42S218.12,287.61,213.77,297c-4.25,9.2-15.24,41.95-15.24,41.95l8.11-.38s18.17-24.08,18-36.79c0,0,46.48-30,31.86-47.87Z" style="fill:#fff"></path></g><polygon points="205.78 338.13 201.99 347.57 197.19 345.19 200.16 336.45 205.78 338.13" style="fill:#ff887b"></polygon><path d="M194.08,345c-.75-.16-1.5-.46-1.68-.84a.56.56,0,0,1,.14-.62.79.79,0,0,1,.52-.24c1.07-.07,2.93,1.58,3,1.66a.14.14,0,0,1,0,.16.14.14,0,0,1-.14.09A10.94,10.94,0,0,1,194.08,345Zm-.71-1.38a1,1,0,0,0-.29,0,.37.37,0,0,0-.32.14c-.14.15-.12.25-.09.3.2.46,1.72.79,2.88.88A6.72,6.72,0,0,0,193.37,343.61Z" style="fill:#E8505B"></path><path d="M196,345.2l-.06,0c-.66-.47-1.84-2.09-1.56-2.75,0-.16.21-.33.61-.29a1.09,1.09,0,0,1,.75.41,4.2,4.2,0,0,1,.45,2.55.14.14,0,0,1-.09.11A.16.16,0,0,1,196,345.2Zm-1-2.77-.08,0c-.26,0-.3.07-.32.1-.12.41.62,1.63,1.27,2.23a3.39,3.39,0,0,0-.41-2,.78.78,0,0,0-.46-.29Z" style="fill:#E8505B"></path><path d="M196.77,344.49l6.61,1.38a.54.54,0,0,1,.43.53l.07,5.62a.91.91,0,0,1-.89.93l-.19,0c-2.38-.54-4.47-1.12-7.43-1.73-3.51-.74-2.7-.13-6.83-.94-2.49-.48-2.35-3.4-1.27-3.32,4.94.41,5.74-.94,8-2.27A2.16,2.16,0,0,1,196.77,344.49Z" style="fill:#263238"></path><polygon points="205.18 339.62 203.76 343.16 198.56 341.15 199.55 338.25 205.18 339.62" style="opacity:0.2"></polygon><polygon points="209.09 337.53 207.9 341.23 197.56 339.18 197.78 335.13 209.09 337.53" style="fill:#E8505B"></polygon><path d="M240.9,289.06l8.6-17.83.49,9.66S248.35,282.39,240.9,289.06Z" style="isolation:isolate;opacity:0.2"></path><path d="M254.23,259.4c-2.17,2.74-9.7,25.86-11.83,38.9-2.24,13.72.14,12.27,9.52,20.68s24.73,19.56,24.73,19.56l5.76-5.08s-12.11-13.55-27-28.31c0,0,20.67-32.69,14.81-45.52C270.2,259.63,260.31,259.73,254.23,259.4Z" style="fill:#E8505B"></path><path d="M254.23,259.4c-2.17,2.74-9.7,25.86-11.83,38.9-2.24,13.72.14,12.27,9.52,20.68s24.73,19.56,24.73,19.56l5.76-5.08s-12.11-13.55-27-28.31c0,0,20.67-32.69,14.81-45.52C270.2,259.63,260.31,259.73,254.23,259.4Z" style="fill:#fff;opacity:0.2"></path><polygon points="279.52 332.06 286.26 339.67 285.13 345.85 275.5 336.33 279.52 332.06" style="fill:#ff887b"></polygon><path d="M283.22,347.62c-.26.72-.67,1.42-1.07,1.54a.54.54,0,0,1-.59-.23.76.76,0,0,1-.16-.55c.09-1.07,2-2.67,2.07-2.74a.15.15,0,0,1,.17,0,.15.15,0,0,1,.07.15A10.62,10.62,0,0,1,283.22,347.62Zm-1.47.51a1.31,1.31,0,0,0-.06.27.39.39,0,0,0,.1.34c.13.17.22.16.29.14.47-.13,1-1.59,1.28-2.72A7,7,0,0,0,281.75,348.13Z" style="fill:#E8505B"></path><path d="M283.7,345.8a.14.14,0,0,1,0,.06c-.57.58-2.34,1.51-2.95,1.15-.15-.07-.3-.26-.2-.66a1.14,1.14,0,0,1,.52-.68,4.23,4.23,0,0,1,2.58-.07.13.13,0,0,1,.1.11A.14.14,0,0,1,283.7,345.8Zm-2.87.56,0,.07c-.07.26,0,.31.06.34.38.18,1.7-.38,2.39-.94a3.45,3.45,0,0,0-2.06.12.71.71,0,0,0-.35.41Z" style="fill:#E8505B"></path><path d="M283.12,344.89l2.33-6.34a.55.55,0,0,1,.58-.35l5.58.75a.9.9,0,0,1,.78,1,1.29,1.29,0,0,1,0,.19c-.88,2.27-1.76,4.25-2.8,7.1-1.23,3.36-.52,2.65-1.91,6.62-.84,2.39-3.71,1.83-3.47.77,1.12-4.82-.1-5.82-1.1-8.2A2.18,2.18,0,0,1,283.12,344.89Z" style="fill:#263238"></path><polygon points="280.58 333.26 283.55 336.65 279.62 340.4 276.84 337.69 280.58 333.26" style="opacity:0.2"></polygon><polygon points="281.58 329.75 283.99 332.81 276.53 340.26 273.29 337.82 281.58 329.75" style="fill:#E8505B"></polygon><g id="freepik--character-2--inject-18--inject-80"><path d="M254.66,222.45,254,222l-.65-.4c-.42-.27-11.37-14.85-12.07-16.8l-.1-.28a3,3,0,0,1-.09-1.79c.43-1.67,3.95-15.89,5.55-18.7a2.08,2.08,0,0,1,2.82-.78,2.05,2.05,0,0,1,1,2.24h0c-.68,3.11-2,15.95-1.67,16.59,3.32,5.74,15.51,13.22,11.81,18.42-1.19,1.94-4,3.07-5.9,1.88h0Z" style="fill:#E8505B"></path><path d="M254.66,222.45,254,222l-.65-.4c-.42-.27-11.37-14.85-12.07-16.8l-.1-.28a3,3,0,0,1-.09-1.79c.43-1.67,3.95-15.89,5.55-18.7a2.08,2.08,0,0,1,2.82-.78,2.05,2.05,0,0,1,1,2.24h0c-.68,3.11-2,15.95-1.67,16.59,3.32,5.74,15.51,13.22,11.81,18.42-1.19,1.94-4,3.07-5.9,1.88h0Z" style="isolation:isolate;opacity:0.1"></path><path d="M251.15,183.42,250,185.55l-3.38-.15c-1.91-2.88-.27-6.15-.27-6.15h0l.34-1.32a1.8,1.8,0,0,1,1.93-1.35l1.81.15a1.82,1.82,0,0,1,1.67,1.76l0,.75A7.77,7.77,0,0,1,251.15,183.42Z" style="fill:#ff887b"></path><path d="M253.19,217.19c-2,4.46-4,21.34-8.57,37.35,4.41,4.74,22.44,7.26,25.84,5.16,1.19-3.71,5.8-16.46,11.39-33.64a4.74,4.74,0,0,0-2.3-6.29l-.17-.07c-1.26-.52-2.65-1-4-1.51a101,101,0,0,0-11.3-3.1c-1.49-.24-3.93-1.1-5.21-1.2A5.64,5.64,0,0,0,253.19,217.19Z" style="fill:#E8505B"></path><path d="M274.71,208.77c-1.19,3.18-2,7-.61,9.18-.75,1.61-5.19,4.06-10.29,1.47-2.7-1.37-1-4.37-1-4.37,3.67-.52,4.33-2.93,4.31-5.78l6.06-2.29C274.18,206.51,275.15,207.61,274.71,208.77Z" style="fill:#ff887b"></path><path d="M274.68,208.68c.44-1.17-.53-2.22-1.55-1.76l-6,2.26a7.17,7.17,0,0,1-.71,3.62,7,7,0,0,0,3.27.52,7.2,7.2,0,0,0,4-1.51A26.93,26.93,0,0,1,274.68,208.68Z" style="isolation:isolate;opacity:0.2"></path><path d="M278.67,196.2c-2-1-4.46-.57-6.49.38s-3.86,2.32-5.93,3.19a2.32,2.32,0,0,1-1.66.07,1.65,1.65,0,0,1-.95-1.7,3.7,3.7,0,0,1,.85-1.88,10,10,0,0,1,8.91-3.87C275.77,192.69,278.41,194.91,278.67,196.2Z" style="fill:#263238"></path><path d="M279.35,203.73c-1.94,4.32-2.86,7-6.23,8.3-5.08,2-10.48-2.3-10-7.21.42-4.39,3.56-10.73,9.11-10.67S281.31,199.41,279.35,203.73Z" style="fill:#ff887b"></path><path d="M272.14,192.89s2.34.9,1.91,2.6c-.73,2.93-.24,5.59.35,6.42.84,1.17,2.37,1.47,3.7,2l3.83,1.5a3.39,3.39,0,0,0,1.58-2.78,12.54,12.54,0,0,0-.39-4.66,7,7,0,0,0-4-3.92A21.45,21.45,0,0,0,272.14,192.89Z" style="fill:#263238"></path><path d="M271.07,200.84c-.23.36-.6.54-.84.39s-.24-.57,0-.92.6-.54.84-.39S271.29,200.49,271.07,200.84Z" style="fill:#263238"></path><path d="M266.67,199.25c-.23.37-.6.54-.84.39s-.24-.56,0-.92.6-.54.84-.39S266.89,198.91,266.67,199.25Z" style="fill:#263238"></path><path d="M273.28,200.23a.25.25,0,0,1-.16-.21,2,2,0,0,0-.91-1.56.26.26,0,0,1-.11-.34h0a.25.25,0,0,1,.34-.1h0a2.47,2.47,0,0,1,1.18,1.95.26.26,0,0,1-.22.28Z" style="fill:#263238"></path><path d="M265.89,196.66a.24.24,0,0,1-.13-.33.2.2,0,0,1,.09-.11,2.47,2.47,0,0,1,2.28-.27.25.25,0,0,1,.12.33h0a.24.24,0,0,1-.33.12h0a2,2,0,0,0-1.79.21A.26.26,0,0,1,265.89,196.66Z" style="fill:#263238"></path><path d="M267.45,200.11a12.89,12.89,0,0,1-3,1.92,2.1,2.1,0,0,0,1.38,1.12Z" style="fill:#ff5652"></path><path d="M277.17,203.52a12,12,0,0,1-.67,3.34c-.56,1.84-2,4.44-2.79,4.95,2.18-1.53,6.77-2.75,7.58-6.68Z" style="fill:#263238"></path><path d="M279.11,207.43a3.9,3.9,0,0,1-2.72.78c-1.22-.17-1.13-1.43-.23-2.41s2.4-1.83,3.34-1.18S280.13,206.67,279.11,207.43Z" style="fill:#ff887b"></path><path d="M264.53,204.28a38.54,38.54,0,0,1,6.58,1.26c-.92,1.15-2.26,1.94-4.71,1.31S264.53,204.28,264.53,204.28Z" style="fill:#263238"></path><path d="M267.83,206.13a5,5,0,0,0-2.85,0,2.83,2.83,0,0,0,1.43.77,5,5,0,0,0,2.83,0A2.75,2.75,0,0,0,267.83,206.13Z" style="fill:#ff5652"></path><path d="M264.76,204.3a.91.91,0,0,0,.57.82,27.33,27.33,0,0,0,4.31.73,1.43,1.43,0,0,0,1.26-.36A45.9,45.9,0,0,0,264.76,204.3Z" style="fill:#fff"></path></g><path d="M282.72,223.17l.33,1.14.36,1.19c.25.79.51,1.58.79,2.38.54,1.58,1.14,3.16,1.75,4.68s1.28,3,2,4.48a40.87,40.87,0,0,0,2.4,4.09l-.22-.26a11.2,11.2,0,0,0,2,1.81,32.31,32.31,0,0,0,2.68,1.89c.94.61,1.89,1.24,2.86,1.86s2,1.24,2.94,1.86l0,0a2,2,0,0,1-1.45,3.57,36.52,36.52,0,0,1-3.57-.9q-1.77-.52-3.51-1.2a36.42,36.42,0,0,1-3.48-1.59,15.64,15.64,0,0,1-3.61-2.53l-.09-.08-.13-.18a38.3,38.3,0,0,1-3.33-4.76,51.88,51.88,0,0,1-2.61-5c-.78-1.69-1.47-3.42-2.09-5.16-.3-.88-.59-1.76-.86-2.65s-.52-1.74-.76-2.75a3.9,3.9,0,1,1,7.53-2h0Z" style="fill:#E8505B"></path><path d="M300,248.24l4.23.1-1,5.67a5.89,5.89,0,0,1-4.68-3Z" style="fill:#ff887b"></path><path d="M307.4,251.87l-.9,1.68a1.65,1.65,0,0,1-1.91.82l-1.31-.36,1-5.67,2.46,1.28a1.65,1.65,0,0,1,.71,2.24Z" style="fill:#ff887b"></path><path d="M281.07,92.13a34.75,34.75,0,1,0-69.5.82c.16,13.92,11.35,23.21,18.49,34.15,2.21,3.39,2.12,16.16,2.12,16.16l29.48-.35s-.39-12.76,1.74-16.2C270.27,115.6,281.24,106.05,281.07,92.13Z" style="fill:#E8505B"></path><path d="M281.07,92.13a34.75,34.75,0,1,0-69.5.82c.16,13.92,11.35,23.21,18.49,34.15,2.21,3.39,2.12,16.16,2.12,16.16l29.48-.35s-.39-12.76,1.74-16.2C270.27,115.6,281.24,106.05,281.07,92.13Z" style="fill:#fff;opacity:0.5"></path><path d="M253.45,151.52l-12.58.15a8.46,8.46,0,0,1-8.55-8.35h0L261.8,143h0A8.45,8.45,0,0,1,253.45,151.52Z" style="fill:#263238"></path><path d="M247.75,158.64h0a6.9,6.9,0,0,1-7-6.81h0l13.78-.16h0A6.89,6.89,0,0,1,247.75,158.64Z" style="fill:#263238"></path><path d="M254.56,151.67h0a6.89,6.89,0,0,1-6.81,7h0a6.9,6.9,0,0,1-7-6.81h0" style="fill:#fff;opacity:0.2"></path><path d="M276.91,85.73c.15,21.87-13.38,46.76-30.28,46.88s-30.79-27.52-30.92-46.46c-.08-11.67,13.55-21.23,30.45-21.34S276.83,74.06,276.91,85.73Z" style="fill:#fff;opacity:0.30000000000000004"></path><circle cx="246.58" cy="107.24" r="19.7" transform="matrix(0.77, -0.64, 0.64, 0.77, -11.75, 181.86)" style="fill:#fff;opacity:0.4"></circle><path d="M260.3,112.12c.05,7.65-6.13,10-13.78,10.07s-13.85-2.23-13.9-9.88,6.12-9.91,13.77-10S260.24,104.48,260.3,112.12Z" style="fill:#fff;opacity:0.4"></path><rect x="239.12" y="106.57" width="1.8" height="36.64" transform="translate(-8.92 18.89) rotate(-4.43)" style="fill:#fff"></rect><rect x="235.07" y="123.9" width="36.64" height="1.8" transform="translate(112.78 369.77) rotate(-86.37)" style="fill:#fff"></rect><polygon points="246.73 121.19 238.89 113.45 240.15 112.17 246.72 118.65 253.08 112.19 254.35 113.46 246.73 121.19" style="fill:#fff"></polygon><path d="M244.28,221.05a.5.5,0,0,1-.49-.38,13.16,13.16,0,0,1,0-6,28.4,28.4,0,0,1,1-3,9.85,9.85,0,0,0,.43-8.59,15.47,15.47,0,0,1-.8-3.32,16.19,16.19,0,0,1,1.14-8.66c.3-.63.65-1.26,1-1.93,1.19-2.1,2.41-4.28,1.7-6.2a.5.5,0,0,1,.3-.64.49.49,0,0,1,.64.3c.87,2.35-.53,4.84-1.77,7-.37.66-.71,1.27-1,1.87a15.33,15.33,0,0,0-1,8.14,14.91,14.91,0,0,0,.76,3.1,14.34,14.34,0,0,1,.82,3.58,14.2,14.2,0,0,1-1.26,5.67,26.21,26.21,0,0,0-1,2.92,12.14,12.14,0,0,0,0,5.59.5.5,0,0,1-.38.6Z" style="fill:#263238"></path><path d="M248.89,185.09a.51.51,0,0,1-.5-.48l-1.26-29.48a.5.5,0,0,1,.48-.52.48.48,0,0,1,.52.48l1.26,29.48a.49.49,0,0,1-.47.52Z" style="fill:#263238"></path></g></svg>