<svg xmlns="http://www.w3.org/2000/svg" viewBox="0 0 500 500"><g id="freepik--background-simple--inject-84"><path d="M393.28,131.54l-1.7-2.81c-14.34-23.62-40.27-37.87-67.6-36.14A71.11,71.11,0,0,0,313.52,94c-24.85,5.32-46.47,24.11-55.44,48.18-5.27,14.15-6.74,30.45-16.74,41.68-13,14.62-35.12,15.08-54.55,14.48s-41.55-.09-54.5,14.59c-8.12,9.19-10.7,22.26-10,34.58,1.73,32.59,24.44,61.74,53.33,76.22s62.9,15.79,94.51,9.42c44.29-8.93,86.4-33.45,111.72-71.32S413.53,172.41,393.28,131.54Z" style="fill:#f5f5f5"></path><circle cx="117.26" cy="120.56" r="35.72" style="fill:#f5f5f5"></circle><circle cx="410.76" cy="79.4" r="17.86" transform="translate(266.95 472.27) rotate(-80.83)" style="fill:#f5f5f5"></circle></g><g id="freepik--Floor--inject-84"><path d="M471.72,476c0,.15-100.42.26-224.26.26S23.18,476.14,23.18,476s100.39-.26,224.28-.26S471.72,475.85,471.72,476Z" style="fill:#263238"></path></g><g id="freepik--Plants--inject-84"><path d="M205.31,447.05a5.42,5.42,0,0,1,2.79,3.16,9.57,9.57,0,0,1,.37,4.29,16.89,16.89,0,0,1-3.6,7.81c-2.34-2.05-2.88-5.61-3-7.44-.25-2.88,1-8.25,3.48-7.82" style="fill:#455a64"></path><path d="M207.59,466.89a4.61,4.61,0,0,1,1.49-4.37,6.13,6.13,0,0,1,4.5-1.4,2.57,2.57,0,0,1,2,.89,2,2,0,0,1,0,2,3.89,3.89,0,0,1-1.48,1.45c-2,1.27-4.22,2.13-6.52,1.44" style="fill:#455a64"></path><path d="M204.59,475.42a4.43,4.43,0,0,1,.08-.57c.08-.4.17-.92.29-1.54a16.31,16.31,0,0,1,1.59-4.94,9.89,9.89,0,0,1,3.54-3.76,7.56,7.56,0,0,1,1.44-.64,3.35,3.35,0,0,1,.42-.1c.1,0,.15,0,.15,0a10,10,0,0,0-1.93.88,10.2,10.2,0,0,0-3.44,3.74,17.39,17.39,0,0,0-1.63,4.86c-.14.65-.26,1.18-.35,1.54A3.54,3.54,0,0,1,204.59,475.42Z" style="fill:#263238"></path><path d="M204.68,451.22a.87.87,0,0,1,0,.25c0,.19,0,.43,0,.72,0,.62.07,1.52.11,2.64.07,2.23.13,5.31.11,8.71s-.1,6.48-.19,8.71c0,1.11-.09,2-.13,2.63l-.05.72a.87.87,0,0,1,0,.25s0-.09,0-.25,0-.43,0-.72c0-.65,0-1.54.07-2.64.05-2.23.11-5.3.13-8.7s0-6.48-.06-8.71c0-1.09,0-2,0-2.64v-.71A1,1,0,0,1,204.68,451.22Z" style="fill:#263238"></path><path d="M203.54,468.59a10.74,10.74,0,0,0-5.87-7.88,2.29,2.29,0,0,0-2.45,0,2.23,2.23,0,0,0-.18,2.44,9.19,9.19,0,0,0,8.45,5.71" style="fill:#455a64"></path><path d="M198.05,463.35a2.75,2.75,0,0,1,.5.21c.16.08.35.17.56.3a11.33,11.33,0,0,1,1.53,1.07,8.88,8.88,0,0,1,.87.79,11.82,11.82,0,0,1,1.66,2.12,11.68,11.68,0,0,1,1.08,2.47,8.59,8.59,0,0,1,.28,1.14,8.12,8.12,0,0,1,.14,1c0,.31,0,.6,0,.85a5.93,5.93,0,0,1,0,.63,4,4,0,0,1-.06.54s0-.77-.1-2a8.38,8.38,0,0,0-.17-1,10.78,10.78,0,0,0-.28-1.12A12.69,12.69,0,0,0,203,468a12.34,12.34,0,0,0-1.61-2.1,8.76,8.76,0,0,0-.85-.79,8,8,0,0,0-.79-.63C198.74,463.71,198,463.39,198.05,463.35Z" style="fill:#263238"></path><path d="M311.17,453.23a17.88,17.88,0,0,1,1.37,3c.76,1.92,1.71,4.6,2.6,7.62s1.53,5.8,1.93,7.83a18.3,18.3,0,0,1,.49,3.3,25.62,25.62,0,0,1-.85-3.22c-.49-2-1.19-4.75-2.07-7.76s-1.78-5.7-2.45-7.64A25.62,25.62,0,0,1,311.17,453.23Z" style="fill:#263238"></path><path d="M323.88,453.22a19.89,19.89,0,0,1-.07,3.1c-.08,1.91-.15,4.54-.12,7.46s.19,5.54.32,7.45a23.46,23.46,0,0,1,.15,3.1,15.64,15.64,0,0,1-.52-3.07c-.22-1.9-.43-4.55-.47-7.48a74.8,74.8,0,0,1,.28-7.49A16,16,0,0,1,323.88,453.22Z" style="fill:#263238"></path><path d="M337.45,457.71a24.12,24.12,0,0,1-1.23,2.51,45.76,45.76,0,0,0-2.54,6.22,45,45,0,0,0-1.55,6.53,23.45,23.45,0,0,1-.45,2.76,11.27,11.27,0,0,1,.09-2.81,34.3,34.3,0,0,1,4.12-12.87A10.84,10.84,0,0,1,337.45,457.71Z" style="fill:#263238"></path><path d="M449.79,462a6,6,0,0,1,1,1.69,29.1,29.1,0,0,1,2.51,9,6,6,0,0,1,0,1.94c-.15,0-.45-2.93-1.44-6.42S449.65,462.08,449.79,462Z" style="fill:#263238"></path><path d="M459.62,452.85a31.87,31.87,0,0,1-.76,3.15,55.69,55.69,0,0,0-1.3,7.66,54.08,54.08,0,0,0-.15,7.78,28.06,28.06,0,0,1,.15,3.23,3.12,3.12,0,0,1-.21-.85c-.1-.55-.21-1.36-.31-2.36a41.6,41.6,0,0,1,0-7.84,42.74,42.74,0,0,1,1.45-7.71c.29-1,.54-1.74.75-2.26A3,3,0,0,1,459.62,452.85Z" style="fill:#263238"></path><path d="M469.15,460.6a73.88,73.88,0,0,0-3.15,7.17,78,78,0,0,0-1.86,7.6,8.43,8.43,0,0,1,.1-2.32,29,29,0,0,1,1.27-5.45,28,28,0,0,1,2.31-5.1A7.86,7.86,0,0,1,469.15,460.6Z" style="fill:#263238"></path><path d="M25.88,459.57a9.55,9.55,0,0,1,1.32,2A40.82,40.82,0,0,1,29.63,467a40.55,40.55,0,0,1,1.62,5.64,8.83,8.83,0,0,1,.33,2.42,15.7,15.7,0,0,1-.68-2.33c-.39-1.44-1-3.42-1.76-5.55s-1.63-4-2.27-5.36A13.74,13.74,0,0,1,25.88,459.57Z" style="fill:#263238"></path><path d="M36.86,451.12c.14,0,.49,5.5.77,12.29s.4,12.31.25,12.32-.49-5.5-.77-12.3S36.71,451.12,36.86,451.12Z" style="fill:#263238"></path><path d="M48.78,457.79a17.72,17.72,0,0,1-.8,2.78c-.54,1.7-1.26,4.05-2,6.67s-1.29,5-1.69,6.76a19.38,19.38,0,0,1-.72,2.8,13.93,13.93,0,0,1,.36-2.88c.31-1.76.83-4.18,1.55-6.81s1.51-5,2.13-6.66A14.17,14.17,0,0,1,48.78,457.79Z" style="fill:#263238"></path></g><g id="freepik--Lines--inject-84"><path d="M240.67,465.33c-.14,0-.26-12.24-.26-27.35s.12-27.35.26-27.35.26,12.24.26,27.35S240.81,465.33,240.67,465.33Z" style="fill:#263238"></path><path d="M246,452.13c-.14,0-.26-13.68-.26-30.56S245.81,391,246,391s.27,13.68.27,30.56S246.1,452.13,246,452.13Z" style="fill:#263238"></path></g><g id="freepik--Sparkles--inject-84"><path d="M249,71.47l.46.76a5.21,5.21,0,0,0,2.16,2l.8.39-.76.46a5.3,5.3,0,0,0-2,2.17l-.39.8-.46-.77a5.27,5.27,0,0,0-2.17-2l-.8-.39.77-.47a5.19,5.19,0,0,0,2-2.16Z" style="fill:#E8505B"></path><path d="M243,12.43l.43.72a5,5,0,0,0,2,1.88l.75.38-.72.43a5,5,0,0,0-1.88,2.05l-.38.75-.43-.72a5,5,0,0,0-2-1.88l-.75-.38.72-.43a5,5,0,0,0,1.88-2.05Z" style="fill:#E8505B"></path><path d="M176.82,66.59l.34.57a3.94,3.94,0,0,0,1.62,1.49l.6.3-.57.34a3.93,3.93,0,0,0-1.5,1.63l-.29.59-.35-.57a3.88,3.88,0,0,0-1.62-1.49l-.6-.3.58-.34a3.94,3.94,0,0,0,1.49-1.62Z" style="fill:#E8505B"></path><path d="M249.08,19.34l.25.42a2.86,2.86,0,0,0,1.18,1.08l.43.22-.41.25a2.82,2.82,0,0,0-1.09,1.18l-.22.43-.25-.41a2.82,2.82,0,0,0-1.18-1.09l-.43-.22.41-.25a2.82,2.82,0,0,0,1.09-1.18Z" style="fill:#E8505B"></path><path d="M169.11,43.16l.25.42a2.89,2.89,0,0,0,1.18,1.09l.44.21-.42.25a2.8,2.8,0,0,0-1.08,1.18l-.22.44-.25-.42a2.89,2.89,0,0,0-1.18-1.09l-.44-.21.42-.25a2.89,2.89,0,0,0,1.09-1.18Z" style="fill:#E8505B"></path></g><g id="freepik--character-2--inject-84"><path d="M213.83,144.67l6.35,36.8a10.47,10.47,0,0,0,1.16,3.3c2.76,5,11.29,20.82,12.64,27.74l2.83,7.67,5.17,9.7s16.76-7.95,13.94-19.66l-3.77-4.2-18.61-31.53-9.9-33.84Z" style="fill:#ffbf9d"></path><path d="M218.33,124.56s.81-.47.75-1.2c0-.46-1.47-1.57-2.53-2.34a2.46,2.46,0,0,0-2.32-.29h0a2.46,2.46,0,0,0-1.55,2.28v2.88a2.05,2.05,0,0,0-.33,1.91s-1.91.11-1.74,3a3.14,3.14,0,0,0-1.29,3c.28,2,1,6.23,2.63,8.81l2.59,2.75,9.09-4.15.54-8.12a6.63,6.63,0,0,0-2.24-5.43Z" style="fill:#ffbf9d"></path><path d="M183.6,44.76A30.24,30.24,0,1,1,229,70.27a3.44,3.44,0,0,0-1.72,3.06c.06,2.89.11,5.52.11,5.52l-26.49.55s-.19-3.23-.33-6.58a2.63,2.63,0,0,0-1.32-2.18A30.2,30.2,0,0,1,183.6,44.76Z" style="fill:#E8505B"></path><g style="opacity:0.2"><path d="M195.46,50.84a5.38,5.38,0,0,1-3.85-2.31,9.52,9.52,0,0,1-2-6.93c.73-7.3,3.17-12.26,9.09-17.12,2-1.65,5.66-3.54,8.37-3.33a4.87,4.87,0,0,1,3.51,1.77c2.21,2.79.16,6.55-2.38,8.73-2.36,2-5.32,3.61-6.66,6.42-1.1,2.32-.88,5-1.35,7.54S198,50.85,195.46,50.84Z" style="fill:#fff"></path></g><g style="opacity:0.2"><path d="M218.19,22.35a4.81,4.81,0,0,1,5.51-2.11,4.93,4.93,0,0,1,2.73,3.32,4.5,4.5,0,0,1-1.9,4.67,4.27,4.27,0,0,1-5-.37C218.2,26.66,217.33,23.92,218.19,22.35Z" style="fill:#fff"></path></g><path d="M226.94,83.6H200.72a3.44,3.44,0,0,1-3.43-3.43h0a3.43,3.43,0,0,1,3.43-3.43h26.22a3.42,3.42,0,0,1,3.43,3.43h0A3.43,3.43,0,0,1,226.94,83.6Z" style="fill:#263238"></path><path d="M225.49,90.47H202.17A3.43,3.43,0,0,1,198.74,87h0a3.43,3.43,0,0,1,3.43-3.43h23.32A3.44,3.44,0,0,1,228.93,87h0A3.44,3.44,0,0,1,225.49,90.47Z" style="fill:#263238"></path><path d="M221.52,96.73h-14.4a3.43,3.43,0,0,1-3.44-3.43h0a3.43,3.43,0,0,1,3.44-3.43h14.4A3.43,3.43,0,0,1,225,93.3h0A3.43,3.43,0,0,1,221.52,96.73Z" style="fill:#263238"></path><path d="M215.39,95.33l-1.67,1.34A20.93,20.93,0,0,0,212,99c-.23.37-.45.84-.22,1.21a.84.84,0,0,0,1,.25,2.5,2.5,0,0,0,.85-.67,3,3,0,0,0,.61,1.5,1.1,1.1,0,0,0,1.46.25,1.55,1.55,0,0,0,.39-1.3A21.16,21.16,0,0,0,215.39,95.33Z" style="fill:#263238"></path><path d="M200.58,20s-.62.44-1.72,1.25a29.67,29.67,0,0,0-9.05,11,27.51,27.51,0,0,0-1.48,20.42A29.45,29.45,0,0,0,192,60.38a29,29,0,0,0,3.68,4.47c1,1,1.56,1.46,1.52,1.49s-.16-.09-.45-.32a14.83,14.83,0,0,1-1.21-1,26.09,26.09,0,0,1-3.84-4.4,28.94,28.94,0,0,1-3.85-7.78A28.29,28.29,0,0,1,194.3,24.9a26.42,26.42,0,0,1,4.44-3.81,15,15,0,0,1,1.35-.84A1.85,1.85,0,0,1,200.58,20Z" style="fill:#fff"></path><path d="M214.12,15.65a33.65,33.65,0,0,1-3.39.14c-1.85.13-3.33.48-3.37.34a6.75,6.75,0,0,1,3.34-.85A7,7,0,0,1,214.12,15.65Z" style="fill:#fff"></path><path d="M201,81.81c0,.06-.32,0-.65-.3a2.14,2.14,0,0,1-.66-1.61,2.08,2.08,0,0,1,.78-1.54c.36-.28.65-.31.67-.25s-.17.22-.41.51a2.24,2.24,0,0,0-.52,1.3,2.33,2.33,0,0,0,.41,1.35C200.81,81.58,201,81.74,201,81.81Z" style="fill:#fff"></path><path d="M203.65,89c0,.06-.36.15-.88-.08a2.18,2.18,0,0,1-1.29-1.71,2.21,2.21,0,0,1,.85-2c.45-.34.82-.34.83-.28s-.27.2-.59.56a2,2,0,0,0,.37,3.09C203.34,88.85,203.65,88.9,203.65,89Z" style="fill:#fff"></path><path d="M209.08,95.61c0,.06-.38.06-.87-.25a2.49,2.49,0,0,1-.33-3.91c.42-.39.78-.45.8-.39s-.24.25-.53.64a2.42,2.42,0,0,0,.29,3.37C208.8,95.4,209.1,95.53,209.08,95.61Z" style="fill:#fff"></path><path d="M228,83.86c0,.15-6.43.26-14.35.26s-14.36-.11-14.36-.26,6.43-.26,14.36-.26S228,83.72,228,83.86Z" style="fill:#455a64"></path><path d="M226.41,90.47c0,.14-5.56.26-12.42.26s-12.42-.12-12.42-.26,5.56-.26,12.42-.26S226.41,90.32,226.41,90.47Z" style="fill:#455a64"></path><path d="M222.51,92.55c.05,0,.26.16.37.6a1.91,1.91,0,0,1-.38,1.67,2,2,0,0,1-1.55.72c-.45,0-.69-.19-.67-.25s.28-.05.64-.12a2.07,2.07,0,0,0,1.18-.68,2,2,0,0,0,.42-1.29C222.52,92.83,222.44,92.59,222.51,92.55Z" style="fill:#455a64"></path><path d="M226.94,85.58c.06,0,.25.21.34.67a2.64,2.64,0,0,1-1.65,3c-.45.17-.74.13-.75.07s1.06-.42,1.66-1.51A5.34,5.34,0,0,0,226.94,85.58Z" style="fill:#455a64"></path><path d="M228.09,78.52c.07,0,.16.24.24.65a4.23,4.23,0,0,1,0,1.68,2.52,2.52,0,0,1-.9,1.47c-.37.27-.67.29-.68.22s.19-.2.43-.49a3.08,3.08,0,0,0,.64-1.31C228,79.59,227.91,78.53,228.09,78.52Z" style="fill:#455a64"></path><path d="M241.63,43a5.38,5.38,0,0,1,.13,1.25,14.21,14.21,0,0,1,0,1.48,18.39,18.39,0,0,1-.14,2,18.85,18.85,0,0,1-.38,2.36,24.09,24.09,0,0,1-.68,2.65A30.08,30.08,0,0,1,238,58.38a30.13,30.13,0,0,1-3.76,5,26.25,26.25,0,0,1-2,1.88,20.06,20.06,0,0,1-1.87,1.48,16.72,16.72,0,0,1-1.65,1.07,10.58,10.58,0,0,1-1.3.72,6.54,6.54,0,0,1-1.15.5c0-.1,1.58-.85,3.88-2.59A20.4,20.4,0,0,0,232,65a26.08,26.08,0,0,0,1.92-1.89,31.61,31.61,0,0,0,3.66-5,32.29,32.29,0,0,0,2.54-5.61c.27-.91.55-1.77.71-2.6a20.74,20.74,0,0,0,.43-2.3C241.66,44.76,241.52,43,241.63,43Z" style="fill:#263238"></path><path d="M202.33,75.29c-.12.07-.6-.8-.47-2s.76-1.93.86-1.84-.25.86-.34,1.9S202.47,75.24,202.33,75.29Z" style="fill:#fff"></path><path d="M221.59,78.08a1.09,1.09,0,0,1-.09-.28c-.05-.22-.12-.5-.21-.85-.18-.75-.43-1.85-.68-3.29a70.52,70.52,0,0,1-1.05-12.31c0-1.31.06-2.67.14-4.1a11.41,11.41,0,0,1,1-4.37,4.63,4.63,0,0,1,1.59-1.82,2.42,2.42,0,0,1,1.22-.46,1.23,1.23,0,0,1,1.22.66,3.09,3.09,0,0,1-.38,2.58,6.61,6.61,0,0,1-1.63,2.06,7.39,7.39,0,0,1-5,1.82,6.49,6.49,0,0,1-4.91-2.59,7.27,7.27,0,0,1-1.51-5.57,4.06,4.06,0,0,1,1.46-2.68,2.06,2.06,0,0,1,1.6-.35,2.41,2.41,0,0,1,1.37.9,4.83,4.83,0,0,1,1,2.92,8.69,8.69,0,0,1-.43,3A9.06,9.06,0,0,1,212.81,58a8.94,8.94,0,0,1-10.41-.44,6,6,0,0,1-1.7-2,3,3,0,0,1-.12-2.6,2.22,2.22,0,0,1,2.11-1.39,2.91,2.91,0,0,1,2,1.37,26.26,26.26,0,0,1,3,8,30.46,30.46,0,0,1,0,12.32,23.45,23.45,0,0,1-1.34,4.32,1,1,0,0,1,.07-.29c.07-.21.15-.49.26-.83.22-.73.52-1.82.81-3.24a30.8,30.8,0,0,0-.13-12.2,26,26,0,0,0-3-7.86A2.48,2.48,0,0,0,202.66,52,1.74,1.74,0,0,0,201,53.11a2.55,2.55,0,0,0,.12,2.2,5.43,5.43,0,0,0,1.58,1.84,8.44,8.44,0,0,0,9.82.4,8.53,8.53,0,0,0,3.23-4.39,8,8,0,0,0,.41-2.79,4.29,4.29,0,0,0-.84-2.61,1.9,1.9,0,0,0-1.06-.72,1.53,1.53,0,0,0-1.2.27,3.54,3.54,0,0,0-1.25,2.34,6.72,6.72,0,0,0,1.4,5.16,6,6,0,0,0,4.53,2.41,6.9,6.9,0,0,0,4.69-1.68A6.48,6.48,0,0,0,224,53.63a2.77,2.77,0,0,0,.4-2.16c-.29-.62-1.22-.46-1.8,0a4.27,4.27,0,0,0-1.45,1.65,11.13,11.13,0,0,0-1,4.2c-.09,1.41-.15,2.77-.17,4.07a74.6,74.6,0,0,0,.88,12.28c.22,1.44.44,2.55.58,3.3.07.35.12.63.16.86A.92.92,0,0,1,221.59,78.08Z" style="fill:#263238"></path><path d="M214.19,195.73a1.7,1.7,0,0,1-.07.39l-.31,1.18,0,.15-.07-.14a12.09,12.09,0,0,1-.82-7.19,37.47,37.47,0,0,1,1.33-5.5,36.49,36.49,0,0,0,1.55-6.56,23.48,23.48,0,0,0-.7-7.65c-.59-2.66-1.43-5.44-1.84-8.45a33.94,33.94,0,0,1,.26-9.36c.48-3.2,1.28-6.42,2.07-9.69a75,75,0,0,0,2.1-11.24,42,42,0,0,0-.58-10.59c-.56-3.35-1.31-6.5-1.94-9.47a67.55,67.55,0,0,1-1.32-8.35,52.2,52.2,0,0,1,.09-12.21A16.66,16.66,0,0,1,215,86.7l-.06.29-.23.83a29.28,29.28,0,0,0-.58,3.25,54.08,54.08,0,0,0,.08,12.15,69.45,69.45,0,0,0,1.37,8.3c.64,3,1.41,6.11,2,9.48a41.86,41.86,0,0,1,.62,10.71,74.81,74.81,0,0,1-2.1,11.32c-.8,3.28-1.6,6.48-2.07,9.64a33.46,33.46,0,0,0-.28,9.23c.38,3,1.21,5.73,1.8,8.42a23.54,23.54,0,0,1,.65,7.78,36.47,36.47,0,0,1-1.61,6.62,37.17,37.17,0,0,0-1.4,5.45,12.36,12.36,0,0,0,.66,7.09h-.11c.15-.5.27-.88.36-1.17A2.3,2.3,0,0,1,214.19,195.73Z" style="fill:#263238"></path><path d="M211.47,132.26a4,4,0,0,1,5.21,2.28,2.78,2.78,0,0,1,.64,1.64,1.65,1.65,0,0,1-1.73,1.4,2.23,2.23,0,0,1-1.82-1.47,6.16,6.16,0,0,1-1.94,1.76" style="fill:#ffbf9d"></path><path d="M211.83,137.87a12.51,12.51,0,0,0,1.79-1.87l.2-.29.14.33a2.05,2.05,0,0,0,1.55,1.28,1.36,1.36,0,0,0,1.54-1.36,3,3,0,0,0-.6-1.3c-.28-.42-.55-.82-.83-1.16a3.21,3.21,0,0,0-1.91-1.24,5.83,5.83,0,0,0-1.62,0c-.39,0-.61.05-.62,0s.2-.11.59-.21a4.72,4.72,0,0,1,1.7-.16,3.51,3.51,0,0,1,2.22,1.3,12.35,12.35,0,0,1,.9,1.19,3.6,3.6,0,0,1,.69,1.53,1.66,1.66,0,0,1-.66,1.49,1.9,1.9,0,0,1-1.47.4,2.43,2.43,0,0,1-1.85-1.62l.34,0A4.17,4.17,0,0,1,211.83,137.87Z" style="fill:#ff9a6c"></path><path d="M213.53,123a10.07,10.07,0,0,1,1.52.89,5.85,5.85,0,0,0,1.57.81,2.25,2.25,0,0,0,1.71-.13,1.42,1.42,0,0,0,.72-1.49l-2.9-2.33" style="fill:#ffbf9d"></path><path d="M216.15,120.74a16.93,16.93,0,0,1,3.06,2.14l.06.05,0,.09a1.63,1.63,0,0,1-.74,1.7,2.5,2.5,0,0,1-2.25.12,6.68,6.68,0,0,1-1.51-.91,13.77,13.77,0,0,1-1.26-.94c0-.08.63.11,1.47.64a8.37,8.37,0,0,0,1.47.76,2.14,2.14,0,0,0,1.8-.1,1.17,1.17,0,0,0,.54-1.16l.08.14A17.3,17.3,0,0,1,216.15,120.74Z" style="fill:#ff9a6c"></path><path d="M212.73,126.08a5.06,5.06,0,0,1,7.59,3.55,2.22,2.22,0,0,1-.16,1.44,1.73,1.73,0,0,1-1.2.77,2.74,2.74,0,0,1-1.44-.23" style="fill:#ffbf9d"></path><path d="M217.52,131.61s.21,0,.56.08a2.06,2.06,0,0,0,1.38-.21,1.23,1.23,0,0,0,.58-.68,2.13,2.13,0,0,0,.06-1.08,5,5,0,0,0-1.1-2.36,4.8,4.8,0,0,0-2.14-1.5,5.21,5.21,0,0,0-2.14-.26,11,11,0,0,0-2,.48,3.2,3.2,0,0,1,1.94-.85,5.21,5.21,0,0,1,2.34.17A5.14,5.14,0,0,1,219.4,127a5.22,5.22,0,0,1,1.17,2.63,2.51,2.51,0,0,1-.12,1.31,1.7,1.7,0,0,1-.82.85,2.09,2.09,0,0,1-1.6.07C217.67,131.76,217.51,131.63,217.52,131.61Z" style="fill:#ff9a6c"></path><path d="M212.26,127.67a15.3,15.3,0,0,1,3.92,1.9,5.13,5.13,0,0,1,2.2,3.63s0,1.73-1.06,1.75" style="fill:#ffbf9d"></path><path d="M217.32,135s.16,0,.36-.2a1.46,1.46,0,0,0,.44-.95,4.08,4.08,0,0,0-1.29-3.3,10.31,10.31,0,0,0-3.14-2.08,6.18,6.18,0,0,1-1.43-.75,4.55,4.55,0,0,1,1.58.41,8.72,8.72,0,0,1,3.37,2.06,4.16,4.16,0,0,1,1.27,3.74,1.5,1.5,0,0,1-.7,1C217.49,135.05,217.32,135,217.32,135Z" style="fill:#ff9a6c"></path><path d="M220.49,130.7a8.14,8.14,0,0,0-1.63,8.86" style="fill:#ffbf9d"></path><path d="M218.86,139.56c-.05,0-.37-.43-.62-1.28a7.63,7.63,0,0,1,1.21-6.6c.55-.71,1-1,1-1a12.56,12.56,0,0,0-1.9,4.23A12.23,12.23,0,0,0,218.86,139.56Z" style="fill:#ff9a6c"></path><path d="M255,431.31c1.55-.71,1.55-9,1.55-9l14.22-.52-1.25,12.85Z" style="fill:#ffbf9d"></path><path d="M270.94,433.25l-.25,1s14.66,11,14,14.19l-32.55-8.67,3.38-10.89A19,19,0,0,0,270.94,433.25Z" style="fill:#E8505B"></path><g style="opacity:0.6000000000000001"><path d="M257.89,433.26a1.39,1.39,0,0,0-1.33,1.29,1.32,1.32,0,0,0,1.24,1.34,1.46,1.46,0,0,0,1.4-1.38c-.05-.68-.79-1.4-1.45-1.24" style="fill:#fff"></path></g><g style="opacity:0.6000000000000001"><path d="M252.15,439.75l.81-2.62,30.9,9.27s1.28,1,.84,2Z" style="fill:#fff"></path></g><path d="M270.78,434.35c0,.16-.87,0-1.79.34s-1.51.87-1.64.77.35-1,1.47-1.33S270.85,434.21,270.78,434.35Z" style="fill:#263238"></path><path d="M273.81,436.7c0,.16-.77.25-1.49.79s-1.07,1.22-1.23,1.17,0-1,.9-1.64S273.84,436.54,273.81,436.7Z" style="fill:#263238"></path><path d="M274.64,441.36c-.15,0-.16-.87.48-1.64s1.48-.93,1.52-.78-.56.5-1.08,1.15S274.8,441.39,274.64,441.36Z" style="fill:#263238"></path><polygon points="171.46 380.75 157.11 403.8 167.76 410.04 183.16 390.4 171.46 380.75" style="fill:#ffbf9d"></polygon><path d="M171.14,405.9s-10.6.11-11.08-6.6l-2.35,1.48L143.33,413a2.37,2.37,0,0,0,1.83,4.22c4.85-.74,22.65-3.58,23.5-5l2.5-3.7a2.28,2.28,0,0,0,0-2.55Z" style="fill:#E8505B"></path><g style="opacity:0.6000000000000001"><path d="M143.09,416.5l26.46-5.62-.56.8c-.52.92-1.14,1-1.94,1.27-2.38.81-8.37,2.15-21.83,4.29a2.44,2.44,0,0,1-2.13-.74Z" style="fill:#fff"></path></g><g style="opacity:0.6000000000000001"><path d="M169,406.94a1.44,1.44,0,0,0-1.39,1.31,1.4,1.4,0,0,0,1.31,1.39,1.5,1.5,0,0,0,1.46-1.39,1.45,1.45,0,0,0-1.51-1.3" style="fill:#fff"></path></g><path d="M153.21,411.27a7.12,7.12,0,0,0-.66-2.63c-.72-1.35-2-1.81-1.91-1.94s.36,0,.85.21a3.77,3.77,0,0,1,1.51,1.48,3.71,3.71,0,0,1,.48,2.05C153.43,411,153.27,411.29,153.21,411.27Z" style="fill:#263238"></path><path d="M150.09,412.86c-.15,0-.34-1-1.13-2s-1.76-1.39-1.71-1.53a3.38,3.38,0,0,1,2.84,3.52Z" style="fill:#263238"></path><path d="M158,409.78a24,24,0,0,0-1.53-3.18,22.93,22.93,0,0,0-2.39-2.62,5.34,5.34,0,0,1,2.81,2.34A5.22,5.22,0,0,1,158,409.78Z" style="fill:#263238"></path><path d="M161.49,405.45c-.13.08-.89-1.09-2.23-2.09s-2.66-1.43-2.62-1.57a6,6,0,0,1,4.85,3.66Z" style="fill:#263238"></path><path d="M158.5,402.78s.16-.27.6-.63a6,6,0,0,1,2.12-1.12A2.77,2.77,0,0,1,163,401a.94.94,0,0,1,.61.91,1.52,1.52,0,0,1-.47,1,3.38,3.38,0,0,1-4.29.08,3.88,3.88,0,0,1-1.28-4.13,1.33,1.33,0,0,1,.75-.83,1,1,0,0,1,1,.34,3.4,3.4,0,0,1,.52,1.64,6.46,6.46,0,0,1-.15,2.38,2,2,0,0,1-.31.82,10.75,10.75,0,0,0,.11-3.15,3.11,3.11,0,0,0-.5-1.42.49.49,0,0,0-.57-.19.9.9,0,0,0-.45.57,3.48,3.48,0,0,0,1.14,3.58,2.94,2.94,0,0,0,3.64,0,1.11,1.11,0,0,0,.37-.67.52.52,0,0,0-.34-.51,2.43,2.43,0,0,0-1.46,0A9.12,9.12,0,0,0,158.5,402.78Z" style="fill:#263238"></path><path d="M311.8,217.72c-3.3-2-4.71-6.2-4.65-10.07s1.29-7.62,2.09-11.4,1.13-7.9-.52-11.4-5.85-6-9.47-4.67l-10.35,6.19A47.93,47.93,0,0,1,290.55,200c-.08,3.45-.52,7.05.78,10.25,1.82,4.51,6.64,7.09,11.36,8.26l-1.61-2.66A11.72,11.72,0,0,0,311.8,217.72Z" style="fill:#263238"></path><path d="M285.93,164.33c4.22.74,7.17,3.52,9.73,7a21.79,21.79,0,0,1,.28,24.78,16.8,16.8,0,0,1-11.21,6.9c-6.11.78-12.41-2.49-15.79-7.64a21.17,21.17,0,0,1-2.13-17.77,20.36,20.36,0,0,1,7.09-10.32,15.57,15.57,0,0,1,12-2.91" style="fill:#263238"></path><path d="M292.43,181.9c0-1.73.79-3.35,1.14-5.05.75-3.73-1.1-7.6-3.91-10.16-2.63-2.39-6.49-3.45-10.63-3.57a15.09,15.09,0,0,0-8.17,2,11.87,11.87,0,0,0-5.62,9.29l19.13,3.83a21.44,21.44,0,0,0,4.22,5.58,3.88,3.88,0,0,0,1.78,1,1.79,1.79,0,0,0,1.83-.66A3.71,3.71,0,0,0,292.43,181.9Z" style="fill:#263238"></path><path d="M276.86,168l14.67,9a3.15,3.15,0,0,1,1.74,3.89l-12.42,34.28a11.31,11.31,0,0,1-4.54,5.68l-2.21,1.41a8.31,8.31,0,0,1-12.73-5.62,4.27,4.27,0,0,1-.05-1,7.67,7.67,0,0,1,.13-.83,25.92,25.92,0,0,1,1.58-5.3c.93-3.12,1.33-4.39,1.32-4.36S258.14,202,259.46,193c.65-4.46,3-11.35,5.18-16.93C266.57,171.09,271.93,165.87,276.86,168Z" style="fill:#ffbf9d"></path><path d="M265.66,184.4a1.15,1.15,0,0,0,.71,1.43,1.1,1.1,0,0,0,1.44-.63,1.16,1.16,0,0,0-.71-1.44A1.1,1.1,0,0,0,265.66,184.4Z" style="fill:#263238"></path><path d="M265,180.2c.09.19,1.11-.17,2.29.2s1.85,1.24,2,1.13,0-.34-.27-.74a3.18,3.18,0,0,0-3.45-1.06C265.18,179.9,265,180.12,265,180.2Z" style="fill:#263238"></path><path d="M275.66,187.33a1.15,1.15,0,0,0,.71,1.44,1.1,1.1,0,0,0,1.44-.64,1.15,1.15,0,0,0-.71-1.43A1.1,1.1,0,0,0,275.66,187.33Z" style="fill:#263238"></path><path d="M276.15,183.85c.1.18,1.12-.17,2.29.2s1.86,1.23,2,1.13,0-.35-.26-.74a3.21,3.21,0,0,0-1.57-1.08,3,3,0,0,0-1.88,0C276.31,183.54,276.11,183.76,276.15,183.85Z" style="fill:#263238"></path><path d="M269.52,191.44a8.12,8.12,0,0,0-1.8-.94c-.29-.13-.56-.27-.55-.5a1.67,1.67,0,0,1,.48-.82l1.61-2a41.16,41.16,0,0,0,3.87-5.36,40,40,0,0,0-4.29,5l-1.58,2a1.76,1.76,0,0,0-.52,1.13.79.79,0,0,0,.35.59,2.1,2.1,0,0,0,.49.23A7.84,7.84,0,0,0,269.52,191.44Z" style="fill:#263238"></path><path d="M264.35,205.13a22.71,22.71,0,0,0,12.38.53s-4.72,5-13,1.54Z" style="fill:#ff9a6c"></path><path d="M269.13,194.44a2.22,2.22,0,0,1,2.15-.19,2,2,0,0,1,1.12,1.13,1.29,1.29,0,0,1-.35,1.44,1.51,1.51,0,0,1-1.67-.1,4.48,4.48,0,0,1-1.22-1.37,1.37,1.37,0,0,1-.23-.45.44.44,0,0,1,.14-.44" style="fill:#ff9a6c"></path><path d="M272.73,193.34c-.18-.07-.59,1.21-2,1.78s-2.7,0-2.77.17.23.34.8.54a3.34,3.34,0,0,0,2.28-.07,2.91,2.91,0,0,0,1.57-1.52C272.87,193.72,272.82,193.36,272.73,193.34Z" style="fill:#263238"></path><path d="M277.45,180.42c0,.36,1.24.57,2.57,1.17s2.33,1.33,2.6,1.1,0-.48-.33-.93a4.91,4.91,0,0,0-3.94-1.73C277.78,180.08,277.45,180.25,277.45,180.42Z" style="fill:#263238"></path><path d="M267,175.16c.13.33,1,.31,2,.6s1.75.74,2,.52c.12-.11.08-.42-.2-.78a3,3,0,0,0-3.25-.91C267.12,174.76,266.92,175,267,175.16Z" style="fill:#263238"></path><path d="M296.21,180.48c.08-5.42-4.76-14.56-10-15.91l-9.83,2.17a8.35,8.35,0,0,0,3.35,7.84c1.3.92,3,1.63,3.45,3.16s-.68,3.24-.3,4.83c.53,2.19,3.66,3.14,3.85,5.39.09,1-.45,1.95-.35,2.93.14,1.31,2.53,3.7,3.85,3.72s2-2,2.73-2.93a5.91,5.91,0,0,0,1.43-3.71C294.66,185.4,296.18,183.07,296.21,180.48Z" style="fill:#263238"></path><path d="M286.38,194.45c.2-.64,1.4-1.91,2.06-1.81,1.76.26,4.74,1.34,3.43,5.61-1.78,5.83-7.27,2.84-7.23,2.67S285.68,196.64,286.38,194.45Z" style="fill:#ffbf9d"></path><path d="M287.1,199.25s.08.11.23.24a1,1,0,0,0,.75.24c.69,0,1.51-.85,1.85-1.9a3.46,3.46,0,0,0,.17-1.54,1.24,1.24,0,0,0-.53-1,.55.55,0,0,0-.69.09c-.12.14-.12.27-.16.27s-.09-.13,0-.36a.68.68,0,0,1,.34-.3.81.81,0,0,1,.61,0,1.47,1.47,0,0,1,.78,1.23,3.58,3.58,0,0,1-.14,1.73,2.79,2.79,0,0,1-2.25,2.07,1.16,1.16,0,0,1-.89-.44C287.07,199.4,287.08,199.26,287.1,199.25Z" style="fill:#ff9a6c"></path><path d="M298.71,190a5.51,5.51,0,0,0,.82-1.65,13.31,13.31,0,0,0,.15-8.78,5.26,5.26,0,0,0-.77-1.67,19.84,19.84,0,0,1,1,6.07A20.23,20.23,0,0,1,298.71,190Z" style="fill:#E8505B"></path><path d="M278.66,165.6c-1.36,2.15-6,3.88-8.19,5.15-4.21,2.41-5.21,3.36-7.94,11.13-.45-3.18-.59-6.19.59-9.18a13.35,13.35,0,0,1,6.26-7,10.38,10.38,0,0,1,9.28-.05" style="fill:#263238"></path><path d="M299.17,181.45a7.46,7.46,0,0,1-1.07-.11,11.34,11.34,0,0,1-1.23-.21c-.48-.1-1-.2-1.62-.37a29.39,29.39,0,0,1-4.08-1.41,32.36,32.36,0,0,1-4.66-2.5,33.13,33.13,0,0,1-4.16-3.28,29.7,29.7,0,0,1-2.92-3.19c-.39-.47-.7-.94-1-1.34s-.51-.75-.69-1a6.25,6.25,0,0,1-.52-.94,5.81,5.81,0,0,1,.64.86c.19.28.43.63.73,1s.62.83,1,1.29a32.57,32.57,0,0,0,2.95,3.1,33.9,33.9,0,0,0,4.12,3.22,35.3,35.3,0,0,0,4.6,2.51,32.74,32.74,0,0,0,4,1.46c.58.19,1.12.3,1.59.42s.88.21,1.22.27A6,6,0,0,1,299.17,181.45Z" style="fill:#455a64"></path><path d="M298.3,185.78a3.48,3.48,0,0,1-.72-.08,17.27,17.27,0,0,1-1.94-.42,24.76,24.76,0,0,1-6-2.55,24.32,24.32,0,0,1-5.12-4.06,17.08,17.08,0,0,1-1.3-1.49,2.34,2.34,0,0,1-.41-.6c.05,0,.7.76,1.89,1.91a28,28,0,0,0,5.12,3.92,28.29,28.29,0,0,0,5.9,2.62C297.3,185.52,298.31,185.71,298.3,185.78Z" style="fill:#455a64"></path><polygon points="225.83 275.8 162.45 394.4 174.54 403.71 206.79 360.3 244 314.8 246.48 315.31 255.3 291 225.83 275.8" style="fill:#263238"></polygon><path d="M246.48,315.31s7.5,62.44,7.5,63.47,1.71,48.68,1.71,48.68l15.09.71s3.77-29.51,4.11-41.51-1.37-18.17,0-23.65,5.16-38,6.52-44.18c2.67-12.24-1.84-32.14-1.84-32.14L271.18,291l-17.91-1.78Z" style="fill:#263238"></path><path d="M289.39,214l-7.61-1.4s-1.92,5.82-9.93,4.29c-6.61-1.25-8.79-8.42-8.79-8.42l-9.24-3.06L236.1,215.54l3.24,2.25-1.81,33.41-13.35,26.1s17.48,9.82,33.76,13.41,22.76-2.39,22.76-2.39L280.52,263s7.43-17.61,8.87-23.11S289.39,214,289.39,214Z" style="fill:#E8505B"></path><path d="M290.89,216.5s6.79,3.29,7.95,11,10.24,34.39,10.24,34.39L323,290.15l-7,4.47s-18.62-22.09-21.52-31.36a151.75,151.75,0,0,0-6.18-16.42V221.72Z" style="fill:#ffbf9d"></path><path d="M323,290.15c.21.29,8.64,9.15,8.64,9.44s2,8.49,2,8.49l-3,4.82s-2,.86-1.8-.87l-.68.58a2,2,0,0,1-2.31.26c-.34-.2-.57-.46-.44-.81l-.48-.08a1.09,1.09,0,0,1-.73-1.67.47.47,0,0,1,.06-.09,3.51,3.51,0,0,1,1.06-1.06l-.87-3.6L324,309l-1.8,2s-1.51.36-1.22-1a2.82,2.82,0,0,1,.91-1.78l-.93-3s-1.92-2.81-2.57-4-2.45-2.88-2.45-4.46v-2.66Z" style="fill:#ffbf9d"></path><path d="M327.44,295.64s.1.05.27.19a3.22,3.22,0,0,1,.6.74,9.19,9.19,0,0,1,1,3.31c.24,1.47.51,3.16.82,5a6.42,6.42,0,0,1,0,3.11,2,2,0,0,1-.48.75,1.24,1.24,0,0,1-.91.35,1.8,1.8,0,0,1-1.42-1.13,23.55,23.55,0,0,1-1.67-5.9l.17.2a11.59,11.59,0,0,1-6-3.9,10.42,10.42,0,0,1-1.13-1.73,2.33,2.33,0,0,1-.27-.68,27.53,27.53,0,0,0,1.63,2.22,11.75,11.75,0,0,0,5.9,3.62l.16,0,0,.16a24.24,24.24,0,0,0,1.66,5.73c.23.46.58.85,1,.86s.73-.35.9-.78a6.19,6.19,0,0,0,0-2.84c-.26-1.87-.5-3.57-.7-5a6.63,6.63,0,0,0-1.49-4.3Z" style="fill:#ff9a6c"></path><path d="M328.26,308.86c.06.12-.64.72-1.37,1.65s-1.41,1.66-1.53,1.55.37-.92,1.13-1.88S328.19,308.72,328.26,308.86Z" style="fill:#ff9a6c"></path><path d="M329.66,300.88a9.34,9.34,0,0,1,.43,1.73c.12.53.28,1.16.5,1.84.1.34.22.7.36,1.07a5.06,5.06,0,0,1,.35,1.24,1.89,1.89,0,0,1-.41,1.31c-.24.33-.46.61-.66.91a11.5,11.5,0,0,0-.89,1.66c-.42,1-.48,1.67-.56,1.66a3,3,0,0,1,.22-1.79,8.45,8.45,0,0,1,.83-1.79c.35-.66,1.06-1.22.95-1.92a5.46,5.46,0,0,0-.31-1.11c-.13-.38-.25-.75-.34-1.1a13.39,13.39,0,0,1-.4-1.91A4.62,4.62,0,0,1,329.66,300.88Z" style="fill:#ff9a6c"></path><path d="M289.39,214s6.44,2.27,8.63,7.91,5.64,15.48,5.64,15.48l-16.05,10.8-.9-2-3.4-26.76Z" style="fill:#E8505B"></path><path d="M255.31,205.9l-12-17c-3,9.34-12.4,18.59-14.51,18.87l9.89,21.47Z" style="fill:#E8505B"></path><path d="M290,226.11a7.3,7.3,0,0,1,.26,1.48c.07.48.14,1.07.18,1.75s.12,1.47.13,2.34a30.76,30.76,0,0,1-.41,6.09,43.59,43.59,0,0,1-1.88,7.22c-1.75,5-3.77,9.33-5.16,12.49l-1.71,3.72a9.59,9.59,0,0,1-.69,1.34,7.73,7.73,0,0,1,.5-1.42c.41-1,.93-2.25,1.56-3.78,1.31-3.2,3.28-7.56,5-12.52a38.55,38.55,0,0,0,2.41-13.14c0-.86,0-1.63-.05-2.32s-.05-1.27-.09-1.75A8.09,8.09,0,0,1,290,226.11Z" style="fill:#263238"></path><path d="M241.25,205.18a3.36,3.36,0,0,1,.36.84,18.5,18.5,0,0,1,.67,2.4,26.79,26.79,0,0,1-1.51,16.17,19.36,19.36,0,0,1-1.11,2.24,3.64,3.64,0,0,1-.51.76c-.08-.05.54-1.19,1.28-3.13a30.07,30.07,0,0,0,1.49-16C241.56,206.44,241.16,205.2,241.25,205.18Z" style="fill:#263238"></path><path d="M258.31,214c-.06,0,0-.42-.18-1.13a13.66,13.66,0,0,0-1.12-2.9,82.09,82.09,0,0,0-5.43-8.83c-2.28-3.29-4.34-6.27-5.93-8.55-.74-1.11-1.34-2-1.74-2.64a4.64,4.64,0,0,1-.57-1,5,5,0,0,1,.74.9l1.87,2.53c1.58,2.15,3.76,5.12,6.06,8.48a62.91,62.91,0,0,1,5.33,9,11.41,11.41,0,0,1,1,3,3,3,0,0,1,0,.87C258.35,213.87,258.33,214,258.31,214Z" style="fill:#263238"></path><path d="M271.61,273.18a5.38,5.38,0,0,1-1.16.52c-.76.3-1.88.7-3.28,1.14A71.3,71.3,0,0,1,256,277.35a69.92,69.92,0,0,1-11.41.69c-1.46,0-2.64-.1-3.46-.18a5.33,5.33,0,0,1-1.26-.17,7,7,0,0,1,1.27,0c.82,0,2,0,3.45,0a87.45,87.45,0,0,0,11.33-.85,85.82,85.82,0,0,0,11.12-2.35c1.4-.39,2.53-.73,3.31-1A6.82,6.82,0,0,1,271.61,273.18Z" style="fill:#263238"></path><path d="M250.69,293.47a18,18,0,0,1-.73,2.69c-.5,1.64-1.18,3.92-1.87,6.44s-1.25,4.84-1.65,6.51a16.85,16.85,0,0,1-.73,2.69,13.27,13.27,0,0,1,.37-2.77c.31-1.7.82-4,1.51-6.56s1.43-4.81,2-6.43A12.09,12.09,0,0,1,250.69,293.47Z" style="fill:#455a64"></path><path d="M279.73,307.49a1.83,1.83,0,0,1-.68.18,9.27,9.27,0,0,1-1.91.1,11.16,11.16,0,0,1-9.86-7,9,9,0,0,1-.54-1.84c-.08-.45-.09-.7-.05-.7s.26,1,.93,2.39a11.68,11.68,0,0,0,9.54,6.74C278.73,307.56,279.72,307.4,279.73,307.49Z" style="fill:#455a64"></path><path d="M236.24,287.29a6.62,6.62,0,0,1-1.67,1.8A13.86,13.86,0,0,1,223.35,292a6.4,6.4,0,0,1-2.33-.77c0-.08.92.22,2.39.41a15.38,15.38,0,0,0,5.73-.36,15.56,15.56,0,0,0,5.2-2.45C235.54,287.92,236.17,287.23,236.24,287.29Z" style="fill:#455a64"></path><g style="opacity:0.30000000000000004"><path d="M290.45,228c.1,6.58.1,13.55-3.26,19.22l0,.54A16,16,0,0,0,290.45,228Z"></path></g></g></svg>